<?xml version="1.0" encoding="UTF-8" ?>
<!DOCTYPE svg PUBLIC "-//W3C//DTD SVG 1.1//EN" "http://www.w3.org/Graphics/SVG/1.1/DTD/svg11.dtd">
<svg width="70pt" height="70pt" viewBox="0 0 70 70" version="1.1" xmlns="http://www.w3.org/2000/svg">
<g id="#000000ff">
<path fill="#64b5f6" opacity="1.00" d=" M 3.25 13.12 C 13.53 9.74 23.76 6.23 34.02 2.79 C 35.49 2.11 37.01 2.93 38.43 3.31 C 48.14 6.68 57.91 9.87 67.64 13.18 C 67.66 31.00 67.63 48.83 67.65 66.65 C 63.57 66.66 59.49 66.66 55.41 66.65 C 55.43 61.27 55.41 55.89 55.44 50.51 C 50.12 50.50 44.80 50.50 39.48 50.50 C 39.52 55.88 39.49 61.26 39.52 66.65 C 27.41 66.66 15.30 66.66 3.20 66.65 C 3.26 48.80 3.17 30.96 3.25 13.12 M 15.40 18.36 C 15.40 21.02 15.42 23.67 15.42 26.33 C 20.72 26.31 26.02 26.31 31.33 26.33 C 31.33 23.67 31.33 21.02 31.34 18.36 C 26.03 18.35 20.71 18.35 15.40 18.36 M 39.48 18.37 C 39.49 21.02 39.50 23.67 39.50 26.33 C 44.81 26.31 50.11 26.32 55.42 26.32 C 55.42 23.67 55.43 21.02 55.44 18.37 C 50.12 18.35 44.80 18.35 39.48 18.37 M 15.40 34.53 C 15.41 37.14 15.41 39.75 15.40 42.36 C 20.71 42.38 26.02 42.38 31.33 42.37 C 31.33 39.75 31.33 37.14 31.33 34.52 C 26.02 34.52 20.71 34.51 15.40 34.53 M 39.49 34.53 C 39.50 37.14 39.50 39.75 39.49 42.37 C 44.80 42.38 50.11 42.38 55.43 42.36 C 55.42 39.75 55.42 37.14 55.43 34.53 C 50.11 34.52 44.80 34.52 39.49 34.53 M 15.40 50.50 C 15.41 53.15 15.41 55.80 15.40 58.45 C 20.71 58.44 26.02 58.44 31.33 58.45 C 31.33 55.80 31.33 53.15 31.34 50.50 C 26.02 50.50 20.71 50.50 15.40 50.50 Z" />
</g>
</svg>
