<?xml version="1.0" encoding="UTF-8" ?>
<!DOCTYPE svg PUBLIC "-//W3C//DTD SVG 1.1//EN" "http://www.w3.org/Graphics/SVG/1.1/DTD/svg11.dtd">
<svg width="70pt" height="70pt" viewBox="0 0 70 70" version="1.1" xmlns="http://www.w3.org/2000/svg">
<g id="#64b5f6ff">
<path fill="#64b5f6" opacity="1.00" d=" M 6.85 9.23 C 25.25 9.07 43.67 8.94 62.06 9.29 C 62.84 10.23 63.66 11.12 64.53 11.97 C 64.83 13.30 64.83 14.66 64.48 15.99 C 63.63 16.77 62.79 17.57 61.98 18.40 C 60.01 18.75 58.01 18.81 56.02 18.77 C 40.08 18.66 24.13 18.90 8.19 18.66 C 3.93 17.77 4.13 11.72 6.85 9.23 Z" />
<path fill="#64b5f6" opacity="1.00" d=" M 8.12 38.62 C 3.27 37.51 4.02 29.44 8.85 28.75 C 25.32 28.82 41.78 28.73 58.24 28.79 C 60.82 28.54 62.90 30.18 64.63 31.87 C 64.78 33.24 64.78 34.62 64.50 35.98 C 63.63 36.77 62.79 37.57 61.96 38.40 C 59.98 38.70 57.97 38.78 55.97 38.74 C 40.02 38.62 24.06 38.88 8.12 38.62 Z" />
<path fill="#64b5f6" opacity="1.00" d=" M 5.67 57.10 C 3.95 53.96 4.97 49.55 8.79 48.72 C 25.91 48.82 43.03 48.81 60.15 48.73 C 61.89 49.44 63.31 50.66 64.67 51.92 C 65.52 54.60 63.81 56.68 62.11 58.51 C 45.44 59.27 28.71 58.60 12.01 58.85 C 9.87 58.71 6.93 59.39 5.67 57.10 Z" />
</g>
</svg>
