<?xml version="1.0" encoding="UTF-8" ?>
<!DOCTYPE svg PUBLIC "-//W3C//DTD SVG 1.1//EN" "http://www.w3.org/Graphics/SVG/1.1/DTD/svg11.dtd">
<svg width="70pt" height="70pt" viewBox="0 0 70 70" version="1.1" xmlns="http://www.w3.org/2000/svg">
<g id="#ffffffff">
<path fill="#64b5f6" opacity="1.00" d=" M 13.63 20.24 C 12.98 15.93 18.67 11.47 22.46 14.47 C 26.87 18.42 30.93 22.77 35.10 26.98 C 39.58 23.25 43.29 18.62 47.71 14.80 C 50.69 11.91 56.01 14.27 56.61 18.14 C 57.15 20.19 56.19 22.28 54.69 23.66 C 50.86 27.45 47.12 31.32 43.22 35.03 C 47.20 39.00 51.19 42.95 55.14 46.96 C 57.38 49.05 57.22 53.00 54.93 55.00 C 53.06 57.07 49.54 57.24 47.55 55.25 C 43.29 51.32 39.45 46.95 35.13 43.09 C 30.80 47.47 26.64 52.11 21.91 56.05 C 18.51 58.08 15.12 55.04 13.61 52.12 C 13.08 49.48 14.98 47.37 16.68 45.64 C 20.28 42.12 23.76 38.48 27.42 35.02 C 24.66 32.65 22.23 29.93 19.62 27.41 C 17.48 25.16 14.84 23.20 13.63 20.24 Z" />
</g>
</svg>
