<?xml version="1.0" encoding="UTF-8" ?>
<!DOCTYPE svg PUBLIC "-//W3C//DTD SVG 1.1//EN" "http://www.w3.org/Graphics/SVG/1.1/DTD/svg11.dtd">
<svg width="70pt" height="70pt" viewBox="0 0 70 70" version="1.1" xmlns="http://www.w3.org/2000/svg">
<g id="#000000ff">
<path fill="#ffffff" opacity="1.00" d=" M 10.36 11.92 C 10.20 9.42 12.44 7.20 14.93 7.33 C 25.00 7.25 35.08 7.26 45.15 7.33 C 47.73 7.13 50.12 9.29 50.03 11.91 C 50.20 19.30 50.08 26.71 50.09 34.10 C 50.29 35.84 48.94 37.09 48.10 38.43 C 47.20 37.70 46.38 36.90 45.63 36.03 C 45.58 29.00 45.77 21.96 45.57 14.94 C 45.62 13.10 43.79 11.72 42.04 11.82 C 34.33 11.71 26.60 11.79 18.89 11.78 C 16.55 11.42 14.40 13.59 14.81 15.93 C 14.80 25.65 14.80 35.37 14.81 45.09 C 14.52 46.98 15.90 48.95 17.86 49.07 C 24.42 49.42 31.00 48.99 37.57 49.27 C 36.50 50.89 35.26 52.39 33.88 53.76 C 27.29 53.52 20.68 53.94 14.10 53.57 C 11.47 53.29 10.05 50.48 10.32 48.06 C 10.35 36.01 10.27 23.97 10.36 11.92 Z" />
<path fill="#ffffff" opacity="1.00" d=" M 18.60 18.59 C 18.91 18.35 19.54 17.89 19.85 17.66 C 26.56 17.37 33.29 17.54 40.00 17.57 C 42.46 17.06 43.45 20.94 41.16 21.68 C 34.43 22.05 27.67 21.81 20.93 21.82 C 19.05 22.20 17.75 20.20 18.60 18.59 Z" />
<path fill="#ffffff" opacity="1.00" d=" M 19.21 25.30 C 20.65 24.49 22.41 24.92 23.99 24.78 C 29.66 24.96 35.34 24.58 40.99 24.95 C 43.04 25.41 43.03 28.59 40.98 29.03 C 34.32 29.32 27.64 29.12 20.97 29.13 C 18.76 29.67 17.16 26.41 19.21 25.30 Z" />
<path fill="#ffffff" opacity="1.00" d=" M 19.91 36.38 C 17.65 36.23 17.70 32.19 20.04 32.13 C 24.68 31.70 29.34 32.36 33.99 32.03 C 37.01 32.13 40.62 31.04 42.93 33.55 C 39.43 33.15 35.87 33.78 33.40 36.49 C 28.91 36.44 24.39 36.73 19.91 36.38 Z" />
<path fill="#ffffff" opacity="1.00" d=" M 36.48 43.03 C 34.21 40.02 38.31 35.80 41.48 37.57 C 43.91 39.41 45.72 41.91 47.83 44.09 C 49.78 41.95 51.49 39.55 53.76 37.72 C 56.67 35.76 60.94 39.32 59.37 42.50 C 57.64 45.28 55.14 47.48 53.01 49.95 C 55.19 52.42 57.76 54.62 59.43 57.48 C 60.86 60.59 56.60 64.14 53.82 62.10 C 51.50 60.31 49.78 57.89 47.80 55.76 C 45.77 57.89 44.00 60.33 41.67 62.16 C 38.65 64.22 34.22 60.03 36.41 56.96 C 38.12 54.35 40.51 52.27 42.55 49.93 C 40.55 47.61 38.19 45.58 36.48 43.03 Z" />
<path fill="#ffffff" opacity="1.00" d=" M 19.77 43.36 C 17.81 42.96 17.86 39.66 19.87 39.31 C 23.96 38.96 28.08 39.28 32.18 39.16 C 32.18 40.62 32.22 42.09 32.31 43.55 C 28.13 43.42 23.94 43.78 19.77 43.36 Z" />
</g>
</svg>
