<?xml version="1.0" encoding="UTF-8" ?>
<!DOCTYPE svg PUBLIC "-//W3C//DTD SVG 1.1//EN" "http://www.w3.org/Graphics/SVG/1.1/DTD/svg11.dtd">
<svg width="70pt" height="70pt" viewBox="0 0 70 70" version="1.1" xmlns="http://www.w3.org/2000/svg">
<g id="#020202ff">
<path fill="#ffffff" opacity="1.00" d=" M 36.68 19.14 C 35.01 16.65 33.62 12.92 36.41 10.64 C 39.63 8.67 42.92 10.92 44.78 13.57 C 44.08 15.58 43.48 17.62 42.94 19.67 C 42.24 19.96 40.84 20.55 40.15 20.84 C 43.14 23.59 46.48 26.22 50.80 25.97 C 52.21 24.62 53.62 23.15 53.34 21.00 L 50.51 22.08 C 50.56 20.84 50.66 18.38 50.72 17.14 C 52.42 18.83 53.98 20.69 54.79 22.99 C 57.33 23.32 58.90 25.39 59.69 27.66 C 58.46 29.04 56.35 28.85 54.73 29.45 C 57.45 32.11 60.67 34.53 62.38 38.01 C 62.22 39.13 61.35 39.98 60.85 40.96 C 63.40 41.48 65.71 42.68 67.71 44.31 C 67.14 44.58 65.98 45.13 65.40 45.40 C 70.54 48.10 70.33 56.68 64.94 58.92 C 60.72 61.17 55.68 58.39 54.14 54.13 C 53.89 54.54 53.38 55.35 53.12 55.76 C 48.40 56.10 43.67 55.29 38.94 55.23 C 36.47 54.99 33.26 55.48 31.91 52.83 C 31.34 56.02 29.12 59.02 25.76 59.53 C 21.23 60.61 16.51 56.60 16.73 51.99 C 16.49 49.27 18.46 47.20 19.98 45.22 C 18.92 44.86 17.86 44.51 16.79 44.16 C 18.77 42.19 20.86 40.34 22.90 38.43 C 20.70 38.39 18.49 38.38 16.29 38.38 C 15.86 37.14 15.46 35.88 15.07 34.63 C 12.09 34.62 9.12 34.61 6.15 34.59 C 6.14 34.14 6.13 33.25 6.12 32.81 C 11.47 32.74 16.85 33.30 22.13 32.16 L 11.94 31.58 L 9.97 30.39 C 12.78 30.16 15.61 30.11 18.43 29.99 C 17.61 29.63 15.98 28.91 15.16 28.55 C 15.47 26.83 15.13 24.82 16.30 23.38 C 20.93 22.97 25.69 22.76 30.28 23.55 C 31.19 28.10 30.32 32.79 30.69 37.39 L 32.27 37.45 C 31.80 31.15 32.03 23.98 36.68 19.14 M 41.41 27.96 C 41.01 29.86 40.60 31.75 40.19 33.65 C 42.76 34.21 45.36 34.64 47.85 35.46 C 49.06 35.91 50.69 36.49 50.57 38.08 C 50.63 42.15 49.67 46.16 49.18 50.19 C 49.67 50.45 50.66 50.98 51.16 51.25 C 54.90 44.36 53.33 36.34 51.72 29.10 C 48.23 29.46 44.65 29.54 41.41 27.96 M 40.89 40.37 C 40.51 44.53 40.61 50.40 44.68 52.75 C 44.86 48.78 45.02 44.82 45.32 40.85 C 43.84 40.69 42.36 40.53 40.89 40.37 M 61.16 48.11 C 58.56 48.25 56.67 51.52 58.09 53.77 C 59.36 56.59 63.83 56.67 65.16 53.84 C 66.95 51.23 64.12 47.58 61.16 48.11 M 22.17 48.70 C 19.77 50.12 19.73 53.85 22.11 55.31 C 24.48 57.25 28.47 55.02 28.33 52.04 C 28.37 49.06 24.66 46.88 22.17 48.70 Z" />
</g>
</svg>
