<?xml version="1.0" encoding="UTF-8" ?>
<!DOCTYPE svg PUBLIC "-//W3C//DTD SVG 1.1//EN" "http://www.w3.org/Graphics/SVG/1.1/DTD/svg11.dtd">
<svg width="70pt" height="70pt" viewBox="0 0 70 70" version="1.1" xmlns="http://www.w3.org/2000/svg">
<g id="#64b5f6ff">
<path fill="#64b5f6" opacity="1.00" d=" M 44.42 11.48 C 47.43 10.63 50.95 10.81 53.50 12.79 C 57.53 15.77 59.05 21.35 57.91 26.12 C 56.88 30.85 54.82 35.90 50.52 38.53 C 47.81 40.32 44.35 38.75 42.46 36.48 C 39.28 32.75 37.50 27.87 37.33 22.99 C 37.16 18.22 39.90 13.29 44.42 11.48 Z" />
<path fill="#64b5f6" opacity="1.00" d=" M 16.69 16.68 C 22.01 14.55 27.51 19.53 27.51 24.86 C 27.50 29.59 25.72 34.84 21.72 37.65 C 18.42 39.88 14.82 36.49 13.43 33.58 C 10.19 28.25 10.10 19.47 16.69 16.68 Z" />
<path fill="#64b5f6" opacity="1.00" d=" M 6.27 39.37 C 7.71 37.01 10.73 37.21 13.09 36.66 C 15.31 41.72 23.53 41.69 25.72 36.61 C 27.09 36.94 28.48 37.24 29.88 37.48 C 25.97 41.91 26.18 48.11 26.26 53.63 C 20.63 53.56 14.99 53.79 9.36 53.53 C 6.92 53.53 4.79 51.56 4.56 49.14 C 4.31 45.84 4.61 42.30 6.27 39.37 Z" />
<path fill="#64b5f6" opacity="1.00" d=" M 30.12 42.19 C 31.51 38.07 36.27 37.41 40.01 37.34 C 42.32 43.64 53.31 43.62 55.59 37.32 C 58.91 37.53 63.04 37.72 64.88 41.03 C 66.80 44.89 66.86 49.41 66.55 53.62 C 66.34 56.42 63.84 58.60 61.08 58.70 C 53.73 59.15 46.35 58.78 38.98 58.91 C 35.76 58.84 31.65 59.13 29.74 55.92 C 27.98 51.57 28.93 46.57 30.12 42.19 Z" />
</g>
</svg>
