<?xml version="1.0" encoding="UTF-8" ?>
<!DOCTYPE svg PUBLIC "-//W3C//DTD SVG 1.1//EN" "http://www.w3.org/Graphics/SVG/1.1/DTD/svg11.dtd">
<svg width="50pt" height="50pt" viewBox="0 0 50 50" version="1.1" xmlns="http://www.w3.org/2000/svg">
<g id="#231f20ff">
<path fill="#fff" opacity="1.00" d=" M 22.86 10.07 C 24.25 10.10 25.63 10.14 27.02 10.19 C 27.33 14.42 27.39 18.66 27.27 22.89 C 31.57 22.80 35.86 23.00 40.15 23.13 C 40.50 24.44 40.46 25.73 40.03 26.99 C 35.89 28.04 31.55 27.46 27.32 27.53 C 27.18 31.58 27.71 35.72 26.86 39.70 C 25.91 41.26 24.10 40.29 22.70 40.19 C 22.71 35.97 22.54 31.75 22.62 27.54 C 18.19 27.53 13.68 27.95 9.33 26.88 C 9.37 25.72 9.40 24.56 9.42 23.39 C 13.80 22.75 18.23 22.90 22.64 22.85 C 22.55 18.59 22.60 14.32 22.86 10.07 Z" />
</g>
</svg>
