<?xml version="1.0" encoding="UTF-8" ?>
<!DOCTYPE svg PUBLIC "-//W3C//DTD SVG 1.1//EN" "http://www.w3.org/Graphics/SVG/1.1/DTD/svg11.dtd">
<svg width="70pt" height="70pt" viewBox="0 0 70 70" version="1.1" xmlns="http://www.w3.org/2000/svg">
<g id="#0a58caff">
<path fill="#0a58ca" opacity="1.00" d=" M 30.28 9.24 C 30.76 4.13 39.14 3.97 39.89 9.05 C 40.59 16.03 39.94 23.13 40.21 30.16 C 47.29 30.31 54.40 29.82 61.45 30.39 C 66.24 31.41 65.80 39.38 60.92 39.92 C 54.03 40.53 47.07 39.99 40.15 40.18 C 40.17 46.48 40.22 52.77 40.17 59.07 C 40.19 61.33 39.12 63.99 36.72 64.59 C 34.03 65.60 30.45 63.85 30.27 60.82 C 29.98 53.96 30.23 47.08 30.16 40.22 C 23.38 40.19 16.59 40.08 9.81 40.27 C 8.16 39.53 6.11 38.83 5.57 36.89 C 4.41 34.20 6.25 30.55 9.26 30.28 C 16.24 29.71 23.31 30.77 30.26 29.72 C 30.13 22.90 30.01 16.06 30.28 9.24 Z" />
</g>
</svg>
