<?xml version="1.0" encoding="UTF-8" ?>
<!DOCTYPE svg PUBLIC "-//W3C//DTD SVG 1.1//EN" "http://www.w3.org/Graphics/SVG/1.1/DTD/svg11.dtd">
<svg width="70pt" height="70pt" viewBox="0 0 70 70" version="1.1" xmlns="http://www.w3.org/2000/svg">
<g id="#464646ff">
<path fill="#fff" opacity="1.00" d=" M 54.24 8.91 C 56.21 7.66 58.76 6.55 60.97 7.95 C 64.35 9.56 64.56 14.33 62.23 16.93 C 59.56 14.26 56.89 11.60 54.24 8.91 Z" />
<path fill="#fff" opacity="1.00" d=" M 6.32 19.00 C 6.22 14.54 10.55 10.76 14.91 10.91 C 25.50 10.90 36.09 10.93 46.67 10.91 C 44.94 12.75 43.14 14.53 41.30 16.27 C 32.50 16.20 23.70 16.20 14.91 16.25 C 12.91 16.05 11.42 18.10 11.59 19.96 C 11.57 31.31 11.50 42.67 11.62 54.02 C 11.45 56.34 14.00 57.60 16.01 57.41 C 26.68 57.45 37.35 57.44 48.02 57.42 C 50.03 57.61 52.44 56.45 52.52 54.20 C 53.16 47.17 52.62 40.07 52.74 33.03 C 53.30 30.32 56.07 28.88 57.94 27.08 C 57.86 36.07 57.98 45.06 57.88 54.05 C 58.04 58.73 53.65 62.84 49.02 62.67 C 37.69 62.69 26.36 62.69 15.03 62.67 C 10.48 62.79 6.00 58.70 6.27 54.03 C 6.45 42.36 6.34 30.68 6.32 19.00 Z" />
<path fill="#fff" opacity="1.00" d=" M 52.24 11.11 C 54.90 13.67 57.49 16.28 60.08 18.90 C 52.70 26.25 45.33 33.62 37.98 41.01 C 34.93 44.45 29.88 44.42 25.69 45.31 C 26.72 41.82 26.86 37.95 28.71 34.77 C 36.47 26.80 44.48 19.08 52.24 11.11 Z" />
</g>
</svg>
