<?xml version="1.0" encoding="UTF-8" ?>
<!DOCTYPE svg PUBLIC "-//W3C//DTD SVG 1.1//EN" "http://www.w3.org/Graphics/SVG/1.1/DTD/svg11.dtd">
<svg width="50pt" height="50pt" viewBox="0 0 50 50" version="1.1" xmlns="http://www.w3.org/2000/svg">
<g id="#ffffffff">
<path fill="#ffffff" opacity="1.00" d=" M 11.81 8.56 C 21.40 7.94 31.04 8.24 40.65 8.37 C 41.04 17.56 40.84 26.77 40.81 35.97 C 40.91 39.61 37.74 42.96 34.05 42.84 C 27.09 42.87 20.11 43.11 13.16 42.69 C 9.36 42.18 7.73 38.24 7.24 34.89 C 8.71 34.61 10.20 34.34 11.68 34.08 C 12.06 25.58 11.79 17.06 11.81 8.56 M 14.92 11.22 C 14.72 18.91 14.80 26.60 14.86 34.29 C 19.37 34.43 23.91 34.11 28.42 34.51 C 29.96 36.11 29.86 39.20 32.29 39.86 C 34.87 40.93 38.04 38.78 37.92 35.95 C 38.27 27.72 38.06 19.46 37.96 11.21 C 30.28 11.20 22.60 11.19 14.92 11.22 Z" />
<path fill="#ffffff" opacity="1.00" d=" M 19.41 16.13 C 20.42 14.61 22.91 16.33 21.75 17.78 C 20.75 19.28 18.24 17.58 19.41 16.13 Z" />
<path fill="#ffffff" opacity="1.00" d=" M 25.10 15.78 C 27.93 15.41 30.83 15.35 33.65 15.87 C 33.74 16.45 33.93 17.62 34.02 18.21 C 30.94 18.34 27.85 18.35 24.77 18.26 C 24.86 17.64 25.02 16.40 25.10 15.78 Z" />
<path fill="#ffffff" opacity="1.00" d=" M 19.23 21.25 C 19.89 21.25 21.22 21.23 21.89 21.22 C 21.96 21.96 22.10 23.44 22.17 24.18 C 21.41 24.16 19.88 24.12 19.12 24.09 C 19.14 23.38 19.20 21.96 19.23 21.25 Z" />
<path fill="#ffffff" opacity="1.00" d=" M 24.73 21.43 C 27.71 21.29 30.70 21.29 33.68 21.28 C 33.67 22.01 33.65 23.48 33.63 24.22 C 30.81 24.17 27.96 24.40 25.15 23.98 C 25.05 23.34 24.83 22.07 24.73 21.43 Z" />
<path fill="#ffffff" opacity="1.00" d=" M 19.15 27.14 C 19.88 27.12 21.34 27.09 22.07 27.08 C 22.07 27.80 22.09 29.24 22.09 29.96 C 21.35 29.95 19.88 29.93 19.14 29.91 C 19.15 29.22 19.15 27.83 19.15 27.14 Z" />
<path fill="#ffffff" opacity="1.00" d=" M 25.04 27.10 C 27.96 27.08 30.87 27.09 33.78 27.14 C 33.78 27.84 33.77 29.24 33.77 29.94 C 30.88 30.08 27.98 30.10 25.08 30.03 C 25.07 29.30 25.05 27.83 25.04 27.10 Z" />
</g>
</svg>
