<?xml version="1.0" encoding="UTF-8" ?>
<!DOCTYPE svg PUBLIC "-//W3C//DTD SVG 1.1//EN" "http://www.w3.org/Graphics/SVG/1.1/DTD/svg11.dtd">
<svg width="70pt" height="70pt" viewBox="0 0 70 70" version="1.1" xmlns="http://www.w3.org/2000/svg">
<g id="#000000ff">
<path fill="#ffffff" opacity="1.00" d=" M 13.88 7.95 C 13.76 6.21 14.92 4.20 16.86 4.29 C 23.99 4.06 31.14 4.30 38.28 4.21 C 38.31 6.35 38.34 8.49 38.38 10.62 C 32.22 10.84 26.07 10.60 19.91 10.80 C 19.93 16.72 19.79 22.64 20.01 28.56 C 30.07 28.40 40.13 28.67 50.18 28.41 C 50.13 26.45 50.08 24.49 50.03 22.53 C 52.08 22.51 54.13 22.50 56.18 22.49 C 56.20 23.39 56.24 25.20 56.26 26.10 C 59.40 26.08 62.56 25.90 65.68 26.31 C 66.24 35.54 65.83 44.84 65.90 54.10 C 66.44 56.61 63.51 56.25 61.92 56.61 C 61.90 52.21 61.91 47.81 61.90 43.42 C 43.96 43.41 26.03 43.41 8.09 43.41 C 8.08 47.74 8.08 52.06 8.08 56.39 C 7.36 56.39 5.91 56.40 5.18 56.40 C 5.25 46.30 5.21 36.20 5.20 26.10 C 8.07 26.09 10.94 26.08 13.80 26.08 C 13.93 20.04 13.71 13.99 13.88 7.95 M 8.15 31.13 C 8.15 32.35 8.15 33.57 8.15 34.79 C 9.36 34.77 10.57 34.76 11.77 34.77 C 11.76 33.57 11.74 32.37 11.72 31.17 C 10.53 31.15 9.34 31.14 8.15 31.13 Z" />
<path fill="#ffffff" opacity="1.00" d=" M 40.11 4.04 C 45.61 9.39 50.98 14.86 56.41 20.27 C 52.28 20.23 48.15 20.41 44.03 20.26 C 42.29 20.37 40.19 19.08 40.23 17.17 C 39.97 12.80 40.21 8.42 40.11 4.04 Z" />
<path fill="#ffffff" opacity="1.00" d=" M 9.85 45.21 C 11.92 45.22 13.98 45.24 16.04 45.26 C 15.88 50.71 15.79 56.17 16.11 61.62 C 28.70 61.62 41.30 61.67 53.89 61.59 C 53.92 56.14 53.89 50.70 53.90 45.25 C 55.98 45.23 58.06 45.22 60.15 45.21 C 59.63 52.43 61.30 59.95 59.22 66.96 C 43.08 66.92 26.93 66.90 10.78 66.97 C 8.70 59.96 10.37 52.44 9.85 45.21 Z" />
<path fill="#ffffff" opacity="1.00" d=" M 20.21 47.24 L 20.81 46.77 C 29.55 46.49 38.31 46.75 47.05 46.64 C 48.45 46.47 51.05 46.99 50.33 49.03 C 50.73 51.02 48.28 50.79 47.07 50.87 C 38.68 50.82 30.29 50.94 21.90 50.81 C 19.75 51.41 19.04 48.54 20.21 47.24 Z" />
<path fill="#ffffff" opacity="1.00" d=" M 19.91 53.73 C 30.08 53.71 40.28 53.32 50.43 53.94 C 50.29 55.52 50.46 58.14 48.10 57.77 C 38.78 57.88 29.45 57.84 20.14 57.76 C 20.03 56.42 19.96 55.07 19.91 53.73 Z" />
</g>
</svg>
