<?xml version="1.0" encoding="UTF-8" ?>
<!DOCTYPE svg PUBLIC "-//W3C//DTD SVG 1.1//EN" "http://www.w3.org/Graphics/SVG/1.1/DTD/svg11.dtd">
<svg width="50pt" height="50pt" viewBox="0 0 50 50" version="1.1" xmlns="http://www.w3.org/2000/svg">
<g id="#fffff">
<path fill="#fff" opacity="1.00" d=" M 10.41 19.46 C 12.63 14.77 17.55 10.88 22.96 11.18 C 26.11 11.07 29.63 11.55 31.91 13.97 C 30.29 16.69 27.37 15.44 25.06 14.65 C 17.36 13.12 10.03 22.27 13.59 29.41 C 15.72 35.36 23.25 37.43 28.63 34.77 C 32.55 32.68 34.71 28.09 34.34 23.72 C 35.24 22.63 36.22 21.58 37.55 21.01 C 38.21 26.39 37.61 32.50 32.99 36.06 C 26.28 42.77 13.57 39.70 10.35 30.93 C 9.80 27.16 9.72 23.22 10.41 19.46 Z" />
</g>
<g id="#1e1a1bff">
<path fill="#fff" opacity="1.00" d=" M 24.90 25.84 C 28.63 20.71 33.00 16.07 37.02 11.17 C 37.78 11.14 39.30 11.07 40.06 11.04 C 39.81 12.34 39.98 13.87 38.84 14.81 C 34.39 19.72 30.28 24.93 25.97 29.96 C 25.31 30.94 23.76 30.84 22.97 30.07 C 20.64 28.44 18.57 26.48 16.46 24.59 C 16.50 24.04 16.57 22.94 16.61 22.40 C 20.18 21.19 21.58 25.89 24.90 25.84 Z" />
</g>
</svg>
