<?xml version="1.0" encoding="UTF-8" ?>
<!DOCTYPE svg PUBLIC "-//W3C//DTD SVG 1.1//EN" "http://www.w3.org/Graphics/SVG/1.1/DTD/svg11.dtd">
<svg width="70pt" height="70pt" viewBox="0 0 70 70" version="1.1" xmlns="http://www.w3.org/2000/svg">
<g id="#383738ff">
<path fill="#383738" opacity="1.00" d=" M 16.11 15.96 C 15.83 12.81 18.76 9.91 21.89 10.17 C 30.97 10.11 40.05 10.17 49.13 10.15 C 52.02 9.79 54.79 11.97 55.25 14.81 C 55.63 18.61 55.31 22.44 55.36 26.26 C 54.10 25.12 52.85 23.97 51.60 22.83 C 51.53 20.09 51.49 17.34 51.39 14.59 C 41.13 12.88 30.63 14.15 20.28 14.28 C 19.97 16.17 19.74 18.08 19.77 20.00 C 19.77 31.01 19.75 42.02 19.78 53.03 C 19.71 54.57 20.15 56.05 20.67 57.47 C 30.51 57.34 40.36 57.72 50.19 57.33 C 52.73 55.36 51.06 51.43 51.51 48.66 C 52.78 47.50 54.10 46.40 55.36 45.24 C 55.32 49.20 55.66 53.18 55.19 57.12 C 54.51 59.27 52.47 61.27 50.05 60.96 C 40.35 60.98 30.65 61.01 20.96 60.94 C 18.33 61.12 16.04 58.65 16.18 56.07 C 15.97 42.71 16.12 29.33 16.11 15.96 Z" />
<path fill="#383738" opacity="1.00" d=" M 41.59 29.81 C 41.66 27.28 41.16 24.49 42.77 22.31 C 47.96 26.83 53.42 31.07 58.25 35.97 C 53.00 40.13 48.16 44.78 42.94 48.99 C 40.89 47.07 41.81 44.05 41.58 41.58 C 37.31 41.46 33.02 41.90 28.78 41.41 C 26.77 38.50 27.99 34.42 27.92 31.06 C 28.22 30.78 28.82 30.22 29.11 29.94 C 33.26 29.55 37.43 29.89 41.59 29.81 Z" />
</g>
</svg>
