<?xml version="1.0" encoding="UTF-8" ?>
<!DOCTYPE svg PUBLIC "-//W3C//DTD SVG 1.1//EN" "http://www.w3.org/Graphics/SVG/1.1/DTD/svg11.dtd">
<svg width="70pt" height="70pt" viewBox="0 0 70 70" version="1.1" xmlns="http://www.w3.org/2000/svg">
<g id="#383738ff">
<path fill="#383738" opacity="1.00" d=" M 28.75 9.52 C 33.02 9.11 37.30 9.27 41.58 9.31 C 42.89 12.15 41.52 16.50 44.82 18.10 C 48.12 20.00 51.42 16.99 54.77 17.31 C 57.11 20.62 59.24 24.19 60.81 27.94 C 58.58 29.40 56.55 31.13 54.55 32.88 C 54.86 34.62 55.17 36.37 55.49 38.11 C 57.23 39.46 58.98 40.81 60.79 42.05 C 59.18 45.79 57.18 49.52 54.66 52.69 C 51.42 53.00 48.05 49.92 44.79 51.90 C 41.45 53.51 42.83 57.91 41.66 60.83 C 37.37 61.33 32.97 61.59 28.73 60.53 C 28.57 57.89 28.10 55.29 27.49 52.72 C 23.97 49.96 19.92 52.22 16.17 52.89 C 13.70 50.02 11.86 46.45 10.33 42.99 C 10.66 40.45 13.98 39.44 15.64 37.68 C 15.63 35.88 15.62 34.07 15.62 32.26 C 13.86 30.77 11.71 29.60 10.33 27.73 C 11.02 23.95 13.83 20.80 15.66 17.45 C 18.26 16.80 20.90 18.21 23.08 19.52 C 24.50 18.66 25.95 17.86 27.46 17.19 C 28.14 14.68 28.55 12.11 28.75 9.52 M 32.52 26.66 C 28.70 27.94 25.97 32.03 26.62 36.08 C 27.01 41.04 32.25 44.61 37.06 43.54 C 44.10 42.64 46.28 32.25 40.76 28.17 C 38.59 26.04 35.29 26.08 32.52 26.66 Z" />
</g>
</svg>
