<?xml version="1.0" encoding="UTF-8" ?>
<!DOCTYPE svg PUBLIC "-//W3C//DTD SVG 1.1//EN" "http://www.w3.org/Graphics/SVG/1.1/DTD/svg11.dtd">
<svg width="350pt" height="70pt" viewBox="0 0 350 70" version="1.1" xmlns="http://www.w3.org/2000/svg">
<g id="#f4493cff">
<path fill="#f4493c" opacity="1.00" d=" M 6.81 11.94 C 7.06 7.66 15.12 8.59 14.24 12.89 C 14.30 17.77 14.21 22.66 14.26 27.54 C 20.59 27.36 26.93 26.97 33.25 27.54 C 33.37 23.33 33.11 19.13 32.82 14.93 C 32.57 12.79 33.30 10.18 35.49 9.33 C 37.84 8.96 41.32 10.15 41.23 13.01 C 41.25 24.68 41.31 36.35 41.20 48.02 C 41.18 51.81 34.35 52.21 33.81 48.47 C 33.39 44.06 33.37 39.61 33.24 35.18 C 26.90 35.17 20.55 35.89 14.21 35.25 C 14.30 39.53 14.75 43.81 14.41 48.08 C 14.37 49.87 12.44 50.61 11.04 51.18 C 8.29 51.33 6.25 48.47 6.27 45.92 C 6.23 34.59 6.09 23.24 6.81 11.94 Z" />
<path fill="#f4493c" opacity="1.00" d=" M 205.22 15.16 C 205.95 12.39 208.22 10.02 211.10 9.55 C 217.09 8.29 224.13 8.81 228.69 13.33 C 234.29 18.44 234.36 28.64 228.05 33.20 C 223.61 36.75 217.65 36.25 212.33 36.33 C 212.13 40.20 212.42 44.09 212.15 47.95 C 211.86 51.90 204.45 52.34 204.60 47.90 C 204.45 41.93 204.16 35.95 204.25 29.97 C 204.30 25.03 203.92 19.98 205.22 15.16 M 212.52 17.45 C 211.85 21.28 212.18 25.15 212.29 29.01 C 216.70 29.17 223.57 29.57 224.51 23.81 C 224.50 17.67 217.37 15.91 212.52 17.45 Z" />
<path fill="#f4493c" opacity="1.00" d=" M 240.48 9.74 C 243.89 7.52 249.17 10.73 247.88 14.87 C 246.96 18.80 241.62 19.41 238.89 17.03 C 236.77 14.84 237.74 10.91 240.48 9.74 Z" />
<path fill="#f4493c" opacity="1.00" d=" M 321.14 19.24 C 327.66 17.91 335.59 17.29 340.94 22.03 C 344.67 25.20 344.70 30.52 344.78 35.01 C 344.68 38.61 345.21 42.72 342.81 45.75 C 337.85 51.80 328.04 52.73 321.72 48.32 C 316.42 44.72 316.14 35.29 322.00 32.13 C 326.55 29.30 332.12 29.91 337.21 30.30 C 333.37 25.34 326.51 27.05 321.13 26.48 C 317.56 25.88 317.74 20.06 321.14 19.24 M 326.35 39.11 C 327.14 40.78 328.10 42.65 330.13 42.98 C 333.52 44.31 337.25 41.52 337.22 37.96 C 333.63 37.54 329.28 36.22 326.35 39.11 Z" />
<path fill="#f4493c" opacity="1.00" d=" M 49.36 19.43 C 53.73 18.18 58.42 17.99 62.89 18.77 C 67.02 19.48 71.15 22.17 72.42 26.34 C 73.85 30.76 73.08 35.48 73.26 40.05 C 73.49 44.02 70.75 47.52 67.31 49.20 C 62.11 51.78 55.37 51.83 50.53 48.42 C 45.19 44.99 44.77 35.63 50.40 32.28 C 54.94 29.25 60.65 29.95 65.80 30.25 C 62.09 25.44 55.39 26.92 50.13 26.56 C 46.62 26.23 46.08 20.55 49.36 19.43 M 55.83 38.11 C 54.54 40.41 56.89 42.60 59.02 43.08 C 62.47 44.17 65.78 41.45 66.00 37.99 C 62.65 37.44 59.08 36.76 55.83 38.11 Z" />
<path fill="#f4493c" opacity="1.00" d=" M 82.62 20.70 C 88.66 17.19 97.29 17.57 102.23 22.82 C 107.39 28.17 107.83 36.72 105.48 43.44 C 102.46 50.42 93.67 51.74 86.99 50.31 C 86.88 54.16 87.35 58.07 86.67 61.87 C 86.32 64.33 83.21 64.92 81.20 64.33 C 78.62 62.86 78.84 59.57 78.74 57.02 C 78.79 48.31 78.68 39.60 78.79 30.90 C 79.08 27.31 79.22 22.84 82.62 20.70 M 86.98 29.97 C 86.93 33.98 87.04 37.98 87.01 41.99 C 90.40 42.99 95.03 43.78 97.45 40.52 C 99.87 35.90 98.60 28.37 93.00 26.72 C 90.73 26.04 86.54 26.89 86.98 29.97 Z" />
<path fill="#f4493c" opacity="1.00" d=" M 115.91 20.77 C 122.47 16.80 132.20 17.76 136.86 24.23 C 140.96 29.98 141.26 38.11 138.41 44.45 C 134.89 50.62 126.82 51.55 120.47 50.35 C 120.39 54.45 120.93 58.66 119.84 62.67 C 118.01 66.01 112.31 64.61 112.40 60.72 C 112.03 51.15 112.37 41.56 112.24 31.98 C 112.37 28.08 112.41 23.29 115.91 20.77 M 120.43 28.47 C 120.00 32.89 120.32 37.35 120.32 41.79 C 123.46 43.08 127.50 43.65 130.29 41.29 C 132.82 38.21 132.41 33.60 130.76 30.21 C 128.92 26.48 123.24 24.99 120.43 28.47 Z" />
<path fill="#f4493c" opacity="1.00" d=" M 145.71 21.49 C 146.32 17.38 153.39 17.88 153.71 21.88 C 154.37 27.90 152.82 34.45 155.83 40.05 C 158.09 44.57 165.93 42.41 166.44 37.67 C 167.07 32.20 165.83 26.55 167.31 21.15 C 168.08 18.27 172.21 17.70 174.13 19.75 C 175.49 22.23 175.34 25.20 175.49 27.94 C 175.44 37.82 176.97 48.09 173.48 57.60 C 171.97 61.72 167.64 65.09 163.10 63.94 C 160.99 63.40 160.91 60.83 161.02 59.07 C 161.65 56.51 165.09 56.34 165.94 53.91 C 166.53 52.44 166.79 50.86 167.18 49.33 C 161.29 52.30 153.13 51.54 149.03 45.99 C 143.84 39.02 144.16 29.61 145.71 21.49 Z" />
<path fill="#f4493c" opacity="1.00" d=" M 255.35 25.69 C 252.24 24.49 252.82 19.30 256.10 18.77 C 262.04 17.97 268.04 18.93 274.01 18.75 C 276.28 18.72 279.49 19.16 279.84 21.95 C 279.44 25.23 277.50 28.04 275.38 30.47 C 271.82 34.57 268.19 38.60 264.63 42.70 C 268.70 42.95 272.84 42.34 276.86 43.07 C 280.66 44.11 280.37 50.96 276.02 50.70 C 269.52 50.49 262.91 51.69 256.51 50.25 C 253.08 49.50 252.44 45.02 254.53 42.60 C 258.92 37.13 263.94 32.20 268.44 26.82 C 264.10 26.17 259.54 27.14 255.35 25.69 Z" />
<path fill="#f4493c" opacity="1.00" d=" M 287.30 25.67 C 283.85 24.17 285.41 18.24 289.23 18.60 C 295.81 18.36 302.44 18.62 309.00 19.04 C 312.74 19.59 312.10 24.13 310.43 26.43 C 306.48 32.36 301.15 37.22 296.73 42.78 C 300.76 42.88 304.84 42.40 308.85 43.02 C 312.76 43.94 312.44 51.11 308.02 50.70 C 301.58 50.49 295.00 51.71 288.65 50.26 C 285.28 49.42 284.39 45.04 286.61 42.58 C 290.98 37.10 296.09 32.23 300.52 26.78 C 296.13 26.23 291.54 27.10 287.30 25.67 Z" />
<path fill="#f4493c" opacity="1.00" d=" M 242.33 20.20 C 244.19 19.45 246.71 20.76 246.71 22.89 C 247.66 29.55 247.75 36.30 247.78 43.01 C 247.69 45.21 247.91 47.64 246.66 49.59 C 244.82 52.78 238.77 50.66 239.26 47.05 C 239.35 39.68 239.11 32.31 238.98 24.94 C 238.68 22.73 239.98 20.44 242.33 20.20 Z" />
</g>
</svg>
