<?xml version="1.0" encoding="UTF-8" ?>
<!DOCTYPE svg PUBLIC "-//W3C//DTD SVG 1.1//EN" "http://www.w3.org/Graphics/SVG/1.1/DTD/svg11.dtd">
<svg width="70pt" height="70pt" viewBox="0 0 70 70" version="1.1" xmlns="http://www.w3.org/2000/svg">
<g id="#ffffffff">
<path fill="#ffffff" opacity="1.00" d=" M 8.85 13.26 C 7.25 11.87 7.78 8.38 10.15 8.23 C 12.67 8.70 15.14 9.50 17.45 10.60 C 18.37 11.80 18.60 13.35 19.12 14.73 C 24.94 14.82 30.76 14.77 36.58 14.74 C 34.09 21.63 37.28 29.76 43.67 33.24 C 47.00 35.11 50.98 35.56 54.69 34.74 C 53.70 37.20 53.34 41.50 49.89 41.60 C 41.42 41.77 32.94 41.52 24.47 41.71 C 25.71 43.13 26.94 44.91 29.00 45.09 C 35.64 45.50 42.30 44.97 48.94 45.31 C 51.69 45.31 51.67 50.52 48.95 50.63 C 43.96 50.89 38.96 50.61 33.96 50.73 C 30.80 50.64 27.34 51.22 24.51 49.43 C 20.56 47.02 18.85 42.36 17.95 38.05 C 16.45 30.38 15.04 22.69 13.51 15.02 C 11.94 14.49 10.32 14.04 8.85 13.26 Z" />
<path fill="#ffffff" opacity="1.00" d=" M 46.60 8.76 C 53.68 5.76 62.70 11.08 62.85 18.91 C 63.79 26.03 57.01 32.68 49.91 31.70 C 42.88 31.36 37.64 23.86 39.42 17.09 C 40.25 13.36 43.07 10.18 46.60 8.76 M 48.92 21.16 C 47.90 20.21 46.87 19.25 45.85 18.29 C 45.13 19.11 44.43 19.95 43.74 20.79 C 45.45 22.47 47.16 24.13 48.91 25.76 C 52.11 22.56 55.41 19.46 58.42 16.08 C 57.64 15.39 56.86 14.70 56.07 14.02 C 53.65 16.37 51.26 18.74 48.92 21.16 Z" />
<path fill="#ffffff" opacity="1.00" d=" M 28.63 53.71 C 31.50 52.02 35.45 54.71 34.84 58.00 C 34.57 61.07 30.67 62.70 28.24 60.89 C 25.69 59.31 25.94 55.02 28.63 53.71 Z" />
<path fill="#ffffff" opacity="1.00" d=" M 45.37 53.46 C 48.18 52.35 51.57 54.89 50.94 57.95 C 50.87 61.43 45.88 62.91 43.72 60.29 C 41.68 58.24 42.63 54.32 45.37 53.46 Z" />
</g>
</svg>
