<?xml version="1.0" encoding="UTF-8" ?>
<!DOCTYPE svg PUBLIC "-//W3C//DTD SVG 1.1//EN" "http://www.w3.org/Graphics/SVG/1.1/DTD/svg11.dtd">
<svg width="70pt" height="70pt" viewBox="0 0 70 70" version="1.1" xmlns="http://www.w3.org/2000/svg">
<g id="#64b5f6ff">
<path fill="#64b5f6" opacity="1.00" d=" M 30.10 13.03 C 29.79 7.85 39.09 7.34 39.79 12.18 C 40.46 17.71 39.60 23.31 40.15 28.85 C 45.75 29.37 51.37 28.65 56.97 29.10 C 62.15 28.81 62.65 38.05 57.81 38.78 C 51.95 39.49 46.02 38.57 40.15 39.15 C 39.66 44.41 40.32 49.70 39.90 54.97 C 40.18 60.55 29.82 60.55 30.10 54.97 C 29.67 49.70 30.34 44.41 29.85 39.15 C 24.64 38.63 19.38 39.43 14.19 38.78 C 9.35 38.05 9.84 28.81 15.04 29.10 C 19.96 28.70 24.92 29.31 29.85 28.85 C 30.34 23.59 29.68 18.30 30.10 13.03 Z" />
</g>
</svg>
