<?xml version="1.0" encoding="UTF-8" ?>
<!DOCTYPE svg PUBLIC "-//W3C//DTD SVG 1.1//EN" "http://www.w3.org/Graphics/SVG/1.1/DTD/svg11.dtd">
<svg width="70pt" height="70pt" viewBox="0 0 70 70" version="1.1" xmlns="http://www.w3.org/2000/svg">
<g id="#0a58caff">
<path fill="#0a58ca" opacity="1.00" d=" M 25.76 8.37 C 31.94 8.25 38.11 8.32 44.29 8.33 C 44.25 14.51 44.29 20.69 44.26 26.87 C 48.37 26.90 52.49 26.90 56.60 26.86 C 49.33 33.95 42.21 41.19 35.03 48.38 C 27.99 41.13 20.67 34.17 13.70 26.86 C 17.73 26.90 21.76 26.89 25.80 26.88 C 25.78 20.71 25.84 14.54 25.76 8.37 Z" />
<path fill="#0a58ca" opacity="1.00" d=" M 14.02 54.61 C 28.26 54.65 42.50 54.56 56.74 54.65 C 56.69 56.67 56.68 58.70 56.72 60.73 C 42.48 60.79 28.25 60.73 14.01 60.76 C 13.99 58.71 13.99 56.66 14.02 54.61 Z" />
</g>
</svg>
