<?xml version="1.0" encoding="UTF-8" ?>
<!DOCTYPE svg PUBLIC "-//W3C//DTD SVG 1.1//EN" "http://www.w3.org/Graphics/SVG/1.1/DTD/svg11.dtd">
<svg width="70pt" height="70pt" viewBox="0 0 70 70" version="1.1" xmlns="http://www.w3.org/2000/svg">
<g id="#000000ff">
<path fill="#64b5f6" opacity="1.00" d=" M 21.26 12.32 C 27.12 6.36 37.00 5.27 44.29 9.07 C 52.19 13.11 56.31 22.41 55.14 31.04 C 56.19 32.55 57.86 33.90 57.71 35.92 C 57.90 42.97 57.80 50.03 57.76 57.09 C 57.87 60.13 55.24 63.22 52.08 62.98 C 40.69 63.02 29.28 63.02 17.88 62.98 C 14.75 63.18 12.13 60.08 12.25 57.06 C 12.11 50.70 12.28 44.34 12.18 37.98 C 11.85 35.28 13.06 32.95 14.87 31.05 C 14.12 24.27 16.13 17.01 21.26 12.32 M 27.09 17.09 C 23.17 20.22 21.82 25.44 22.33 30.27 C 30.78 30.24 39.23 30.24 47.68 30.27 C 48.27 25.22 46.68 19.69 42.37 16.66 C 37.98 13.23 31.29 13.45 27.09 17.09 M 29.22 43.99 C 28.86 46.88 32.38 48.18 32.22 50.96 C 32.15 53.02 32.23 56.23 35.01 56.27 C 38.47 56.02 37.78 51.73 37.83 49.30 C 40.77 47.19 42.02 42.54 39.04 39.93 C 35.79 36.15 28.98 39.10 29.22 43.99 Z" />
</g>
</svg>
