<?xml version="1.0" encoding="UTF-8" ?>
<!DOCTYPE svg PUBLIC "-//W3C//DTD SVG 1.1//EN" "http://www.w3.org/Graphics/SVG/1.1/DTD/svg11.dtd">
<svg width="70pt" height="70pt" viewBox="0 0 70 70" version="1.1" xmlns="http://www.w3.org/2000/svg">
<g id="#ffffffff">
<path fill="#ffffff" opacity="1.00" d=" M 25.21 10.04 C 25.26 8.02 27.15 6.40 29.12 6.37 C 33.04 6.19 36.97 6.10 40.89 6.30 C 42.87 6.40 44.71 8.05 44.70 10.09 C 44.90 15.35 44.75 20.62 44.72 25.89 C 50.48 26.40 56.26 25.85 62.02 26.18 C 64.47 26.16 65.78 28.85 65.77 31.01 C 65.82 34.45 65.82 37.92 65.42 41.35 C 65.15 43.42 62.95 44.63 61.01 44.53 C 55.59 44.64 50.18 44.48 44.76 44.59 C 44.69 49.39 44.90 54.20 44.87 59.00 C 44.89 60.76 44.33 62.84 42.66 63.72 C 38.11 64.17 33.51 63.90 28.95 63.88 C 26.72 63.96 25.47 61.60 25.35 59.66 C 25.00 54.66 25.31 49.63 25.21 44.62 C 19.79 44.17 14.37 44.82 8.96 44.53 C 6.90 44.42 4.37 43.23 4.39 40.84 C 4.18 37.01 4.17 33.14 4.51 29.31 C 4.68 27.16 7.03 26.05 8.97 26.15 C 14.38 25.98 19.79 26.16 25.20 26.09 C 25.35 20.74 24.98 15.39 25.21 10.04 Z" />
</g>
</svg>
