<?xml version="1.0" encoding="UTF-8" ?>
<!DOCTYPE svg PUBLIC "-//W3C//DTD SVG 1.1//EN" "http://www.w3.org/Graphics/SVG/1.1/DTD/svg11.dtd">
<svg width="70pt" height="70pt" viewBox="0 0 70 70" version="1.1" xmlns="http://www.w3.org/2000/svg">
<g id="#70b2e2ff">
<path fill="#70b2e2" opacity="1.00" d=" M 11.57 30.99 C 11.33 21.30 19.30 12.34 28.95 11.44 C 37.55 10.33 46.49 15.67 49.44 23.85 C 51.81 29.47 50.88 35.94 47.95 41.16 C 51.57 44.91 55.52 48.36 58.95 52.29 C 59.57 55.57 56.15 57.77 53.52 58.85 C 49.71 54.98 45.82 51.18 42.00 47.32 C 36.44 50.62 29.31 51.48 23.34 48.77 C 16.39 45.82 11.54 38.56 11.57 30.99 M 26.51 18.74 C 21.22 20.72 17.53 26.39 18.18 32.06 C 18.65 38.84 25.17 44.43 31.95 43.81 C 39.32 43.66 45.36 36.21 44.07 28.96 C 43.14 21.05 33.87 15.47 26.51 18.74 Z" />
</g>
</svg>
