<?xml version="1.0" encoding="UTF-8" ?>
<!DOCTYPE svg PUBLIC "-//W3C//DTD SVG 1.1//EN" "http://www.w3.org/Graphics/SVG/1.1/DTD/svg11.dtd">
<svg width="70pt" height="70pt" viewBox="0 0 70 70" version="1.1" xmlns="http://www.w3.org/2000/svg">
<g id="#000000ff">
<path fill="#f44336" opacity="1.00" d=" M 5.41 12.57 C 16.71 10.38 28.13 8.70 39.36 6.20 C 39.36 25.39 39.31 44.59 39.39 63.79 C 28.09 61.51 16.73 59.59 5.38 57.56 C 5.47 42.57 5.42 27.57 5.41 12.57 M 22.00 32.50 C 20.93 30.22 19.99 27.88 19.19 25.50 C 18.17 25.50 16.14 25.50 15.12 25.50 C 16.74 28.64 18.52 31.71 19.71 35.05 C 18.01 37.95 16.51 40.97 14.75 43.84 C 16.09 43.82 17.42 43.79 18.76 43.75 C 19.72 41.35 20.77 38.98 21.88 36.65 C 23.07 39.21 24.17 41.82 25.20 44.46 C 26.68 44.50 28.16 44.53 29.64 44.58 C 27.74 41.47 25.85 38.34 24.46 34.97 C 25.36 31.24 27.74 27.98 29.46 24.56 C 28.47 24.62 26.50 24.74 25.51 24.81 C 24.33 27.37 23.17 29.94 22.00 32.50 Z" />
<path fill="#f44336" opacity="1.00" d=" M 40.88 13.19 C 48.89 13.15 56.89 13.20 64.90 13.17 C 64.86 27.69 64.84 42.21 64.91 56.73 C 56.90 56.68 48.89 56.72 40.88 56.71 C 40.88 55.22 40.88 53.74 40.88 52.25 C 43.82 52.24 46.77 52.23 49.71 52.24 C 49.68 50.46 49.65 48.68 49.63 46.91 C 46.71 46.94 43.79 46.93 40.88 46.91 C 40.88 46.40 40.89 45.37 40.89 44.86 C 43.82 44.85 46.75 44.85 49.67 44.85 C 49.68 43.06 49.69 41.27 49.71 39.48 C 46.76 39.50 43.82 39.50 40.88 39.49 C 40.88 38.95 40.88 37.88 40.88 37.34 C 43.82 37.38 46.76 37.40 49.71 37.40 C 49.68 35.55 49.66 33.70 49.64 31.85 C 46.82 31.51 43.55 32.78 41.01 31.50 C 40.94 31.09 40.80 30.28 40.72 29.88 C 43.71 29.87 46.71 29.89 49.70 29.90 C 49.68 28.15 49.66 26.39 49.65 24.63 C 46.73 24.62 43.82 24.61 40.90 24.62 C 40.89 24.05 40.87 22.92 40.86 22.35 C 43.82 22.33 46.77 22.33 49.72 22.34 C 49.69 20.61 49.65 18.87 49.63 17.13 C 46.72 17.12 43.80 17.10 40.89 17.10 C 40.89 15.80 40.88 14.50 40.88 13.19 M 51.75 17.16 C 51.74 18.88 51.73 20.61 51.72 22.34 C 54.69 22.33 57.65 22.34 60.62 22.35 C 60.60 20.61 60.59 18.87 60.59 17.12 C 57.64 17.09 54.69 17.11 51.75 17.16 M 51.74 24.62 C 51.74 26.38 51.74 28.13 51.73 29.89 C 54.69 29.88 57.65 29.88 60.61 29.91 C 60.60 28.14 60.59 26.37 60.59 24.60 C 57.64 24.61 54.69 24.62 51.74 24.62 M 51.75 31.90 C 51.75 33.73 51.74 35.56 51.73 37.39 C 54.68 37.38 57.63 37.39 60.59 37.41 C 60.58 35.57 60.58 33.73 60.59 31.88 C 57.64 31.90 54.70 31.90 51.75 31.90 M 51.72 39.48 C 51.73 41.27 51.74 43.06 51.75 44.84 C 54.70 44.85 57.64 44.85 60.58 44.87 C 60.59 43.06 60.61 41.26 60.63 39.46 C 57.66 39.50 54.69 39.51 51.72 39.48 M 51.73 47.10 C 51.73 48.81 51.73 50.52 51.74 52.24 C 54.69 52.23 57.64 52.24 60.59 52.26 C 60.58 50.48 60.58 48.70 60.58 46.92 C 57.62 46.87 54.67 46.93 51.73 47.10 Z" />
</g>
</svg>
