<?xml version="1.0" encoding="UTF-8" ?>
<!DOCTYPE svg PUBLIC "-//W3C//DTD SVG 1.1//EN" "http://www.w3.org/Graphics/SVG/1.1/DTD/svg11.dtd">
<svg width="70pt" height="70pt" viewBox="0 0 70 70" version="1.1" xmlns="http://www.w3.org/2000/svg">
<g id="#000000ff">
<path fill="#64b5f6" opacity="1.00" d=" M 9.39 3.60 C 10.79 2.79 12.51 3.10 14.06 2.97 C 28.75 3.07 43.44 2.92 58.13 3.04 C 61.25 2.85 63.76 6.10 63.47 9.07 C 63.46 26.38 63.50 43.70 63.48 61.01 C 63.74 63.97 61.29 67.26 58.13 66.98 C 42.72 67.02 27.30 67.02 11.89 66.97 C 8.73 67.24 6.21 63.96 6.51 60.99 C 6.53 43.66 6.50 26.33 6.52 9.00 C 6.29 6.80 7.62 4.78 9.39 3.60 M 10.86 7.46 C 10.85 24.32 10.91 41.19 10.83 58.05 C 10.98 59.54 10.53 61.24 11.35 62.57 C 12.83 63.18 14.46 63.07 16.01 63.12 C 29.36 63.06 42.70 63.11 56.04 63.11 C 57.33 63.30 59.33 62.80 59.09 61.11 C 59.18 43.23 59.08 25.35 59.13 7.47 C 54.45 6.90 49.74 7.22 45.04 7.16 C 33.65 7.34 22.23 6.76 10.86 7.46 Z" />
<path fill="#64b5f6" opacity="1.00" d=" M 15.01 13.02 C 16.06 12.00 17.70 12.51 19.01 12.32 C 27.73 12.50 36.46 12.13 45.17 12.49 C 47.56 13.08 46.66 17.22 44.10 16.47 C 35.02 16.55 25.93 16.57 16.86 16.47 C 14.88 17.01 13.59 14.30 15.01 13.02 Z" />
<path fill="#64b5f6" opacity="1.00" d=" M 14.29 21.96 C 15.16 21.32 15.51 19.59 16.85 19.72 C 23.94 19.59 31.04 19.53 38.12 19.75 C 40.46 19.65 40.48 24.02 37.98 23.77 C 30.69 23.86 23.35 24.08 16.08 23.65 C 15.63 23.23 14.73 22.38 14.29 21.96 Z" />
<path fill="#64b5f6" opacity="1.00" d=" M 15.82 28.03 C 21.02 27.53 26.32 27.82 31.56 27.87 C 33.35 27.77 34.38 29.93 33.36 31.33 C 32.18 32.43 30.45 32.05 28.99 32.17 C 24.63 32.05 20.26 32.38 15.92 31.98 C 14.04 31.59 13.95 28.51 15.82 28.03 Z" />
<path fill="#64b5f6" opacity="1.00" d=" M 49.29 31.49 C 50.26 30.45 51.41 28.46 53.12 29.42 C 54.69 30.52 56.95 32.53 55.56 34.60 C 55.17 35.07 54.41 36.02 54.02 36.50 C 52.38 34.91 50.31 33.60 49.29 31.49 Z" />
<path fill="#64b5f6" opacity="1.00" d=" M 33.35 47.27 C 38.17 42.74 42.54 37.73 47.55 33.42 C 49.32 34.75 50.77 36.41 52.31 37.98 C 47.44 42.93 42.51 47.82 37.61 52.73 C 35.55 55.00 32.33 55.28 29.50 55.79 C 30.29 52.77 30.78 49.36 33.35 47.27 Z" />
<path fill="#64b5f6" opacity="1.00" d=" M 16.24 40.08 C 14.09 40.00 13.81 36.49 15.90 36.06 C 18.93 35.67 22.01 35.80 25.06 35.88 C 26.75 35.59 27.59 37.06 28.58 38.09 C 27.73 38.68 27.36 40.29 26.06 40.11 C 22.80 40.29 19.50 40.36 16.24 40.08 Z" />
</g>
</svg>
