<?xml version="1.0" encoding="UTF-8" ?>
<!DOCTYPE svg PUBLIC "-//W3C//DTD SVG 1.1//EN" "http://www.w3.org/Graphics/SVG/1.1/DTD/svg11.dtd">
<svg width="70pt" height="70pt" viewBox="0 0 70 70" version="1.1" xmlns="http://www.w3.org/2000/svg">
<g id="#4d4c4dff">
<path fill="#4d4c4d" opacity="1.00" d=" M 32.25 12.35 C 45.66 10.73 57.60 19.50 65.55 29.47 C 66.84 31.42 70.17 33.69 68.31 36.23 C 61.56 45.54 52.47 53.98 41.00 56.71 C 35.99 56.96 30.66 57.59 25.95 55.46 C 16.28 51.92 8.66 44.45 2.69 36.28 C 1.78 35.29 1.92 33.84 2.74 32.85 C 9.93 23.13 19.74 13.90 32.25 12.35 M 29.87 24.73 C 27.57 26.19 26.10 28.51 24.68 30.76 C 24.51 32.71 24.28 34.67 24.48 36.63 C 24.79 40.22 27.62 42.96 30.51 44.78 C 32.49 45.53 34.82 45.28 36.43 46.91 L 36.26 45.51 C 38.05 45.46 39.83 45.19 41.42 44.32 C 43.13 42.71 45.06 41.16 45.98 38.92 C 46.95 36.32 46.55 33.51 46.33 30.81 C 44.81 28.61 43.55 25.94 40.93 24.83 C 37.58 22.80 33.32 23.16 29.87 24.73 Z" />
<path fill="#4d4c4d" opacity="1.00" d=" M 33.05 39.67 C 28.60 38.05 29.11 29.68 34.16 29.24 C 36.46 28.75 38.93 29.61 40.37 31.47 C 40.91 33.45 40.58 35.55 40.62 37.58 C 38.76 39.62 35.72 41.20 33.05 39.67 Z" />
</g>
</svg>
