<?xml version="1.0" encoding="UTF-8" ?>
<!DOCTYPE svg PUBLIC "-//W3C//DTD SVG 1.1//EN" "http://www.w3.org/Graphics/SVG/1.1/DTD/svg11.dtd">
<svg width="50pt" height="50pt" viewBox="0 0 50 50" version="1.1" xmlns="http://www.w3.org/2000/svg">
<g id="#010101fe">
<path fill="#ffffff" opacity="1.00" d=" M 10.36 15.02 C 8.61 11.71 12.61 8.66 15.59 10.47 C 19.15 13.43 22.24 16.92 25.48 20.22 C 28.35 17.17 31.31 14.20 34.32 11.29 C 36.15 9.14 40.94 9.67 40.91 13.00 C 41.29 14.61 40.13 16.02 39.11 17.09 C 36.34 19.90 33.52 22.66 30.70 25.43 C 33.77 28.34 36.79 31.33 39.74 34.37 C 41.40 35.82 41.13 38.40 40.05 40.12 C 38.33 41.15 35.84 41.26 34.43 39.66 C 31.42 36.62 28.34 33.65 25.47 30.49 C 22.65 33.71 19.53 36.63 16.55 39.68 C 15.08 41.37 12.64 40.90 10.80 40.21 C 10.32 38.51 9.46 36.41 10.82 34.88 C 13.81 31.60 17.04 28.53 20.23 25.45 C 17.05 21.88 13.06 18.98 10.36 15.02 Z" />
</g>
</svg>
