<?xml version="1.0" encoding="UTF-8" ?>
<!DOCTYPE svg PUBLIC "-//W3C//DTD SVG 1.1//EN" "http://www.w3.org/Graphics/SVG/1.1/DTD/svg11.dtd">
<svg width="1215pt" height="486pt" viewBox="0 0 1215 486" version="1.1" xmlns="http://www.w3.org/2000/svg">
<g id="#3f3e3e7d">
<path fill="#64b5f6" opacity="0.49" d=" M 1044.24 25.07 C 1044.68 25.08 1045.56 25.08 1046.00 25.09 C 1056.81 35.94 1067.70 46.72 1078.61 57.46 C 1083.45 60.82 1087.15 65.49 1091.48 69.44 C 1100.95 78.94 1110.54 88.31 1120.11 97.70 C 1127.88 103.95 1134.16 111.90 1141.96 118.17 C 1141.94 118.59 1141.91 119.41 1141.89 119.82 C 1136.29 124.57 1131.42 130.10 1126.17 135.21 C 1116.75 144.67 1107.33 154.13 1097.93 163.62 C 1092.01 170.53 1085.17 176.55 1078.94 183.18 C 1068.14 193.93 1057.36 204.73 1046.69 215.60 C 1043.47 217.46 1041.02 214.02 1039.05 211.97 C 1034.22 205.50 1027.96 200.32 1022.48 194.42 C 997.66 169.64 972.97 144.71 948.06 120.02 C 947.53 116.44 951.55 115.53 953.49 113.45 C 964.95 102.29 976.18 90.88 987.60 79.67 C 990.30 77.18 992.60 74.21 995.78 72.28 C 1009.43 59.08 1022.66 45.37 1036.53 32.44 C 1038.60 29.47 1042.00 27.92 1044.24 25.07 M 949.04 118.99 C 977.21 147.15 1005.16 175.52 1033.14 203.87 C 1037.17 207.61 1040.61 212.08 1045.04 215.35 C 1076.80 183.19 1108.98 151.46 1140.50 119.07 C 1125.33 104.04 1109.95 89.23 1094.56 74.42 C 1078.29 58.01 1061.23 42.39 1044.95 25.99 C 1012.88 56.88 981.24 88.23 949.04 118.99 Z" />
</g>
<g id="#40404078">
<path fill="#64b5f6" opacity="0.47" d=" M 721.84 111.85 C 750.53 83.20 779.32 54.66 807.97 25.97 C 808.66 25.99 810.04 26.01 810.73 26.02 C 824.51 40.00 838.59 53.69 852.41 67.63 C 854.05 68.96 855.91 70.04 857.25 71.72 C 885.32 99.32 913.03 127.32 941.03 155.00 C 944.21 158.86 948.83 161.15 951.95 165.08 C 971.87 184.83 991.64 204.75 1011.61 224.47 C 1012.98 226.01 1015.62 227.32 1014.63 229.80 C 1006.58 236.81 999.45 244.95 991.68 252.33 C 961.58 282.64 931.35 312.88 901.18 343.16 C 882.78 361.86 863.93 380.14 845.90 399.18 C 825.61 419.42 805.42 439.80 785.16 460.11 C 784.30 461.01 783.52 462.38 782.04 462.05 C 768.50 450.71 756.96 437.15 743.57 425.61 C 733.37 415.81 723.44 405.70 713.06 396.10 C 703.72 387.75 695.21 378.46 685.92 370.02 C 686.02 369.62 686.21 368.83 686.30 368.43 C 692.07 363.18 697.48 357.51 702.40 351.45 C 712.25 341.91 720.88 331.23 730.68 321.63 C 734.90 315.67 740.70 311.00 745.60 305.60 C 751.19 297.67 759.45 292.01 765.03 284.10 C 770.17 278.57 776.06 273.70 780.45 267.51 C 788.92 259.58 796.12 250.48 804.35 242.32 C 806.62 239.59 809.52 237.39 811.49 234.40 C 812.91 232.16 815.40 230.89 816.86 228.68 C 817.55 227.40 815.77 226.66 815.17 225.80 C 802.89 213.68 790.81 201.33 778.66 189.10 C 776.62 186.24 773.39 184.53 771.45 181.60 C 769.37 178.70 765.56 177.32 764.19 173.88 C 748.55 158.19 732.91 142.48 717.39 126.68 C 715.66 125.10 713.45 123.53 713.20 121.00 C 714.69 116.87 718.84 114.75 721.84 111.85 M 807.22 28.21 C 776.12 59.19 744.88 90.02 713.91 121.12 C 746.65 155.05 780.05 188.34 812.98 222.08 C 814.96 224.22 817.37 226.00 818.89 228.53 C 795.12 253.59 771.85 279.10 748.19 304.25 C 728.02 326.20 707.43 347.76 687.41 369.83 C 719.06 400.19 750.74 430.52 782.22 461.05 C 859.81 383.80 936.49 305.61 1013.94 228.20 C 995.74 210.67 977.89 192.78 959.94 174.99 C 937.23 152.40 914.19 130.14 891.47 107.55 C 864.49 80.84 837.47 54.17 810.38 27.57 C 809.49 26.32 807.91 27.36 807.22 28.21 Z" />
</g>
<g id="#111111ff">
<path fill="#64b5f6" opacity="1.00" d=" M 807.22 28.21 C 807.91 27.36 809.49 26.32 810.38 27.57 C 837.47 54.17 864.49 80.84 891.47 107.55 C 914.19 130.14 937.23 152.40 959.94 174.99 C 977.89 192.78 995.74 210.67 1013.94 228.20 C 936.49 305.61 859.81 383.80 782.22 461.05 C 750.74 430.52 719.06 400.19 687.41 369.83 C 707.43 347.76 728.02 326.20 748.19 304.25 C 771.85 279.10 795.12 253.59 818.89 228.53 C 817.37 226.00 814.96 224.22 812.98 222.08 C 780.05 188.34 746.65 155.05 713.91 121.12 C 744.88 90.02 776.12 59.19 807.22 28.21 Z" />
<path fill="#64b5f6" opacity="1.00" d=" M 949.04 118.99 C 981.24 88.23 1012.88 56.88 1044.95 25.99 C 1061.23 42.39 1078.29 58.01 1094.56 74.42 C 1109.95 89.23 1125.33 104.04 1140.50 119.07 C 1108.98 151.46 1076.80 183.19 1045.04 215.35 C 1040.61 212.08 1037.17 207.61 1033.14 203.87 C 1005.16 175.52 977.21 147.15 949.04 118.99 Z" />
<path fill="#64b5f6" opacity="1.00" d=" M 93.35 169.45 C 132.24 169.12 171.14 169.40 210.03 169.31 C 211.59 168.92 213.21 170.24 212.94 171.88 C 212.95 179.58 212.94 187.29 212.94 194.99 C 213.14 196.52 211.56 197.85 210.08 197.50 C 180.73 197.50 151.38 197.50 122.03 197.51 C 115.16 197.44 110.52 204.56 110.48 210.88 C 110.41 233.55 110.42 256.21 110.47 278.88 C 110.51 285.20 115.15 292.33 122.02 292.29 C 151.67 292.36 181.32 292.25 210.96 292.35 C 212.19 292.23 213.14 293.75 212.94 294.88 C 212.94 302.61 212.95 310.33 212.93 318.06 C 213.09 319.63 211.54 320.85 210.02 320.50 C 172.36 320.50 134.70 320.51 97.05 320.49 C 90.15 320.61 83.21 318.50 77.73 314.29 C 67.70 306.81 61.90 294.44 61.82 282.01 C 61.66 261.36 61.79 240.71 61.75 220.05 C 61.82 211.38 61.15 202.41 64.20 194.10 C 68.58 181.59 79.66 170.55 93.35 169.45 Z" />
<path fill="#64b5f6" opacity="1.00" d=" M 235.74 171.95 C 235.47 170.67 236.79 169.16 238.08 169.31 C 275.06 169.31 312.04 169.32 349.01 169.30 C 354.71 169.07 360.57 169.76 365.70 172.40 C 378.56 178.73 386.52 192.80 386.89 206.93 C 386.79 215.94 388.05 225.53 383.84 233.88 C 381.78 238.30 378.35 241.89 374.54 244.85 C 382.26 250.29 386.86 259.53 386.91 268.94 C 386.98 285.31 386.93 301.69 386.94 318.06 C 387.08 319.65 385.52 320.85 383.99 320.50 C 369.68 320.50 355.37 320.50 341.05 320.50 C 339.48 320.84 338.06 319.48 338.24 317.93 C 338.22 300.96 338.31 283.98 338.20 267.00 C 338.05 263.24 335.33 258.56 331.04 259.00 C 315.49 259.06 299.94 258.89 284.39 259.09 C 284.50 278.75 284.42 298.41 284.43 318.08 C 284.67 319.40 283.22 320.66 281.94 320.51 C 267.08 320.47 252.23 320.55 237.37 320.47 C 236.96 320.12 236.14 319.44 235.72 319.10 C 235.78 270.05 235.74 221.00 235.74 171.95 M 284.45 197.51 C 284.42 208.60 284.45 219.70 284.44 230.80 C 299.98 230.83 315.53 230.80 331.07 230.81 C 335.25 231.17 337.96 226.73 338.18 223.03 C 338.31 218.70 338.29 214.36 338.19 210.04 C 337.83 204.14 333.43 197.60 327.03 197.51 C 312.84 197.49 298.64 197.50 284.45 197.51 Z" />
<path fill="#64b5f6" opacity="1.00" d=" M 409.74 171.98 C 409.43 170.68 410.81 169.15 412.12 169.31 C 427.15 169.40 442.20 169.14 457.22 169.44 C 473.32 202.05 489.71 234.52 505.95 267.06 C 522.17 234.51 538.42 201.97 554.56 169.38 C 569.67 169.24 584.79 169.31 599.90 169.34 C 601.21 169.20 602.13 170.75 601.94 171.95 C 601.94 220.64 601.95 269.33 601.94 318.02 C 602.09 319.61 600.55 320.86 599.01 320.50 C 584.66 320.50 570.31 320.50 555.96 320.50 C 554.45 320.84 553.06 319.41 553.24 317.95 C 553.21 295.90 553.33 273.84 553.18 251.80 C 552.01 252.85 551.55 254.40 550.83 255.75 C 540.15 277.31 529.26 298.77 518.70 320.38 C 510.18 320.65 501.66 320.44 493.15 320.49 C 481.57 297.30 470.06 274.07 458.43 250.91 C 458.46 273.63 458.40 296.35 458.46 319.07 C 457.60 320.17 456.41 320.76 455.01 320.52 C 440.72 320.48 426.43 320.51 412.14 320.51 C 410.90 320.63 409.50 319.32 409.75 318.05 C 409.74 269.36 409.76 220.67 409.74 171.98 Z" />
<path fill="#64b5f6" opacity="1.00" d=" M 666.49 236.01 C 680.98 236.00 695.48 235.98 709.98 236.02 C 709.98 241.37 710.06 246.71 709.94 252.06 C 695.44 251.79 680.92 252.30 666.43 251.80 C 666.47 246.54 666.39 241.27 666.49 236.01 Z" />
<path fill="#64b5f6" opacity="1.00" d=" M 1047.19 243.51 C 1079.22 274.98 1110.76 306.96 1142.97 338.26 C 1121.17 360.21 1099.07 381.85 1077.40 403.91 C 1067.66 413.52 1058.13 423.36 1048.25 432.82 C 1047.99 433.02 1047.46 433.42 1047.20 433.62 C 1015.34 401.81 983.39 370.10 951.46 338.36 C 983.52 306.90 1015.12 274.97 1047.19 243.51 Z" />
</g>
<g id="#4e4e4e94">
<path fill="#64b5f6" opacity="0.58" d=" M 666.13 235.27 C 679.40 234.89 692.69 235.24 705.97 235.10 C 707.67 235.21 709.93 234.48 710.92 236.41 C 711.01 241.64 710.92 246.87 710.93 252.10 L 709.94 252.06 C 710.06 246.71 709.98 241.37 709.98 236.02 C 695.48 235.98 680.98 236.00 666.49 236.01 C 666.39 241.27 666.47 246.54 666.43 251.80 L 665.91 251.77 C 666.18 246.28 665.78 240.76 666.13 235.27 Z" />
</g>
<g id="#4746467b">
<path fill="#64b5f6" opacity="0.48" d=" M 1045.41 243.52 C 1046.03 242.64 1047.60 240.92 1048.54 242.47 C 1064.45 258.88 1080.88 274.80 1096.96 291.05 C 1112.71 306.72 1128.38 322.46 1144.20 338.05 C 1143.90 340.47 1141.25 341.17 1140.07 343.03 C 1120.00 363.24 1099.62 383.14 1079.70 403.50 C 1079.13 403.60 1077.98 403.81 1077.40 403.91 C 1099.07 381.85 1121.17 360.21 1142.97 338.26 C 1110.76 306.96 1079.22 274.98 1047.19 243.51 C 1015.12 274.97 983.52 306.90 951.46 338.36 C 983.39 370.10 1015.34 401.81 1047.20 433.62 C 1047.46 433.42 1047.99 433.02 1048.25 432.82 C 1050.17 432.03 1051.90 430.85 1053.64 429.72 C 1051.76 431.13 1049.90 432.63 1048.68 434.67 C 1048.13 434.65 1047.02 434.61 1046.46 434.59 C 1015.63 403.70 984.68 372.91 953.79 342.08 C 952.89 341.24 951.95 340.48 951.01 339.74 C 951.00 339.03 950.98 337.61 950.98 336.90 C 973.10 315.38 994.67 293.27 1016.70 271.65 C 1025.94 261.93 1036.45 253.51 1045.41 243.52 Z" />
</g>
<g id="#717171e1">
<path fill="#64b5f6" opacity="0.88" d=" M 665.91 251.77 L 666.43 251.80 C 680.92 252.30 695.44 251.79 709.94 252.06 L 710.46 252.96 C 696.97 253.06 683.47 252.95 669.98 253.02 C 668.68 252.69 666.08 253.79 665.91 251.77 Z" />
</g>
<g id="#3737374d">
<path fill="#64b5f6" opacity="0.30" d=" M 1048.25 432.82 C 1058.13 423.36 1067.66 413.52 1077.40 403.91 C 1077.98 403.81 1079.13 403.60 1079.70 403.50 C 1071.42 412.62 1062.17 420.92 1053.64 429.72 C 1051.90 430.85 1050.17 432.03 1048.25 432.82 Z" />
</g>
</svg>
