<?xml version="1.0" encoding="UTF-8" ?>
<!DOCTYPE svg PUBLIC "-//W3C//DTD SVG 1.1//EN" "http://www.w3.org/Graphics/SVG/1.1/DTD/svg11.dtd">
<svg width="70pt" height="70pt" viewBox="0 0 70 70" version="1.1" xmlns="http://www.w3.org/2000/svg">
<g id="#d32f2fff">
<path fill="#d32f2f" opacity="1.00" d=" M 16.63 10.61 C 18.12 9.10 20.72 9.27 22.14 10.78 C 26.52 14.97 30.69 19.37 35.04 23.60 C 39.01 19.72 42.91 15.76 46.83 11.82 C 47.78 10.97 48.67 9.85 50.01 9.62 C 52.88 9.07 54.62 11.82 56.50 13.46 C 58.38 15.52 61.69 17.77 60.23 21.00 C 56.01 26.04 51.09 30.47 46.38 35.06 C 50.87 39.43 55.40 43.77 59.64 48.37 C 61.95 50.85 59.57 53.86 57.58 55.57 C 55.18 57.65 52.81 61.78 49.08 60.21 C 44.05 56.06 39.82 51.02 35.04 46.58 C 30.76 50.77 26.62 55.11 22.30 59.26 C 20.86 60.86 18.12 61.07 16.58 59.49 C 14.13 57.18 11.45 54.96 9.66 52.07 C 8.85 49.67 10.80 47.84 12.32 46.32 C 16.16 42.60 19.84 38.73 23.72 35.05 C 19.91 31.59 16.42 27.80 12.70 24.25 C 11.08 22.56 8.75 20.62 9.69 17.98 C 11.55 15.15 14.14 12.87 16.63 10.61 Z" />
</g>
</svg>
