<?xml version="1.0" encoding="UTF-8" ?>
<!DOCTYPE svg PUBLIC "-//W3C//DTD SVG 1.1//EN" "http://www.w3.org/Graphics/SVG/1.1/DTD/svg11.dtd">
<svg width="70pt" height="70pt" viewBox="0 0 70 70" version="1.1" xmlns="http://www.w3.org/2000/svg">
<g id="#000000ff">
<path fill="#64b5f6" opacity="1.00" d=" M 23.27 10.72 C 27.79 8.79 30.66 3.26 36.01 3.47 C 40.42 4.53 43.09 8.76 47.05 10.70 C 51.85 10.93 56.65 10.69 61.45 10.78 C 61.47 14.59 61.42 18.41 61.51 22.22 C 63.16 23.51 64.82 24.78 66.52 26.00 C 64.57 28.79 61.68 30.67 59.07 32.77 C 59.03 26.21 59.08 19.65 59.05 13.09 C 43.09 13.21 27.14 13.11 11.18 13.13 C 11.16 19.77 11.20 26.40 11.17 33.03 C 8.28 31.22 5.76 28.91 3.38 26.50 C 5.31 25.07 7.20 23.60 9.04 22.06 C 8.97 18.30 9.00 14.53 9.01 10.77 C 13.76 10.71 18.52 10.90 23.27 10.72 Z" />
<path fill="#64b5f6" opacity="1.00" d=" M 28.80 22.11 C 32.69 20.19 37.41 20.17 41.42 21.72 C 45.65 23.34 46.49 29.02 44.84 32.73 C 43.30 35.04 40.36 33.75 38.17 33.50 C 37.43 31.56 37.94 29.42 37.36 27.47 C 35.46 25.18 31.02 26.99 31.98 30.11 C 32.08 33.42 36.27 31.95 37.78 34.13 C 35.74 34.15 33.27 34.82 31.56 33.30 C 28.89 31.08 29.65 25.99 33.11 24.99 C 35.32 24.56 37.58 25.42 39.83 25.15 C 40.13 27.58 38.90 30.68 40.95 32.54 C 43.68 33.01 43.65 29.90 43.43 28.03 C 43.18 26.18 42.54 24.11 40.66 23.32 C 36.91 21.67 32.71 22.98 28.80 22.11 Z" />
<path fill="#64b5f6" opacity="1.00" d=" M 28.39 21.96 C 29.13 22.72 29.88 23.49 30.62 24.27 C 28.51 22.64 28.03 25.78 27.32 27.00 C 26.30 30.29 27.27 34.86 30.88 36.10 C 34.92 37.76 39.23 36.37 43.09 34.94 L 44.12 35.96 C 39.69 38.78 33.73 39.32 28.93 37.19 C 23.43 34.16 23.80 25.70 28.39 21.96 Z" />
<path fill="#64b5f6" opacity="1.00" d=" M 44.73 46.30 C 53.01 40.32 61.76 34.84 69.00 27.57 C 68.91 40.27 69.18 52.98 68.86 65.67 C 61.06 58.92 52.62 52.94 44.73 46.30 Z" />
<path fill="#64b5f6" opacity="1.00" d=" M 1.35 28.32 C 8.57 35.17 17.02 40.49 24.99 46.40 C 17.13 52.60 9.29 58.84 1.37 64.97 C 1.38 52.76 1.43 40.54 1.35 28.32 Z" />
<path fill="#64b5f6" opacity="1.00" d=" M 3.74 66.43 C 11.56 60.31 19.40 54.22 27.12 47.98 C 29.84 49.59 32.53 52.23 35.98 51.61 C 38.45 51.01 40.44 49.31 42.55 47.99 C 50.34 54.26 58.32 60.30 66.07 66.63 C 45.29 66.49 24.50 66.89 3.74 66.43 Z" />
</g>
</svg>
