<?xml version="1.0" encoding="UTF-8" ?>
<!DOCTYPE svg PUBLIC "-//W3C//DTD SVG 1.1//EN" "http://www.w3.org/Graphics/SVG/1.1/DTD/svg11.dtd">
<svg width="70pt" height="70pt" viewBox="0 0 70 70" version="1.1" xmlns="http://www.w3.org/2000/svg">
<g id="#4d4c4dff">
<path fill="#4d4c4d" opacity="1.00" d=" M 29.62 12.77 C 35.79 11.47 42.34 12.34 48.03 15.03 C 56.32 18.89 62.85 25.65 68.23 32.90 C 69.05 33.85 69.23 35.26 68.32 36.22 C 61.54 45.56 52.41 54.03 40.89 56.73 C 35.91 56.94 30.62 57.59 25.93 55.45 C 16.27 51.92 8.68 44.45 2.70 36.30 C 1.80 35.30 1.89 33.81 2.76 32.82 C 9.47 23.78 18.28 15.29 29.62 12.77 M 7.51 34.67 C 14.30 43.31 23.44 51.83 35.03 52.30 C 46.98 52.32 56.52 43.52 63.45 34.65 C 56.60 25.63 46.94 17.00 34.97 16.89 C 23.42 17.57 14.16 25.87 7.51 34.67 Z" />
<path fill="#4d4c4d" opacity="1.00" d=" M 31.48 24.60 C 36.92 22.06 43.79 25.51 45.68 31.04 C 48.43 37.46 42.83 45.30 35.99 45.33 C 30.17 45.83 24.75 40.74 24.62 34.96 C 24.44 30.51 27.38 26.25 31.48 24.60 M 32.38 29.50 C 28.83 31.42 28.39 36.92 31.71 39.27 C 34.92 42.08 40.46 40.12 41.39 36.01 C 42.80 31.20 36.49 26.34 32.38 29.50 Z" />
</g>
</svg>
