<?xml version="1.0" encoding="UTF-8" ?>
<!DOCTYPE svg PUBLIC "-//W3C//DTD SVG 1.1//EN" "http://www.w3.org/Graphics/SVG/1.1/DTD/svg11.dtd">
<svg width="70pt" height="70pt" viewBox="0 0 70 70" version="1.1" xmlns="http://www.w3.org/2000/svg">
<g id="#000000ff">
<path fill="#64b5f6" opacity="1.00" d=" M 15.39 2.56 C 25.86 1.78 36.45 2.47 46.97 2.21 C 49.42 1.92 53.17 2.73 52.99 5.90 C 53.01 25.64 53.01 45.38 52.99 65.12 C 53.15 66.65 51.58 68.12 50.06 67.92 C 38.69 67.94 27.32 67.94 15.95 67.92 C 13.78 68.37 12.35 66.07 12.42 64.14 C 12.39 45.09 12.41 26.04 12.44 6.99 C 12.28 5.05 13.53 3.14 15.39 2.56 M 28.33 4.57 C 28.32 5.12 28.29 6.20 28.27 6.74 C 31.33 6.84 34.40 6.84 37.46 6.77 C 37.46 6.22 37.45 5.13 37.45 4.58 C 34.41 4.54 31.37 4.54 28.33 4.57 M 24.12 4.84 C 23.58 6.46 24.13 7.02 25.77 6.51 C 26.32 4.89 25.76 4.34 24.12 4.84 M 16.85 9.19 C 16.86 24.34 16.85 39.50 16.86 54.65 C 27.53 54.73 38.20 54.69 48.87 54.67 C 48.82 39.50 48.85 24.33 48.85 9.15 C 38.19 9.15 27.52 9.08 16.85 9.19 M 31.17 59.97 C 28.92 62.10 32.87 65.47 34.60 63.00 C 36.76 60.95 33.00 57.73 31.17 59.97 Z" />
</g>
</svg>
