<?xml version="1.0" encoding="UTF-8" ?>
<!DOCTYPE svg PUBLIC "-//W3C//DTD SVG 1.1//EN" "http://www.w3.org/Graphics/SVG/1.1/DTD/svg11.dtd">
<svg width="70pt" height="70pt" viewBox="0 0 70 70" version="1.1" xmlns="http://www.w3.org/2000/svg">
<g id="#000000ff">
<path fill="#64b5f6" opacity="1.00" d=" M 31.39 6.51 C 40.22 3.69 50.06 10.84 50.36 20.02 C 51.08 29.16 41.89 37.31 32.88 35.37 C 25.07 34.01 19.28 25.71 21.06 17.92 C 22.11 12.60 26.28 8.19 31.39 6.51 Z" />
<path fill="#64b5f6" opacity="1.00" d=" M 26.05 44.03 C 35.70 41.80 45.88 43.32 54.97 47.02 C 58.81 48.75 62.92 51.08 64.65 55.14 C 65.31 58.36 64.85 61.70 64.97 64.96 C 45.33 64.98 25.69 64.96 6.05 64.97 C 6.24 61.55 5.50 57.94 6.59 54.64 C 10.73 47.99 18.85 45.64 26.05 44.03 Z" />
</g>
</svg>
