<?xml version="1.0" encoding="UTF-8" ?>
<!DOCTYPE svg PUBLIC "-//W3C//DTD SVG 1.1//EN" "http://www.w3.org/Graphics/SVG/1.1/DTD/svg11.dtd">
<svg width="70pt" height="70pt" viewBox="0 0 70 70" version="1.1" xmlns="http://www.w3.org/2000/svg">
<g id="#383738ff">
<path fill="#383738" opacity="1.00" d=" M 43.49 15.61 C 45.22 13.63 47.67 10.88 50.56 12.55 C 52.55 14.27 54.36 16.20 56.16 18.12 C 57.99 21.03 54.87 23.35 53.04 25.19 C 49.85 22.00 46.63 18.84 43.49 15.61 Z" />
<path fill="#383738" opacity="1.00" d=" M 16.00 43.11 C 24.68 34.40 33.39 25.71 42.08 17.01 C 42.53 17.25 43.43 17.74 43.88 17.98 C 35.59 26.50 27.15 34.89 18.67 43.23 C 18.97 43.59 19.59 44.30 19.90 44.66 C 28.11 36.08 36.69 27.86 44.99 19.37 C 47.28 21.64 49.49 23.97 51.82 26.19 C 43.13 35.23 34.21 44.12 25.19 52.84 C 22.20 49.54 18.46 46.77 16.00 43.11 Z" />
<path fill="#383738" opacity="1.00" d=" M 14.73 44.43 C 17.89 47.70 21.18 50.85 24.33 54.14 C 20.59 54.38 16.90 55.23 13.14 54.91 C 13.59 51.40 14.16 47.92 14.73 44.43 Z" />
</g>
</svg>
