<?xml version="1.0" encoding="UTF-8" ?>
<!DOCTYPE svg PUBLIC "-//W3C//DTD SVG 1.1//EN" "http://www.w3.org/Graphics/SVG/1.1/DTD/svg11.dtd">
<svg width="300pt" height="300pt" viewBox="0 0 300 300" version="1.1" xmlns="http://www.w3.org/2000/svg">
<g id="#fb872dff">
<path fill="#fb872d" opacity="1.00" d=" M 173.20 22.17 C 175.53 13.99 181.57 6.34 190.06 4.14 C 197.31 1.95 204.96 4.00 211.48 7.42 C 211.50 7.43 211.55 7.46 211.58 7.48 C 214.98 9.41 217.94 12.01 220.45 14.99 C 228.44 12.20 237.92 12.88 244.72 18.21 C 249.46 21.92 251.23 27.98 252.57 33.59 C 254.60 35.00 256.91 35.96 258.90 37.44 C 260.55 38.96 262.16 40.51 263.82 42.02 C 264.27 42.63 265.15 43.84 265.60 44.44 C 265.61 44.46 265.63 44.50 265.64 44.52 C 269.19 51.27 267.18 59.91 262.48 65.58 C 261.05 66.79 259.72 69.01 257.60 68.69 C 256.09 68.29 254.87 69.34 253.96 70.40 C 250.88 72.59 246.27 71.55 242.65 71.23 C 246.62 67.90 253.68 65.44 252.82 59.06 C 252.14 59.14 250.78 59.29 250.11 59.36 C 247.23 63.43 243.15 66.70 238.24 67.89 C 237.56 67.86 236.19 67.80 235.51 67.77 C 236.54 66.14 237.60 64.52 238.79 62.99 C 239.13 62.56 239.82 61.68 240.16 61.24 C 240.92 60.12 242.13 58.92 241.66 57.44 C 241.31 55.87 239.40 55.26 238.11 56.11 C 237.76 56.65 237.05 57.72 236.70 58.25 C 235.66 59.72 234.59 61.17 233.57 62.66 C 230.55 63.88 227.30 65.59 223.99 64.39 C 215.07 61.68 206.23 58.82 197.55 55.41 C 196.11 54.92 195.35 53.56 194.37 52.50 C 195.89 52.15 197.41 51.80 198.94 51.46 C 198.49 49.81 198.10 48.12 197.26 46.62 C 195.72 44.32 195.72 41.57 195.78 38.91 C 194.81 38.52 193.85 38.13 192.89 37.74 C 190.73 41.86 192.38 46.22 193.94 50.21 L 194.56 52.45 C 193.04 51.93 191.60 51.24 190.27 50.34 C 187.80 46.91 185.65 42.99 185.43 38.68 C 185.12 36.60 185.61 34.29 184.32 32.47 C 182.69 31.71 181.59 32.86 180.76 34.17 C 179.21 35.77 179.87 38.14 180.95 39.79 C 181.50 40.80 181.87 41.88 182.07 43.01 C 182.47 44.89 182.81 46.78 183.08 48.68 C 180.96 47.44 179.03 45.89 177.36 44.10 C 173.20 37.70 171.25 29.66 173.20 22.17 Z" />
<path fill="#fb872d" opacity="1.00" d=" M 107.24 88.36 C 125.80 84.12 144.99 82.06 164.00 83.89 C 182.10 85.60 199.95 89.65 217.13 95.59 C 220.10 96.63 223.16 97.43 226.24 98.12 C 229.05 98.82 231.68 100.08 234.40 101.09 C 232.87 103.83 231.44 106.96 228.44 108.39 C 221.81 111.83 213.87 110.42 207.13 108.00 C 165.08 93.17 117.59 94.30 76.39 111.38 C 72.47 112.98 68.88 115.31 64.87 116.68 C 61.66 117.91 58.52 115.94 55.55 114.94 L 55.24 114.26 C 55.34 112.21 55.39 110.12 55.96 108.13 C 56.84 105.41 59.61 104.11 62.01 103.01 C 66.50 101.09 71.10 99.43 75.64 97.65 C 81.37 95.13 87.87 96.74 93.72 94.64 C 98.66 93.50 102.33 89.54 107.24 88.36 Z" />
</g>
<g id="#6b6b6b94">
<path fill="#6b6b6b" opacity="0.58" d=" M 211.48 7.42 C 211.50 7.43 211.55 7.46 211.58 7.48 C 211.55 7.46 211.50 7.43 211.48 7.42 Z" />
</g>
<g id="#e99758f6">
<path fill="#e99758" opacity="0.96" d=" M 180.95 39.79 C 179.87 38.14 179.21 35.77 180.76 34.17 C 181.63 35.79 181.69 38.12 180.95 39.79 Z" />
</g>
<g id="#ffffffff">
<path fill="#ffffff" opacity="1.00" d=" M 258.90 37.44 C 260.74 38.75 262.39 40.29 263.82 42.02 C 262.16 40.51 260.55 38.96 258.90 37.44 Z" />
<path fill="#ffffff" opacity="1.00" d=" M 182.07 43.01 C 182.89 45.92 184.49 48.54 185.21 51.48 C 182.36 49.28 179.66 46.88 177.36 44.10 C 179.03 45.89 180.96 47.44 183.08 48.68 C 182.81 46.78 182.47 44.89 182.07 43.01 Z" />
<path fill="#ffffff" opacity="1.00" d=" M 197.26 46.62 C 198.10 48.12 198.49 49.81 198.94 51.46 C 197.41 51.80 195.89 52.15 194.37 52.50 C 195.35 53.56 196.11 54.92 197.55 55.41 C 206.23 58.82 215.07 61.68 223.99 64.39 C 227.30 65.59 230.55 63.88 233.57 62.66 C 234.59 61.17 235.66 59.72 236.70 58.25 C 236.54 59.83 235.77 61.41 234.54 62.42 C 231.45 63.75 228.38 65.72 224.86 65.22 C 220.22 63.34 215.39 62.07 210.45 61.32 C 210.07 60.99 209.31 60.32 208.93 59.99 C 204.26 58.75 199.24 57.82 195.51 54.53 C 193.92 52.95 190.54 52.99 190.27 50.34 C 191.60 51.24 193.04 51.93 194.56 52.45 L 193.94 50.21 C 195.18 51.40 196.61 52.26 198.36 51.44 C 198.73 49.72 197.92 48.14 197.26 46.62 Z" />
<path fill="#ffffff" opacity="1.00" d=" M 188.23 63.97 C 188.01 61.51 188.94 59.34 190.86 57.80 C 192.15 58.38 193.46 58.95 194.78 59.51 C 197.44 60.19 200.23 60.35 202.74 61.54 C 209.09 64.06 215.93 65.31 221.99 68.54 C 223.64 69.31 225.41 69.81 227.26 69.70 C 231.22 70.75 234.55 73.58 238.80 73.61 C 238.86 75.41 238.59 77.21 237.77 78.84 C 237.00 80.80 236.30 82.78 235.60 84.77 C 235.35 85.61 234.83 87.30 234.57 88.15 C 239.42 90.20 244.87 91.80 248.33 96.05 C 259.18 107.83 252.61 128.95 238.07 134.33 C 235.92 135.27 232.98 135.45 232.14 138.05 C 226.89 148.48 221.70 158.94 216.35 169.32 C 213.27 174.12 216.40 179.91 214.80 185.11 C 213.84 191.48 208.60 196.40 202.29 197.37 C 195.09 211.52 188.05 225.76 180.78 239.88 C 178.32 243.99 179.90 249.25 177.30 253.31 C 175.51 256.71 171.62 258.32 169.82 261.70 C 166.75 267.42 164.22 273.42 160.94 279.03 C 157.16 285.26 148.97 288.17 142.06 285.96 C 137.80 284.66 134.94 280.97 130.98 279.10 C 124.12 275.86 122.54 267.31 123.46 260.47 C 117.16 248.00 110.86 235.54 104.60 223.05 C 98.87 211.40 93.19 199.71 86.98 188.32 C 82.55 188.14 78.28 186.55 75.15 183.35 C 68.21 176.20 68.95 165.03 70.77 155.98 C 68.06 150.60 65.32 145.23 62.67 139.82 C 61.97 138.47 61.22 137.14 60.47 135.82 C 57.28 134.99 54.09 133.94 51.41 131.98 C 42.80 126.26 38.55 115.03 40.76 105.01 C 42.34 98.10 47.77 92.47 54.42 90.17 C 89.54 75.64 127.89 66.17 166.08 70.43 C 172.25 71.10 178.41 71.97 184.48 73.27 C 184.46 73.84 184.41 74.97 184.38 75.54 C 186.93 76.80 189.62 77.80 192.48 77.96 C 199.53 80.29 206.64 82.52 213.41 85.59 C 220.22 87.01 226.80 89.33 233.34 91.69 C 234.56 86.63 236.38 81.77 238.12 76.88 C 238.28 75.54 237.86 73.89 236.29 73.68 C 221.15 68.35 205.77 63.74 190.69 58.27 C 189.83 60.15 188.98 62.04 188.23 63.97 M 57.07 97.39 C 53.50 98.71 50.28 101.24 48.87 104.86 C 44.67 115.52 53.60 129.45 65.51 128.32 C 69.72 137.28 74.64 145.90 78.65 154.94 C 78.00 159.61 76.86 164.29 77.33 169.05 C 77.58 173.17 78.99 177.98 83.05 179.84 C 85.66 181.16 88.46 179.76 90.98 178.97 C 104.37 205.70 117.97 232.33 131.30 259.09 C 131.21 263.07 130.05 267.69 132.88 271.06 C 134.08 272.81 136.26 272.79 138.14 272.92 C 139.46 274.89 140.69 277.14 143.00 278.10 C 147.03 280.04 152.53 278.66 154.67 274.59 C 158.36 267.64 161.74 260.52 165.36 253.53 C 167.29 252.57 169.49 251.66 170.54 249.63 C 172.04 247.36 171.44 244.57 171.14 242.06 C 180.07 224.28 189.08 206.54 198.00 188.76 C 200.50 189.36 203.70 189.99 205.47 187.56 C 208.81 183.03 207.52 176.94 206.57 171.83 C 213.80 157.30 221.23 142.87 228.41 128.32 C 238.37 129.25 246.61 119.50 245.95 109.94 C 246.27 104.30 242.20 99.22 236.99 97.44 C 203.93 83.72 167.99 74.57 131.97 77.74 C 106.15 80.17 80.94 87.40 57.07 97.39 Z" />
<path fill="#ffffff" opacity="1.00" d=" M 233.06 68.34 C 234.95 66.55 236.85 64.76 238.79 62.99 C 237.60 64.52 236.54 66.14 235.51 67.77 C 236.19 67.80 237.56 67.86 238.24 67.89 L 239.04 67.93 C 237.06 68.23 235.05 68.34 233.06 68.34 Z" />
<path fill="#ffffff" opacity="1.00" d=" M 253.96 70.40 C 254.87 69.34 256.09 68.29 257.60 68.69 C 258.23 70.48 255.11 71.17 253.96 70.40 Z" />
<path fill="#ffffff" opacity="1.00" d=" M 120.39 132.54 C 122.69 129.94 127.27 132.88 126.19 136.04 C 125.59 138.51 122.13 139.56 120.38 137.65 C 118.83 136.38 118.86 133.80 120.39 132.54 Z" />
<path fill="#ffffff" opacity="1.00" d=" M 167.24 132.22 C 169.33 130.48 172.70 132.35 172.74 134.94 C 173.00 137.76 169.22 139.83 167.06 137.90 C 165.11 136.56 165.24 133.43 167.24 132.22 Z" />
<path fill="#ffffff" opacity="1.00" d=" M 164.25 188.95 C 168.32 180.62 177.82 175.22 187.10 176.66 C 189.10 177.02 191.12 177.38 193.04 178.10 C 187.88 177.47 182.45 176.27 177.41 178.19 C 169.22 181.30 162.44 189.46 163.08 198.56 C 163.07 199.53 163.08 200.51 163.11 201.48 C 162.85 206.16 165.47 210.12 167.80 213.92 C 165.40 210.71 162.80 207.24 162.57 203.09 C 162.38 198.35 161.85 193.27 164.25 188.95 Z" />
</g>
<g id="#6a6059a9">
<path fill="#6a6059" opacity="0.66" d=" M 265.60 44.44 C 265.61 44.46 265.63 44.50 265.64 44.52 C 265.63 44.50 265.61 44.46 265.60 44.44 Z" />
</g>
<g id="#fdc497ff">
<path fill="#fdc497" opacity="1.00" d=" M 238.11 56.11 C 239.40 55.26 241.31 55.87 241.66 57.44 C 242.13 58.92 240.92 60.12 240.16 61.24 C 241.54 59.09 241.63 55.50 238.11 56.11 Z" />
<path fill="#fdc497" opacity="1.00" d=" M 58.74 101.60 C 80.58 92.44 103.55 85.69 127.09 82.79 C 160.78 78.61 194.89 85.97 226.24 98.12 C 223.16 97.43 220.10 96.63 217.13 95.59 C 199.95 89.65 182.10 85.60 164.00 83.89 C 144.99 82.06 125.80 84.12 107.24 88.36 C 102.33 89.54 98.66 93.50 93.72 94.64 C 87.87 96.74 81.37 95.13 75.64 97.65 C 71.10 99.43 66.50 101.09 62.01 103.01 C 59.61 104.11 56.84 105.41 55.96 108.13 C 55.39 110.12 55.34 112.21 55.24 114.26 C 53.81 112.06 52.48 109.72 52.58 106.98 C 53.93 104.52 56.06 102.53 58.74 101.60 Z" />
<path fill="#fdc497" opacity="1.00" d=" M 140.10 164.79 C 142.57 162.66 145.70 162.28 148.84 162.49 C 146.77 162.86 144.72 163.32 142.67 163.76 C 142.67 164.47 142.66 165.90 142.66 166.62 C 141.81 166.00 140.96 165.39 140.10 164.79 Z" />
<path fill="#fdc497" opacity="1.00" d=" M 107.33 201.61 C 109.43 200.75 111.58 199.94 113.56 198.82 L 114.15 199.95 C 112.52 200.77 110.09 200.89 109.39 202.86 C 109.81 204.31 110.39 205.70 111.03 207.07 C 113.13 211.35 115.37 215.56 117.32 219.91 C 117.91 221.30 118.42 222.72 118.95 224.14 C 115.01 216.67 111.40 209.02 107.33 201.61 Z" />
<path fill="#fdc497" opacity="1.00" d=" M 136.12 207.92 C 137.12 208.24 138.12 208.56 139.12 208.88 C 139.19 209.22 139.34 209.91 139.41 210.26 C 139.96 213.00 140.74 215.70 141.31 218.45 C 142.48 224.55 140.51 230.96 136.78 235.84 C 134.59 238.78 131.31 240.56 128.62 242.97 C 128.40 242.69 127.98 242.11 127.77 241.82 C 132.07 239.21 136.11 235.83 138.24 231.15 C 141.80 223.86 141.30 214.32 136.12 207.92 Z" />
</g>
<g id="#f44336ff">
<path fill="#f44336" opacity="1.00" d=" M 188.23 63.97 C 188.98 62.04 189.83 60.15 190.69 58.27 C 205.77 63.74 221.15 68.35 236.29 73.68 C 237.86 73.89 238.28 75.54 238.12 76.88 C 236.38 81.77 234.56 86.63 233.34 91.69 C 226.80 89.33 220.22 87.01 213.41 85.59 C 206.64 82.52 199.53 80.29 192.48 77.96 C 190.07 76.85 187.66 75.74 185.21 74.74 C 185.45 73.49 185.70 72.25 185.97 71.01 C 186.48 68.60 187.34 66.27 188.23 63.97 Z" />
</g>
<g id="#cc7770f0">
<path fill="#cc7770" opacity="0.94" d=" M 184.48 73.27 C 184.98 72.52 185.47 71.77 185.97 71.01 C 185.70 72.25 185.45 73.49 185.21 74.74 C 187.66 75.74 190.07 76.85 192.48 77.96 C 189.62 77.80 186.93 76.80 184.38 75.54 C 184.41 74.97 184.46 73.84 184.48 73.27 Z" />
</g>
<g id="#4f220cff">
<path fill="#4f220c" opacity="1.00" d=" M 57.07 97.39 C 80.94 87.40 106.15 80.17 131.97 77.74 C 167.99 74.57 203.93 83.72 236.99 97.44 C 242.20 99.22 246.27 104.30 245.95 109.94 C 246.61 119.50 238.37 129.25 228.41 128.32 C 221.23 142.87 213.80 157.30 206.57 171.83 C 207.52 176.94 208.81 183.03 205.47 187.56 C 203.70 189.99 200.50 189.36 198.00 188.76 C 189.08 206.54 180.07 224.28 171.14 242.06 C 171.44 244.57 172.04 247.36 170.54 249.63 C 169.49 251.66 167.29 252.57 165.36 253.53 C 161.74 260.52 158.36 267.64 154.67 274.59 C 152.53 278.66 147.03 280.04 143.00 278.10 C 140.69 277.14 139.46 274.89 138.14 272.92 C 136.26 272.79 134.08 272.81 132.88 271.06 C 130.05 267.69 131.21 263.07 131.30 259.09 C 117.97 232.33 104.37 205.70 90.98 178.97 C 88.46 179.76 85.66 181.16 83.05 179.84 C 78.99 177.98 77.58 173.17 77.33 169.05 C 76.86 164.29 78.00 159.61 78.65 154.94 C 74.64 145.90 69.72 137.28 65.51 128.32 C 53.60 129.45 44.67 115.52 48.87 104.86 C 50.28 101.24 53.50 98.71 57.07 97.39 M 58.74 101.60 C 56.06 102.53 53.93 104.52 52.58 106.98 C 51.31 112.90 53.68 119.42 59.01 122.51 C 61.51 124.14 64.90 124.00 67.43 122.50 C 86.76 112.39 108.30 107.14 129.89 104.78 C 160.87 102.33 192.73 106.74 221.07 119.81 C 224.79 121.33 228.33 124.58 232.62 123.45 C 239.15 121.34 242.87 113.59 241.03 107.10 C 240.10 104.00 237.19 102.28 234.40 101.09 C 231.68 100.08 229.05 98.82 226.24 98.12 C 194.89 85.97 160.78 78.61 127.09 82.79 C 103.55 85.69 80.58 92.44 58.74 101.60 M 118.35 111.12 C 113.47 111.56 108.63 112.56 104.08 114.39 C 92.49 118.87 81.15 125.82 74.61 136.70 C 77.22 141.98 80.97 147.01 81.35 153.09 C 81.99 160.09 79.87 167.52 82.72 174.21 C 84.12 178.25 90.32 177.17 91.56 173.61 C 92.06 171.97 91.92 170.21 92.04 168.53 L 92.37 167.27 C 93.87 170.63 93.41 174.54 95.37 177.71 C 98.66 184.12 101.89 190.57 105.11 197.01 C 106.10 196.53 107.09 196.06 108.08 195.58 C 110.96 194.75 113.87 194.06 116.75 193.25 C 116.15 195.12 114.46 197.76 116.96 198.97 C 121.59 200.23 126.56 198.24 131.13 199.82 C 134.78 201.09 136.40 206.08 140.67 205.79 C 142.56 205.07 142.27 202.49 143.14 200.95 C 143.83 203.04 143.66 205.16 142.74 207.18 C 144.92 211.51 146.83 216.12 146.65 221.07 C 147.15 230.88 141.73 240.37 133.56 245.63 C 132.52 246.22 131.49 246.82 130.46 247.42 C 132.48 251.01 135.26 254.59 134.82 258.98 C 135.17 262.66 133.76 267.96 137.92 269.94 C 139.66 268.46 140.24 266.28 140.64 264.13 C 142.07 267.24 141.37 271.37 144.35 273.65 C 145.77 274.94 147.69 274.18 149.37 274.16 C 152.15 270.44 153.81 266.05 155.99 261.97 C 157.53 258.69 159.50 255.60 160.74 252.19 C 160.18 251.17 159.58 250.18 158.96 249.22 C 159.13 247.78 159.13 246.34 159.21 244.90 C 160.09 246.28 160.96 247.66 161.82 249.06 C 163.14 249.60 164.70 250.05 165.85 248.83 C 168.14 247.34 167.52 244.38 167.83 242.08 C 167.90 235.76 172.22 230.76 174.47 225.12 C 171.18 223.58 168.15 221.58 165.07 219.67 C 161.95 215.85 158.79 211.90 157.55 207.02 C 153.70 195.38 158.70 181.66 169.07 175.14 C 174.70 171.27 181.68 170.24 188.37 170.60 C 188.24 171.98 188.14 173.36 188.05 174.75 C 191.15 175.02 194.84 174.34 197.31 176.70 C 199.76 178.78 198.19 182.68 200.09 184.95 C 202.13 186.40 203.47 183.68 203.71 182.02 C 204.43 177.37 204.80 172.49 203.78 167.86 C 208.67 156.66 214.72 145.99 219.99 134.97 C 221.20 132.13 223.74 129.42 223.75 126.33 C 214.00 120.94 203.31 117.45 192.61 114.47 C 187.13 113.21 181.67 111.65 176.03 111.25 C 178.81 112.56 181.55 113.95 184.30 115.34 L 184.64 115.35 C 188.56 118.14 192.95 120.31 196.47 123.64 C 200.79 127.67 205.98 130.73 211.58 132.61 L 211.61 132.77 C 213.79 133.41 215.96 134.13 218.18 134.66 C 216.14 134.42 214.09 134.25 212.05 134.02 C 208.89 132.95 205.70 131.93 202.74 130.39 C 197.26 127.73 193.04 123.13 187.57 120.43 C 174.49 112.66 159.32 108.06 144.03 108.67 C 135.44 108.96 126.77 109.34 118.35 111.12 M 72.36 125.14 C 71.44 125.50 70.52 125.86 69.60 126.22 C 71.03 129.64 72.57 133.03 74.74 136.06 C 75.19 134.99 75.63 133.92 76.07 132.84 C 80.21 126.53 86.08 121.76 92.00 117.20 C 85.27 119.37 78.67 121.94 72.36 125.14 M 164.89 183.93 C 159.36 191.15 158.33 201.52 162.52 209.63 C 165.26 215.33 170.42 219.46 176.17 221.87 C 179.26 216.02 182.27 210.13 185.01 204.12 C 188.32 197.41 192.34 191.02 195.09 184.05 C 195.29 181.97 196.04 178.34 193.04 178.10 C 191.12 177.38 189.10 177.02 187.10 176.66 C 186.98 175.14 186.27 174.35 184.98 174.30 C 177.21 173.84 169.57 177.82 164.89 183.93 M 106.89 200.01 C 107.00 200.41 107.22 201.21 107.33 201.61 C 111.40 209.02 115.01 216.67 118.95 224.14 C 121.45 230.24 124.77 235.96 127.77 241.82 C 127.98 242.11 128.40 242.69 128.62 242.97 L 127.71 243.75 C 128.99 243.47 130.33 243.25 131.44 242.49 C 138.33 238.16 142.98 230.25 142.86 222.05 C 142.77 217.96 142.41 213.36 139.41 210.26 C 139.34 209.91 139.19 209.22 139.12 208.88 C 138.12 208.56 137.12 208.24 136.12 207.92 C 133.89 206.11 131.75 203.91 128.98 202.98 C 124.01 202.23 118.14 203.88 114.15 199.95 L 113.56 198.82 L 114.38 197.74 C 111.78 198.15 109.31 199.03 106.89 200.01 Z" />
<path fill="#4f220c" opacity="1.00" d=" M 113.56 128.49 C 118.51 124.86 125.63 126.72 129.19 131.41 C 130.48 134.39 131.43 137.75 130.33 140.94 C 129.61 143.71 127.35 145.61 125.30 147.43 C 125.11 147.95 124.73 149.00 124.54 149.53 C 117.99 145.53 110.19 145.04 102.75 144.35 C 104.70 142.97 107.13 142.67 109.42 142.25 C 107.83 137.33 109.02 131.40 113.56 128.49 M 120.39 132.54 C 118.86 133.80 118.83 136.38 120.38 137.65 C 122.13 139.56 125.59 138.51 126.19 136.04 C 127.27 132.88 122.69 129.94 120.39 132.54 Z" />
<path fill="#4f220c" opacity="1.00" d=" M 161.20 138.04 C 160.72 132.05 166.03 126.52 172.00 126.56 C 175.56 126.40 178.75 128.36 181.16 130.80 C 183.33 134.26 183.62 138.39 182.55 142.27 C 183.11 142.37 184.23 142.57 184.79 142.66 C 186.38 142.89 187.90 143.46 189.24 144.35 C 181.26 144.91 173.09 145.90 166.11 150.14 C 166.43 149.57 167.06 148.42 167.37 147.85 C 164.11 145.59 161.10 142.26 161.20 138.04 M 167.24 132.22 C 165.24 133.43 165.11 136.56 167.06 137.90 C 169.22 139.83 173.00 137.76 172.74 134.94 C 172.70 132.35 169.33 130.48 167.24 132.22 Z" />
<path fill="#4f220c" opacity="1.00" d=" M 133.35 159.93 C 132.47 157.47 134.38 154.45 137.03 154.37 C 142.71 154.17 148.41 154.29 154.10 154.31 C 156.08 154.08 157.53 155.52 158.84 156.78 C 159.16 161.28 156.03 165.17 152.42 167.45 C 148.95 169.61 144.64 169.34 140.84 168.34 C 137.55 166.42 134.65 163.57 133.35 159.93 M 140.10 164.79 C 140.96 165.39 141.81 166.00 142.66 166.62 C 146.06 167.74 149.52 166.80 152.40 164.85 C 151.21 164.06 150.11 163.15 148.84 162.49 C 145.70 162.28 142.57 162.66 140.10 164.79 Z" />
</g>
<g id="#ca8a1aff">
<path fill="#ca8a1a" opacity="1.00" d=" M 248.33 96.05 C 251.86 99.41 255.87 102.66 257.43 107.47 C 262.45 121.23 252.74 138.04 238.25 140.45 C 232.27 152.72 225.78 164.76 219.92 177.08 C 219.80 182.00 221.07 187.19 219.16 191.98 C 217.63 197.38 212.69 201.11 207.23 201.87 C 199.82 217.13 191.79 232.09 184.48 247.39 C 184.09 251.01 184.27 254.90 182.15 258.07 C 180.80 260.94 177.85 262.40 175.75 264.60 C 172.38 270.69 169.65 277.14 166.22 283.20 C 162.30 290.00 153.21 293.18 145.96 290.05 C 142.54 288.91 140.47 285.68 137.25 284.20 C 134.70 283.13 132.73 281.18 130.98 279.10 C 134.94 280.97 137.80 284.66 142.06 285.96 C 148.97 288.17 157.16 285.26 160.94 279.03 C 164.22 273.42 166.75 267.42 169.82 261.70 C 171.62 258.32 175.51 256.71 177.30 253.31 C 179.90 249.25 178.32 243.99 180.78 239.88 C 188.05 225.76 195.09 211.52 202.29 197.37 C 208.60 196.40 213.84 191.48 214.80 185.11 C 216.40 179.91 213.27 174.12 216.35 169.32 C 221.70 158.94 226.89 148.48 232.14 138.05 C 232.98 135.45 235.92 135.27 238.07 134.33 C 252.61 128.95 259.18 107.83 248.33 96.05 Z" />
</g>
<g id="#c76923ff">
<path fill="#c76923" opacity="1.00" d=" M 76.39 111.38 C 117.59 94.30 165.08 93.17 207.13 108.00 C 213.87 110.42 221.81 111.83 228.44 108.39 C 231.44 106.96 232.87 103.83 234.40 101.09 C 237.19 102.28 240.10 104.00 241.03 107.10 C 242.87 113.59 239.15 121.34 232.62 123.45 C 228.33 124.58 224.79 121.33 221.07 119.81 C 192.73 106.74 160.87 102.33 129.89 104.78 C 108.30 107.14 86.76 112.39 67.43 122.50 C 64.90 124.00 61.51 124.14 59.01 122.51 C 57.74 120.04 56.70 117.47 55.55 114.94 C 58.52 115.94 61.66 117.91 64.87 116.68 C 68.88 115.31 72.47 112.98 76.39 111.38 Z" />
</g>
<g id="#b17c58ff">
<path fill="#b17c58" opacity="1.00" d=" M 59.01 122.51 C 53.68 119.42 51.31 112.90 52.58 106.98 C 52.48 109.72 53.81 112.06 55.24 114.26 L 55.55 114.94 C 56.70 117.47 57.74 120.04 59.01 122.51 Z" />
</g>
<g id="#ffb720ff">
<path fill="#ffb720" opacity="1.00" d=" M 118.35 111.12 C 126.77 109.34 135.44 108.96 144.03 108.67 C 159.32 108.06 174.49 112.66 187.57 120.43 C 193.04 123.13 197.26 127.73 202.74 130.39 C 205.70 131.93 208.89 132.95 212.05 134.02 C 208.61 142.67 204.23 150.91 200.55 159.44 C 200.83 162.38 203.03 164.95 203.78 167.86 C 204.80 172.49 204.43 177.37 203.71 182.02 C 203.47 183.68 202.13 186.40 200.09 184.95 C 198.19 182.68 199.76 178.78 197.31 176.70 C 194.84 174.34 191.15 175.02 188.05 174.75 C 188.14 173.36 188.24 171.98 188.37 170.60 C 181.68 170.24 174.70 171.27 169.07 175.14 C 158.70 181.66 153.70 195.38 157.55 207.02 C 158.79 211.90 161.95 215.85 165.07 219.67 C 166.48 221.58 168.15 223.29 169.90 224.91 C 168.26 228.44 166.44 232.03 166.18 235.99 C 165.81 239.10 166.10 242.30 165.34 245.36 C 164.30 246.71 163.01 247.84 161.82 249.06 C 160.96 247.66 160.09 246.28 159.21 244.90 C 159.13 246.34 159.13 247.78 158.96 249.22 C 154.67 256.88 151.48 265.08 147.67 272.98 C 144.95 269.55 143.48 265.36 141.17 261.68 C 141.04 262.29 140.77 263.52 140.64 264.13 C 140.24 266.28 139.66 268.46 137.92 269.94 C 136.03 265.86 136.22 261.36 136.39 256.98 C 136.60 252.99 135.06 249.24 133.56 245.63 C 141.73 240.37 147.15 230.88 146.65 221.07 C 146.83 216.12 144.92 211.51 142.74 207.18 C 143.66 205.16 143.83 203.04 143.14 200.95 C 142.27 202.49 142.56 205.07 140.67 205.79 C 136.40 206.08 134.78 201.09 131.13 199.82 C 126.56 198.24 121.59 200.23 116.96 198.97 C 114.46 197.76 116.15 195.12 116.75 193.25 C 113.87 194.06 110.96 194.75 108.08 195.58 C 102.60 185.47 97.89 174.95 92.30 164.90 C 92.31 165.49 92.35 166.68 92.37 167.27 L 92.04 168.53 C 90.98 171.19 90.12 176.49 86.11 175.14 C 83.65 173.27 83.39 169.84 83.21 167.00 C 82.91 160.65 84.11 154.28 83.14 147.96 C 82.57 143.67 79.47 140.32 78.38 136.21 C 82.52 130.17 88.58 125.70 94.63 121.70 C 101.89 116.86 110.18 114.01 118.35 111.12 M 113.56 128.49 C 109.02 131.40 107.83 137.33 109.42 142.25 C 107.13 142.67 104.70 142.97 102.75 144.35 C 110.19 145.04 117.99 145.53 124.54 149.53 L 124.39 149.95 C 126.78 148.64 129.46 147.44 130.91 144.99 C 133.67 140.90 133.38 134.45 129.19 131.41 C 125.63 126.72 118.51 124.86 113.56 128.49 M 161.20 138.04 C 161.10 142.26 164.11 145.59 167.37 147.85 C 167.06 148.42 166.43 149.57 166.11 150.14 C 173.09 145.90 181.26 144.91 189.24 144.35 C 187.90 143.46 186.38 142.89 184.79 142.66 C 185.61 138.51 185.10 133.25 181.16 130.80 C 178.75 128.36 175.56 126.40 172.00 126.56 C 166.03 126.52 160.72 132.05 161.20 138.04 M 133.35 159.93 C 134.65 163.57 137.55 166.42 140.84 168.34 C 146.38 172.74 155.13 170.53 158.73 164.68 C 160.54 162.50 161.98 158.52 158.84 156.78 C 157.53 155.52 156.08 154.08 154.10 154.31 C 148.41 154.29 142.71 154.17 137.03 154.37 C 134.38 154.45 132.47 157.47 133.35 159.93 M 110.38 157.41 C 108.63 157.77 106.06 160.33 108.28 161.73 C 111.15 164.31 115.39 163.77 118.94 163.53 C 120.99 163.07 124.22 162.00 123.64 159.31 C 120.21 156.01 114.67 156.23 110.38 157.41 M 168.76 158.89 C 167.30 160.56 169.41 162.42 170.98 162.95 C 175.66 164.49 181.30 164.10 185.11 160.72 C 184.09 159.18 182.94 157.50 180.96 157.23 C 176.96 156.36 172.11 156.18 168.76 158.89 Z" />
</g>
<g id="#ffdc91ff">
<path fill="#ffdc91" opacity="1.00" d=" M 104.08 114.39 C 108.63 112.56 113.47 111.56 118.35 111.12 C 110.18 114.01 101.89 116.86 94.63 121.70 C 88.58 125.70 82.52 130.17 78.38 136.21 C 79.47 140.32 82.57 143.67 83.14 147.96 C 84.11 154.28 82.91 160.65 83.21 167.00 C 83.39 169.84 83.65 173.27 86.11 175.14 C 90.12 176.49 90.98 171.19 92.04 168.53 C 91.92 170.21 92.06 171.97 91.56 173.61 C 90.32 177.17 84.12 178.25 82.72 174.21 C 79.87 167.52 81.99 160.09 81.35 153.09 C 80.97 147.01 77.22 141.98 74.61 136.70 C 81.15 125.82 92.49 118.87 104.08 114.39 Z" />
</g>
<g id="#d93d1fff">
<path fill="#d93d1f" opacity="1.00" d=" M 176.03 111.25 C 181.67 111.65 187.13 113.21 192.61 114.47 C 203.31 117.45 214.00 120.94 223.75 126.33 C 223.74 129.42 221.20 132.13 219.99 134.97 C 219.54 134.89 218.63 134.74 218.18 134.66 C 215.96 134.13 213.79 133.41 211.61 132.77 L 211.58 132.61 C 211.08 129.79 210.50 126.74 208.25 124.75 C 205.25 122.04 201.28 120.85 197.65 119.28 C 193.41 117.71 189.32 115.17 184.64 115.35 L 184.30 115.34 C 181.55 113.95 178.81 112.56 176.03 111.25 Z" />
</g>
<g id="#fb4424ff">
<path fill="#fb4424" opacity="1.00" d=" M 184.64 115.35 C 189.32 115.17 193.41 117.71 197.65 119.28 C 201.28 120.85 205.25 122.04 208.25 124.75 C 210.50 126.74 211.08 129.79 211.58 132.61 C 205.98 130.73 200.79 127.67 196.47 123.64 C 192.95 120.31 188.56 118.14 184.64 115.35 Z" />
<path fill="#fb4424" opacity="1.00" d=" M 72.36 125.14 C 78.67 121.94 85.27 119.37 92.00 117.20 C 86.08 121.76 80.21 126.53 76.07 132.84 C 74.78 130.30 73.55 127.73 72.36 125.14 Z" />
<path fill="#fb4424" opacity="1.00" d=" M 164.89 183.93 C 169.57 177.82 177.21 173.84 184.98 174.30 C 186.27 174.35 186.98 175.14 187.10 176.66 C 177.82 175.22 168.32 180.62 164.25 188.95 C 161.85 193.27 162.38 198.35 162.57 203.09 C 162.80 207.24 165.40 210.71 167.80 213.92 C 165.47 210.12 162.85 206.16 163.11 201.48 C 165.44 203.96 167.28 207.72 171.04 208.11 C 175.69 208.94 180.81 204.91 180.31 200.01 C 180.29 195.75 176.45 191.69 172.06 192.20 C 167.99 192.18 165.65 196.01 163.08 198.56 C 162.44 189.46 169.22 181.30 177.41 178.19 C 182.45 176.27 187.88 177.47 193.04 178.10 C 196.04 178.34 195.29 181.97 195.09 184.05 C 192.34 191.02 188.32 197.41 185.01 204.12 C 182.27 210.13 179.26 216.02 176.17 221.87 C 170.42 219.46 165.26 215.33 162.52 209.63 C 158.33 201.52 159.36 191.15 164.89 183.93 M 182.36 180.39 C 178.47 182.14 177.66 187.59 180.39 190.71 C 183.54 194.24 190.19 192.87 191.28 188.10 C 193.18 183.09 187.04 177.97 182.36 180.39 Z" />
<path fill="#fb4424" opacity="1.00" d=" M 114.15 199.95 C 118.14 203.88 124.01 202.23 128.98 202.98 C 131.75 203.91 133.89 206.11 136.12 207.92 C 141.30 214.32 141.80 223.86 138.24 231.15 C 136.11 235.83 132.07 239.21 127.77 241.82 C 124.77 235.96 121.45 230.24 118.95 224.14 C 118.42 222.72 117.91 221.30 117.32 219.91 C 120.02 219.05 123.28 218.54 124.83 215.85 C 127.95 211.59 125.49 204.38 119.97 203.79 C 116.51 202.74 113.31 204.63 111.03 207.07 C 110.39 205.70 109.81 204.31 109.39 202.86 C 110.09 200.89 112.52 200.77 114.15 199.95 M 128.39 220.39 C 124.06 222.30 123.29 229.05 127.36 231.64 C 131.49 234.91 138.35 230.98 137.49 225.75 C 137.12 221.42 132.32 218.75 128.39 220.39 Z" />
<path fill="#fb4424" opacity="1.00" d=" M 139.41 210.26 C 142.41 213.36 142.77 217.96 142.86 222.05 C 142.98 230.25 138.33 238.16 131.44 242.49 C 130.33 243.25 128.99 243.47 127.71 243.75 L 128.62 242.97 C 131.31 240.56 134.59 238.78 136.78 235.84 C 140.51 230.96 142.48 224.55 141.31 218.45 C 140.74 215.70 139.96 213.00 139.41 210.26 Z" />
</g>
<g id="#f69b8aff">
<path fill="#f69b8a" opacity="1.00" d=" M 69.60 126.22 C 70.52 125.86 71.44 125.50 72.36 125.14 C 73.55 127.73 74.78 130.30 76.07 132.84 C 75.63 133.92 75.19 134.99 74.74 136.06 C 72.57 133.03 71.03 129.64 69.60 126.22 Z" />
</g>
<g id="#ffde93ff">
<path fill="#ffde93" opacity="1.00" d=" M 181.16 130.80 C 185.10 133.25 185.61 138.51 184.79 142.66 C 184.23 142.57 183.11 142.37 182.55 142.27 C 183.62 138.39 183.33 134.26 181.16 130.80 Z" />
<path fill="#ffde93" opacity="1.00" d=" M 158.84 156.78 C 161.98 158.52 160.54 162.50 158.73 164.68 C 155.13 170.53 146.38 172.74 140.84 168.34 C 144.64 169.34 148.95 169.61 152.42 167.45 C 156.03 165.17 159.16 161.28 158.84 156.78 Z" />
<path fill="#ffde93" opacity="1.00" d=" M 130.46 247.42 C 131.49 246.82 132.52 246.22 133.56 245.63 C 135.06 249.24 136.60 252.99 136.39 256.98 C 136.22 261.36 136.03 265.86 137.92 269.94 C 133.76 267.96 135.17 262.66 134.82 258.98 C 135.26 254.59 132.48 251.01 130.46 247.42 Z" />
</g>
<g id="#c98715ff">
<path fill="#c98715" opacity="1.00" d=" M 51.41 131.98 C 54.09 133.94 57.28 134.99 60.47 135.82 C 61.22 137.14 61.97 138.47 62.67 139.82 C 58.12 138.05 54.34 134.96 50.86 131.62 L 51.41 131.98 Z" />
<path fill="#c98715" opacity="1.00" d=" M 75.15 183.35 C 78.28 186.55 82.55 188.14 86.98 188.32 C 93.19 199.71 98.87 211.40 104.60 223.05 C 99.25 213.02 94.42 202.72 89.11 192.68 C 83.31 191.68 79.26 187.16 75.15 183.35 Z" />
</g>
<g id="#ffe69cff">
<path fill="#ffe69c" opacity="1.00" d=" M 129.19 131.41 C 133.38 134.45 133.67 140.90 130.91 144.99 C 129.46 147.44 126.78 148.64 124.39 149.95 L 124.54 149.53 C 124.73 149.00 125.11 147.95 125.30 147.43 C 127.35 145.61 129.61 143.71 130.33 140.94 C 131.43 137.75 130.48 134.39 129.19 131.41 Z" />
</g>
<g id="#dc991cff">
<path fill="#dc991c" opacity="1.00" d=" M 212.05 134.02 C 214.09 134.25 216.14 134.42 218.18 134.66 C 218.63 134.74 219.54 134.89 219.99 134.97 C 214.72 145.99 208.67 156.66 203.78 167.86 C 203.03 164.95 200.83 162.38 200.55 159.44 C 204.23 150.91 208.61 142.67 212.05 134.02 Z" />
<path fill="#dc991c" opacity="1.00" d=" M 165.07 219.67 C 168.15 221.58 171.18 223.58 174.47 225.12 C 172.22 230.76 167.90 235.76 167.83 242.08 C 167.52 244.38 168.14 247.34 165.85 248.83 C 164.70 250.05 163.14 249.60 161.82 249.06 C 163.01 247.84 164.30 246.71 165.34 245.36 C 166.10 242.30 165.81 239.10 166.18 235.99 C 166.44 232.03 168.26 228.44 169.90 224.91 C 168.15 223.29 166.48 221.58 165.07 219.67 Z" />
</g>
<g id="#ff5722ff">
<path fill="#ff5722" opacity="1.00" d=" M 110.38 157.41 C 114.67 156.23 120.21 156.01 123.64 159.31 C 124.22 162.00 120.99 163.07 118.94 163.53 C 115.39 163.77 111.15 164.31 108.28 161.73 C 106.06 160.33 108.63 157.77 110.38 157.41 Z" />
<path fill="#ff5722" opacity="1.00" d=" M 168.76 158.89 C 172.11 156.18 176.96 156.36 180.96 157.23 C 182.94 157.50 184.09 159.18 185.11 160.72 C 181.30 164.10 175.66 164.49 170.98 162.95 C 169.41 162.42 167.30 160.56 168.76 158.89 Z" />
</g>
<g id="#ff5822ff">
<path fill="#ff5822" opacity="1.00" d=" M 142.67 163.76 C 144.72 163.32 146.77 162.86 148.84 162.49 C 150.11 163.15 151.21 164.06 152.40 164.85 C 149.52 166.80 146.06 167.74 142.66 166.62 C 142.66 165.90 142.67 164.47 142.67 163.76 Z" />
</g>
<g id="#ffdd91ff">
<path fill="#ffdd91" opacity="1.00" d=" M 92.30 164.90 C 97.89 174.95 102.60 185.47 108.08 195.58 C 107.09 196.06 106.10 196.53 105.11 197.01 C 101.89 190.57 98.66 184.12 95.37 177.71 C 93.41 174.54 93.87 170.63 92.37 167.27 C 92.35 166.68 92.31 165.49 92.30 164.90 Z" />
</g>
<g id="#c73a1dff">
<path fill="#c73a1d" opacity="1.00" d=" M 182.36 180.39 C 187.04 177.97 193.18 183.09 191.28 188.10 C 190.19 192.87 183.54 194.24 180.39 190.71 C 177.66 187.59 178.47 182.14 182.36 180.39 Z" />
<path fill="#c73a1d" opacity="1.00" d=" M 163.08 198.56 C 165.65 196.01 167.99 192.18 172.06 192.20 C 176.45 191.69 180.29 195.75 180.31 200.01 C 180.81 204.91 175.69 208.94 171.04 208.11 C 167.28 207.72 165.44 203.96 163.11 201.48 C 163.08 200.51 163.07 199.53 163.08 198.56 Z" />
<path fill="#c73a1d" opacity="1.00" d=" M 111.03 207.07 C 113.31 204.63 116.51 202.74 119.97 203.79 C 125.49 204.38 127.95 211.59 124.83 215.85 C 123.28 218.54 120.02 219.05 117.32 219.91 C 115.37 215.56 113.13 211.35 111.03 207.07 Z" />
<path fill="#c73a1d" opacity="1.00" d=" M 128.39 220.39 C 132.32 218.75 137.12 221.42 137.49 225.75 C 138.35 230.98 131.49 234.91 127.36 231.64 C 123.29 229.05 124.06 222.30 128.39 220.39 Z" />
</g>
<g id="#de4427ff">
<path fill="#de4427" opacity="1.00" d=" M 106.89 200.01 C 109.31 199.03 111.78 198.15 114.38 197.74 L 113.56 198.82 C 111.58 199.94 109.43 200.75 107.33 201.61 C 107.22 201.21 107.00 200.41 106.89 200.01 Z" />
</g>
<g id="#dd991cff">
<path fill="#dd991c" opacity="1.00" d=" M 147.67 272.98 C 151.48 265.08 154.67 256.88 158.96 249.22 C 159.58 250.18 160.18 251.17 160.74 252.19 C 159.50 255.60 157.53 258.69 155.99 261.97 C 153.81 266.05 152.15 270.44 149.37 274.16 C 148.94 273.87 148.09 273.27 147.67 272.98 Z" />
</g>
<g id="#f8d68bff">
<path fill="#f8d68b" opacity="1.00" d=" M 141.17 261.68 C 143.48 265.36 144.95 269.55 147.67 272.98 C 148.09 273.27 148.94 273.87 149.37 274.16 C 147.69 274.18 145.77 274.94 144.35 273.65 C 141.37 271.37 142.07 267.24 140.64 264.13 C 140.77 263.52 141.04 262.29 141.17 261.68 Z" />
</g>
</svg>
