<?xml version="1.0" encoding="UTF-8" ?>
<!DOCTYPE svg PUBLIC "-//W3C//DTD SVG 1.1//EN" "http://www.w3.org/Graphics/SVG/1.1/DTD/svg11.dtd">
<svg width="324pt" height="231pt" viewBox="0 0 324 231" version="1.1" xmlns="http://www.w3.org/2000/svg">
<g id="#ca8a1aff">
<path fill="#ca8a1a" opacity="1.00" d=" M 193.00 12.31 C 196.04 11.49 198.86 9.96 201.96 9.40 C 211.93 8.24 221.73 15.53 224.62 24.93 C 226.33 28.95 225.14 33.36 225.48 37.46 C 232.71 46.83 240.00 56.21 247.44 65.39 C 252.82 67.51 258.81 69.64 261.67 75.14 C 263.54 78.12 262.23 81.67 262.57 84.90 C 271.18 96.13 280.11 107.13 288.69 118.39 C 290.43 121.14 294.18 121.30 296.11 123.91 C 298.96 126.33 299.39 130.13 300.61 133.41 C 304.08 138.22 307.88 142.78 311.46 147.51 C 315.20 152.51 314.95 160.02 310.93 164.78 C 309.04 167.39 306.04 168.84 303.08 169.89 C 300.70 172.46 297.38 173.69 294.15 174.82 C 297.52 171.81 302.35 170.93 305.28 167.37 C 309.55 162.36 309.61 154.56 305.70 149.33 C 302.56 145.16 299.21 141.15 296.07 136.99 C 293.90 134.11 293.96 130.17 291.72 127.33 C 289.53 124.06 285.12 123.44 282.89 120.22 C 274.75 109.67 266.52 99.19 258.26 88.74 C 255.51 85.90 258.74 81.70 256.72 78.47 C 254.27 72.04 247.35 69.95 241.72 67.34 C 234.44 58.51 227.61 49.30 220.45 40.37 C 219.22 39.13 219.88 37.36 219.98 35.86 C 221.99 22.36 208.01 8.43 194.45 12.17 C 189.94 13.06 186.64 16.42 183.22 19.20 C 185.99 16.33 189.03 13.38 193.00 12.31 Z" />
<path fill="#ca8a1a" opacity="1.00" d=" M 154.83 176.67 C 155.35 176.55 156.39 176.33 156.91 176.21 C 156.44 177.27 155.96 178.33 155.51 179.40 C 153.37 180.23 151.30 181.24 149.14 182.01 C 151.22 180.43 153.09 178.60 154.83 176.67 Z" />
</g>
<g id="#ffffffff">
<path fill="#ffffff" opacity="1.00" d=" M 194.45 12.17 C 208.01 8.43 221.99 22.36 219.98 35.86 C 219.88 37.36 219.22 39.13 220.45 40.37 C 227.61 49.30 234.44 58.51 241.72 67.34 C 247.35 69.95 254.27 72.04 256.72 78.47 C 258.74 81.70 255.51 85.90 258.26 88.74 C 266.52 99.19 274.75 109.67 282.89 120.22 C 285.12 123.44 289.53 124.06 291.72 127.33 C 293.96 130.17 293.90 134.11 296.07 136.99 C 299.21 141.15 302.56 145.16 305.70 149.33 C 309.61 154.56 309.55 162.36 305.28 167.37 C 302.35 170.93 297.52 171.81 294.15 174.82 L 293.69 175.19 C 298.77 182.36 299.43 191.61 297.98 200.05 C 295.38 208.87 289.42 216.87 281.18 221.16 C 274.43 225.20 266.12 225.55 258.55 224.18 C 249.76 221.57 241.67 215.89 237.42 207.60 C 233.66 201.40 233.68 193.79 234.30 186.80 C 234.65 182.17 236.86 178.00 239.25 174.12 C 230.36 174.71 221.45 174.43 212.55 174.77 C 217.74 182.16 217.50 191.57 216.63 200.15 C 214.45 211.31 205.17 219.79 194.89 223.79 C 188.77 225.13 182.29 225.36 176.18 223.82 C 170.40 221.38 164.35 218.59 160.55 213.38 C 152.36 204.38 151.00 190.42 155.51 179.40 C 155.96 178.33 156.44 177.27 156.91 176.21 C 156.39 176.33 155.35 176.55 154.83 176.67 C 153.09 178.60 151.22 180.43 149.14 182.01 C 140.35 187.67 127.59 186.42 120.57 178.53 C 117.79 175.66 116.88 171.69 115.87 167.97 C 116.47 164.34 116.37 160.66 116.53 157.00 C 117.98 138.73 120.96 120.52 126.54 103.02 C 136.56 70.18 158.35 42.28 183.22 19.20 C 186.64 16.42 189.94 13.06 194.45 12.17 M 190.66 21.54 C 168.72 41.52 148.95 64.85 137.48 92.49 C 133.79 101.35 131.16 110.59 128.83 119.88 C 125.76 133.39 123.98 147.18 123.08 160.99 C 122.45 165.49 122.37 170.76 125.81 174.22 C 132.74 181.71 147.20 179.67 150.81 169.75 C 154.42 169.66 158.04 169.79 161.64 169.52 C 163.65 168.49 165.23 166.80 167.07 165.51 C 168.40 165.01 169.32 163.90 170.13 162.79 C 173.07 162.85 175.59 161.04 178.45 160.66 C 184.97 159.24 191.58 160.42 197.91 162.08 C 199.15 162.90 200.31 163.95 201.75 164.38 C 204.24 165.54 205.98 168.67 209.00 168.32 C 219.71 168.42 230.38 167.29 241.10 167.60 C 245.40 168.28 248.48 164.89 251.92 162.97 C 255.76 161.42 259.79 160.47 263.90 159.95 C 263.74 158.28 263.57 156.61 263.45 154.94 C 261.74 152.50 260.03 150.06 258.16 147.74 C 255.91 146.22 253.54 144.91 251.31 143.37 C 247.54 143.36 243.65 142.61 239.95 143.52 C 244.02 141.67 249.23 142.00 253.33 143.70 C 257.89 145.89 261.34 149.73 263.80 154.09 C 264.57 155.82 264.55 157.72 264.54 159.58 C 265.94 159.80 267.34 159.96 268.76 160.06 L 267.90 160.26 C 274.93 159.91 281.36 163.16 286.63 167.55 L 286.37 167.07 C 287.50 168.19 288.75 169.16 290.13 169.98 C 291.29 168.79 292.33 167.49 293.03 165.97 C 295.08 165.66 297.46 165.85 298.99 164.16 C 302.43 161.64 302.71 156.11 300.02 152.96 C 295.93 147.67 291.74 142.46 287.67 137.16 C 288.61 132.61 285.07 129.07 280.85 128.27 C 269.85 114.69 259.32 100.69 248.38 87.05 C 249.79 85.35 251.63 83.05 250.32 80.75 C 247.96 75.92 242.07 75.41 237.82 73.31 C 228.86 62.37 220.51 50.93 211.50 40.03 C 217.85 30.55 207.71 16.67 196.88 18.32 C 194.47 18.52 192.47 20.06 190.66 21.54 M 179.44 164.53 C 165.69 167.12 155.39 181.01 156.87 194.92 C 157.98 208.88 170.72 221.26 184.97 220.57 C 199.69 221.54 213.14 208.55 213.61 193.98 C 214.38 183.36 208.46 172.67 199.12 167.57 C 193.23 164.16 186.08 163.25 179.44 164.53 M 260.35 164.54 C 249.39 166.70 240.25 175.92 238.25 186.93 C 235.83 198.07 241.17 210.19 250.75 216.25 C 262.61 224.15 280.29 221.23 288.69 209.59 C 297.10 199.09 296.24 182.68 286.92 173.01 C 280.33 165.68 269.93 162.74 260.35 164.54 Z" />
<path fill="#ffffff" opacity="1.00" d=" M 192.28 87.66 C 193.71 87.25 195.31 86.12 196.68 87.33 C 198.55 88.50 198.29 92.09 196.01 92.72 C 194.85 92.68 193.70 92.59 192.56 92.46 C 192.24 90.87 192.16 89.26 192.28 87.66 Z" />
<path fill="#ffffff" opacity="1.00" d=" M 234.67 91.13 C 234.92 90.86 235.44 90.31 235.69 90.04 C 228.89 99.59 232.71 114.77 243.85 119.10 C 244.54 119.42 245.25 119.72 245.96 120.01 C 249.84 121.34 253.97 120.69 257.96 120.42 C 254.97 120.87 251.97 121.39 248.94 121.23 C 241.54 120.30 234.87 114.93 232.60 107.78 C 230.48 102.29 231.59 96.04 234.67 91.13 Z" />
<path fill="#ffffff" opacity="1.00" d=" M 176.16 124.11 C 179.05 121.95 182.80 127.41 179.49 129.21 C 176.10 132.23 171.95 125.86 176.16 124.11 Z" />
<path fill="#ffffff" opacity="1.00" d=" M 225.33 163.73 C 225.37 161.76 225.39 159.79 225.41 157.82 C 225.84 159.63 225.34 161.98 226.96 163.29 C 228.18 163.36 229.40 163.35 230.62 163.27 L 231.58 163.20 C 236.49 163.26 241.39 163.23 246.30 163.52 C 239.31 163.59 232.32 163.47 225.33 163.73 Z" />
<path fill="#ffffff" opacity="1.00" d=" M 180.47 174.58 C 185.17 173.57 190.35 173.93 194.49 176.54 C 202.90 181.15 206.11 192.92 201.24 201.18 C 196.95 209.29 186.19 213.04 177.84 209.12 C 169.18 205.54 164.36 194.63 168.04 185.92 C 170.00 180.40 174.85 176.10 180.47 174.58 M 179.75 177.96 C 181.07 181.14 182.80 184.13 184.99 186.79 C 187.28 184.40 188.94 181.53 190.79 178.81 C 188.03 175.69 183.11 176.07 179.75 177.96 M 176.22 177.86 C 179.05 180.86 179.54 185.33 182.89 187.89 C 181.39 185.07 179.70 182.35 178.37 179.44 C 177.97 178.52 177.25 178.00 176.22 177.86 M 174.36 181.43 C 171.97 183.32 168.81 187.11 170.89 190.13 C 173.59 190.36 176.31 190.38 179.01 190.16 C 181.05 188.79 178.91 186.32 178.33 184.70 C 177.47 183.25 176.65 180.01 174.36 181.43 M 194.02 180.92 C 192.84 183.77 190.57 186.32 190.39 189.47 C 193.60 190.74 197.47 190.54 200.67 189.27 C 199.79 185.83 198.19 181.23 194.02 180.92 M 189.20 184.26 C 188.31 184.94 186.98 186.54 188.00 187.61 C 189.45 188.06 190.65 184.49 189.20 184.26 M 181.43 192.96 C 181.69 194.83 183.58 195.64 184.97 196.56 C 187.33 195.95 188.84 194.28 189.51 191.99 C 188.44 190.49 187.33 188.17 185.11 188.50 C 182.89 188.41 180.94 190.78 181.43 192.96 M 200.61 193.50 C 202.64 194.51 202.74 191.48 201.64 190.56 C 200.19 190.08 198.05 193.28 200.61 193.50 M 168.99 191.62 C 168.60 193.05 169.08 193.54 170.44 193.07 C 170.81 191.67 170.32 191.18 168.99 191.62 M 174.23 192.33 C 174.92 193.66 177.64 193.29 178.90 192.71 C 178.37 191.22 175.47 191.76 174.23 192.33 M 191.14 192.76 C 192.84 193.53 194.92 192.76 196.71 192.55 C 195.98 191.31 191.60 191.11 191.14 192.76 M 171.38 194.43 L 170.66 194.48 C 169.37 197.93 171.95 202.18 175.05 203.78 C 177.81 202.43 178.73 198.68 180.21 196.09 C 178.37 193.34 174.22 194.91 171.38 194.43 M 194.45 203.62 C 194.82 203.64 195.56 203.68 195.93 203.70 C 198.54 201.72 200.74 198.08 199.99 194.81 C 196.98 193.96 193.77 194.85 190.69 194.78 C 189.82 198.16 192.88 200.91 194.45 203.62 M 178.15 203.66 C 177.93 205.28 176.20 205.33 174.97 205.54 C 175.63 205.80 176.94 206.33 177.60 206.60 C 178.65 203.72 180.34 201.05 182.33 198.73 C 182.35 198.19 182.40 197.12 182.42 196.58 C 181.29 199.12 179.29 201.15 178.15 203.66 M 187.44 196.62 C 188.10 199.27 189.95 201.26 191.62 203.33 C 191.55 203.85 191.42 204.87 191.36 205.39 L 192.68 205.10 L 191.85 207.18 C 192.92 206.64 194.00 206.12 195.09 205.62 C 194.55 205.45 193.48 205.13 192.94 204.97 C 191.06 202.22 189.90 198.95 187.44 196.62 M 180.04 206.05 C 182.16 209.56 187.93 208.36 190.83 206.17 C 189.10 203.31 187.42 200.37 185.08 197.96 C 182.84 200.25 181.27 203.12 180.04 206.05 Z" />
<path fill="#ffffff" opacity="1.00" d=" M 261.43 174.57 C 270.95 171.74 281.77 178.33 283.90 187.97 C 286.86 198.31 278.53 209.86 267.85 210.57 C 259.14 211.64 250.46 205.44 248.34 197.00 C 245.48 187.59 251.94 176.84 261.43 174.57 M 258.22 177.38 C 256.80 177.38 256.98 179.71 258.31 179.76 C 259.87 179.89 259.61 177.33 258.22 177.38 M 261.10 178.07 C 261.50 181.41 263.94 184.18 265.94 186.78 C 268.13 184.35 269.84 181.56 271.67 178.86 C 269.21 175.95 263.87 175.62 261.10 178.07 M 273.60 177.45 C 273.19 181.41 269.04 184.09 269.30 188.08 C 269.98 186.54 270.63 184.98 271.40 183.48 C 272.93 182.08 273.38 179.93 274.77 178.41 C 274.37 178.08 273.98 177.76 273.60 177.45 M 255.35 181.32 C 253.49 182.75 251.82 184.69 251.29 187.03 C 250.83 188.26 251.04 190.66 252.95 190.24 C 255.31 190.33 257.68 190.36 260.04 190.14 C 261.89 188.69 259.86 186.41 259.26 184.81 C 258.30 183.39 257.69 180.19 255.35 181.32 M 275.18 181.09 C 273.45 183.55 271.42 186.45 271.33 189.55 C 274.37 190.33 278.64 191.14 281.23 189.07 C 280.93 185.83 278.94 181.19 275.18 181.09 M 260.07 181.85 C 260.96 184.03 261.73 186.42 263.51 188.06 C 262.64 185.85 261.55 183.71 260.07 181.85 M 264.13 189.05 C 261.55 190.37 261.70 194.58 264.37 195.69 C 266.73 197.38 270.45 194.80 269.89 191.97 C 269.85 189.27 266.29 187.41 264.13 189.05 M 249.98 191.56 C 249.57 192.93 250.06 193.43 251.46 193.06 C 251.85 191.70 251.35 191.20 249.98 191.56 M 281.31 191.23 C 278.88 191.93 281.38 194.60 282.91 193.49 C 282.86 192.97 282.78 191.92 282.74 191.40 C 282.38 191.36 281.67 191.27 281.31 191.23 M 255.29 192.55 C 255.82 193.29 256.72 193.51 257.99 193.20 C 258.57 193.32 261.77 192.67 260.07 191.86 C 258.47 191.66 256.69 191.70 255.29 192.55 M 272.82 193.12 C 274.44 193.21 276.14 192.96 277.69 192.48 C 277.12 191.76 276.20 191.52 274.94 191.78 C 274.16 191.41 270.71 192.24 272.82 193.12 M 251.31 194.40 C 250.75 197.99 252.76 203.40 256.75 203.66 C 258.31 200.90 261.44 198.15 260.50 194.72 C 257.44 194.59 254.38 194.42 251.31 194.40 M 274.91 203.08 C 276.61 205.10 278.70 202.08 279.60 200.63 C 280.35 198.72 282.32 196.04 280.17 194.43 C 277.34 194.41 274.52 194.68 271.70 194.74 C 270.41 197.88 273.64 200.45 274.91 203.08 M 260.03 203.04 C 260.30 202.55 260.83 201.57 261.10 201.07 C 261.99 199.71 263.00 198.42 264.07 197.19 C 261.23 197.33 261.17 201.08 260.03 203.04 M 268.34 197.27 C 268.38 197.57 268.46 198.16 268.50 198.45 C 270.30 201.11 274.50 203.88 272.72 207.43 C 273.81 206.74 274.93 206.09 276.07 205.48 C 272.07 204.90 271.86 199.18 268.34 197.27 M 261.14 205.98 C 260.76 207.61 262.96 207.61 263.95 208.00 C 266.47 208.52 269.47 208.06 271.38 206.23 C 270.52 203.08 267.99 200.52 266.02 197.95 C 263.85 200.20 261.98 202.97 261.14 205.98 M 258.30 204.41 C 256.83 204.24 255.28 206.32 257.43 206.76 C 259.24 208.12 260.35 204.47 258.30 204.41 Z" />
</g>
<g id="#4a1e0aff">
<path fill="#4a1e0a" opacity="1.00" d=" M 190.66 21.54 C 192.47 20.06 194.47 18.52 196.88 18.32 C 207.71 16.67 217.85 30.55 211.50 40.03 C 220.51 50.93 228.86 62.37 237.82 73.31 C 242.07 75.41 247.96 75.92 250.32 80.75 C 251.63 83.05 249.79 85.35 248.38 87.05 C 259.32 100.69 269.85 114.69 280.85 128.27 C 285.07 129.07 288.61 132.61 287.67 137.16 C 291.74 142.46 295.93 147.67 300.02 152.96 C 302.71 156.11 302.43 161.64 298.99 164.16 C 297.46 165.85 295.08 165.66 293.03 165.97 C 292.33 167.49 291.29 168.79 290.13 169.98 C 288.75 169.16 287.50 168.19 286.37 167.07 L 285.89 166.20 C 286.77 166.24 288.52 166.31 289.40 166.34 C 289.57 166.07 289.91 165.52 290.09 165.25 C 289.94 163.42 288.56 162.19 287.36 160.99 C 290.11 161.43 292.95 162.10 295.73 161.52 C 297.17 161.07 297.45 159.30 298.11 158.14 C 294.65 151.75 289.44 146.50 285.10 140.71 C 282.85 140.66 280.42 140.68 278.81 138.88 C 279.73 138.76 281.59 138.51 282.52 138.39 C 284.43 137.45 284.89 135.20 283.48 133.57 C 281.02 131.26 277.51 130.35 275.28 127.76 C 272.91 124.99 270.89 121.93 268.34 119.32 C 267.50 120.10 266.64 120.87 265.78 121.63 C 256.29 129.11 241.40 127.42 233.35 118.60 C 227.58 112.47 224.71 103.09 227.46 94.95 C 228.17 92.53 229.27 90.26 230.29 87.96 C 231.26 88.59 232.24 89.21 233.22 89.84 C 234.91 87.37 235.93 83.93 239.00 82.80 C 241.42 82.34 243.59 84.17 246.00 84.15 C 247.12 83.40 247.39 81.65 246.12 80.89 C 242.60 77.55 237.90 75.84 233.39 74.30 C 233.13 73.98 232.62 73.35 232.36 73.03 C 226.34 65.15 220.15 57.39 214.06 49.56 C 212.32 47.30 210.58 45.04 208.82 42.80 C 200.07 49.40 191.98 57.11 185.63 66.07 C 183.18 68.81 180.96 71.74 178.93 74.80 C 184.62 70.77 190.14 66.33 196.62 63.59 C 201.28 61.61 205.44 58.63 208.97 55.01 C 210.01 54.03 211.07 53.07 212.10 52.07 C 211.37 53.16 210.68 54.28 209.92 55.35 C 207.03 58.97 203.44 62.07 199.37 64.31 C 185.50 71.33 173.32 82.27 166.22 96.24 C 162.48 104.12 159.22 112.26 156.87 120.67 C 151.75 135.20 152.99 151.80 160.02 165.50 C 162.36 165.60 164.72 165.66 167.07 165.51 C 165.23 166.80 163.65 168.49 161.64 169.52 C 158.04 169.79 154.42 169.66 150.81 169.75 C 147.20 179.67 132.74 181.71 125.81 174.22 C 122.37 170.76 122.45 165.49 123.08 160.99 C 123.98 147.18 125.76 133.39 128.83 119.88 C 131.16 110.59 133.79 101.35 137.48 92.49 C 148.95 64.85 168.72 41.52 190.66 21.54 M 192.26 25.33 C 186.70 30.60 180.67 35.58 176.12 41.77 C 158.68 59.96 144.38 81.68 136.83 105.87 C 131.62 122.82 128.54 140.40 127.30 158.07 C 127.46 162.70 125.29 168.22 129.03 171.98 C 132.77 174.69 138.01 175.33 142.30 173.55 C 147.96 171.62 146.68 164.69 146.67 160.03 C 147.34 129.81 157.10 99.94 173.91 74.85 C 182.68 61.94 192.98 49.91 205.40 40.38 C 207.13 38.92 209.16 37.35 209.46 34.93 C 210.22 29.41 205.99 24.24 200.99 22.43 C 197.69 21.47 194.49 22.92 192.26 25.33 M 235.69 90.04 C 235.44 90.31 234.92 90.86 234.67 91.13 C 233.17 91.08 231.64 91.40 231.37 93.09 C 229.82 97.21 229.07 101.75 230.17 106.08 C 232.12 115.95 241.80 123.81 251.98 122.85 C 257.47 123.08 262.45 120.36 266.56 116.95 C 261.57 109.54 255.27 103.13 250.24 95.74 C 247.02 92.39 245.11 86.88 240.02 86.07 C 237.72 85.96 236.85 88.52 235.69 90.04 M 151.61 144.15 C 151.29 150.51 150.43 156.84 150.63 163.23 C 150.66 163.84 150.74 165.07 150.78 165.68 C 153.83 165.88 156.88 165.73 159.93 165.67 C 159.49 165.06 158.61 163.85 158.18 163.24 C 154.60 157.38 153.24 150.71 151.61 144.15 Z" />
<path fill="#4a1e0a" opacity="1.00" d=" M 181.45 172.60 C 186.59 171.69 192.10 172.65 196.40 175.69 C 203.26 180.20 206.85 189.20 204.68 197.16 C 202.64 205.99 194.05 212.58 185.02 212.43 C 174.69 212.49 165.14 203.47 165.20 193.04 C 164.50 183.41 171.98 174.19 181.45 172.60 M 180.47 174.58 C 174.85 176.10 170.00 180.40 168.04 185.92 C 164.36 194.63 169.18 205.54 177.84 209.12 C 186.19 213.04 196.95 209.29 201.24 201.18 C 206.11 192.92 202.90 181.15 194.49 176.54 C 190.35 173.93 185.17 173.57 180.47 174.58 Z" />
<path fill="#4a1e0a" opacity="1.00" d=" M 262.40 172.59 C 267.54 171.69 273.04 172.68 277.34 175.72 C 284.75 180.55 288.11 190.65 285.01 198.95 C 282.09 207.89 272.24 213.81 262.97 212.16 C 253.76 210.84 246.06 202.42 246.11 193.02 C 245.40 183.36 252.91 174.15 262.40 172.59 M 261.43 174.57 C 251.94 176.84 245.48 187.59 248.34 197.00 C 250.46 205.44 259.14 211.64 267.85 210.57 C 278.53 209.86 286.86 198.31 283.90 187.97 C 281.77 178.33 270.95 171.74 261.43 174.57 Z" />
<path fill="#4a1e0a" opacity="1.00" d=" M 179.75 177.96 C 183.11 176.07 188.03 175.69 190.79 178.81 C 188.94 181.53 187.28 184.40 184.99 186.79 C 182.80 184.13 181.07 181.14 179.75 177.96 M 182.05 178.36 C 182.79 180.38 183.79 182.30 185.01 184.08 C 186.10 182.36 188.39 180.72 187.72 178.43 C 185.83 178.26 183.94 178.32 182.05 178.36 Z" />
<path fill="#4a1e0a" opacity="1.00" d=" M 261.10 178.07 C 263.87 175.62 269.21 175.95 271.67 178.86 C 269.84 181.56 268.13 184.35 265.94 186.78 C 263.94 184.18 261.50 181.41 261.10 178.07 M 263.02 178.32 C 263.58 180.44 264.71 182.32 265.98 184.09 C 266.89 182.30 269.30 180.70 268.67 178.47 C 266.79 178.27 264.90 178.31 263.02 178.32 Z" />
<path fill="#4a1e0a" opacity="1.00" d=" M 174.36 181.43 C 176.65 180.01 177.47 183.25 178.33 184.70 C 178.91 186.32 181.05 188.79 179.01 190.16 C 176.31 190.38 173.59 190.36 170.89 190.13 C 168.81 187.11 171.97 183.32 174.36 181.43 M 172.05 188.54 C 174.02 188.52 175.98 188.51 177.95 188.49 C 177.23 186.57 176.41 184.68 175.47 182.87 C 173.46 184.09 172.25 186.21 172.05 188.54 Z" />
<path fill="#4a1e0a" opacity="1.00" d=" M 194.02 180.92 C 198.19 181.23 199.79 185.83 200.67 189.27 C 197.47 190.54 193.60 190.74 190.39 189.47 C 190.57 186.32 192.84 183.77 194.02 180.92 M 195.08 182.75 C 194.07 184.62 193.09 186.51 192.20 188.45 C 194.32 188.42 196.45 188.39 198.57 188.33 C 198.08 186.08 196.75 184.26 195.08 182.75 Z" />
<path fill="#4a1e0a" opacity="1.00" d=" M 255.35 181.32 C 257.69 180.19 258.30 183.39 259.26 184.81 C 259.86 186.41 261.89 188.69 260.04 190.14 C 257.68 190.36 255.31 190.33 252.95 190.24 C 251.04 190.66 250.83 188.26 251.29 187.03 C 251.82 184.69 253.49 182.75 255.35 181.32 M 253.02 188.52 C 254.98 188.51 256.94 188.50 258.90 188.49 C 257.96 186.79 257.69 184.16 255.99 183.20 C 254.02 184.12 253.20 186.47 253.02 188.52 Z" />
<path fill="#4a1e0a" opacity="1.00" d=" M 275.18 181.09 C 278.94 181.19 280.93 185.83 281.23 189.07 C 278.64 191.14 274.37 190.33 271.33 189.55 C 271.42 186.45 273.45 183.55 275.18 181.09 M 275.58 183.27 C 274.64 184.94 273.92 186.71 273.20 188.48 C 275.29 188.43 277.39 188.38 279.48 188.29 C 278.57 186.57 278.07 183.05 275.58 183.27 Z" />
<path fill="#4a1e0a" opacity="1.00" d=" M 171.38 194.43 C 174.22 194.91 178.37 193.34 180.21 196.09 C 178.73 198.68 177.81 202.43 175.05 203.78 C 171.95 202.18 169.37 197.93 170.66 194.48 L 171.38 194.43 M 171.90 196.20 C 172.37 198.37 173.39 200.36 174.94 201.98 C 176.13 200.20 177.16 198.33 178.05 196.39 C 176.00 196.30 173.95 196.24 171.90 196.20 Z" />
<path fill="#4a1e0a" opacity="1.00" d=" M 251.31 194.40 C 254.38 194.42 257.44 194.59 260.50 194.72 C 261.44 198.15 258.31 200.90 256.75 203.66 C 252.76 203.40 250.75 197.99 251.31 194.40 M 252.89 196.18 C 253.24 198.41 254.23 200.44 255.94 201.94 C 257.01 200.13 258.06 198.30 259.02 196.42 C 256.97 196.32 254.93 196.24 252.89 196.18 Z" />
<path fill="#4a1e0a" opacity="1.00" d=" M 194.45 203.62 C 192.88 200.91 189.82 198.16 190.69 194.78 C 193.77 194.85 196.98 193.96 199.99 194.81 C 200.74 198.08 198.54 201.72 195.93 203.70 C 195.56 203.68 194.82 203.64 194.45 203.62 M 192.20 196.60 C 193.20 198.48 194.31 200.32 195.58 202.04 C 196.78 200.30 197.84 198.46 198.76 196.55 C 196.58 196.16 194.37 196.31 192.20 196.60 Z" />
<path fill="#4a1e0a" opacity="1.00" d=" M 274.91 203.08 C 273.64 200.45 270.41 197.88 271.70 194.74 C 274.52 194.68 277.34 194.41 280.17 194.43 C 282.32 196.04 280.35 198.72 279.60 200.63 C 278.70 202.08 276.61 205.10 274.91 203.08 M 273.10 196.45 C 274.02 198.45 275.16 200.34 276.63 201.99 C 277.87 200.24 278.87 198.34 279.28 196.22 C 277.21 196.28 275.15 196.36 273.10 196.45 Z" />
<path fill="#4a1e0a" opacity="1.00" d=" M 180.04 206.05 C 181.27 203.12 182.84 200.25 185.08 197.96 C 187.42 200.37 189.10 203.31 190.83 206.17 C 187.93 208.36 182.16 209.56 180.04 206.05 M 184.49 201.29 C 183.50 202.80 182.75 204.46 181.99 206.10 C 183.94 206.31 186.02 206.78 187.90 205.91 C 187.79 204.19 186.54 200.95 184.49 201.29 Z" />
<path fill="#4a1e0a" opacity="1.00" d=" M 261.14 205.98 C 261.98 202.97 263.85 200.20 266.02 197.95 C 267.99 200.52 270.52 203.08 271.38 206.23 C 269.47 208.06 266.47 208.52 263.95 208.00 C 262.96 207.61 260.76 207.61 261.14 205.98 M 262.85 206.14 C 264.98 206.40 267.12 206.35 269.24 205.98 C 268.45 204.34 267.71 202.64 266.53 201.25 C 264.20 201.09 264.03 204.62 262.85 206.14 Z" />
</g>
<g id="#c76923ff">
<path fill="#c76923" opacity="1.00" d=" M 192.26 25.33 C 194.49 22.92 197.69 21.47 200.99 22.43 C 205.99 24.24 210.22 29.41 209.46 34.93 C 209.16 37.35 207.13 38.92 205.40 40.38 C 192.98 49.91 182.68 61.94 173.91 74.85 C 157.10 99.94 147.34 129.81 146.67 160.03 C 146.68 164.69 147.96 171.62 142.30 173.55 C 139.94 173.64 137.54 173.59 135.28 172.87 C 137.35 171.17 140.64 170.06 141.04 167.02 C 141.80 161.70 140.97 156.30 141.35 150.95 C 144.33 115.06 159.26 80.13 183.72 53.62 C 189.28 48.28 195.38 42.15 195.90 33.98 C 196.38 30.59 194.32 27.75 192.26 25.33 Z" />
</g>
<g id="#fb872dff">
<path fill="#fb872d" opacity="1.00" d=" M 176.12 41.77 C 180.67 35.58 186.70 30.60 192.26 25.33 C 194.32 27.75 196.38 30.59 195.90 33.98 C 195.38 42.15 189.28 48.28 183.72 53.62 C 159.26 80.13 144.33 115.06 141.35 150.95 C 140.97 156.30 141.80 161.70 141.04 167.02 C 140.64 170.06 137.35 171.17 135.28 172.87 C 132.62 171.34 129.52 169.39 129.37 165.97 C 129.05 160.28 129.83 154.60 130.27 148.94 C 130.46 144.38 133.66 140.70 134.32 136.24 C 135.64 130.87 133.37 125.32 134.90 119.98 C 139.25 101.34 146.21 83.13 157.07 67.27 C 162.51 58.11 170.14 50.52 176.12 41.77 Z" />
<path fill="#fb872d" opacity="1.00" d=" M 65.10 109.21 C 76.04 108.83 87.01 109.20 97.96 109.03 C 99.82 109.20 102.32 108.52 103.53 110.40 C 104.87 112.21 103.27 115.11 101.02 114.88 C 89.34 114.98 77.65 114.99 65.97 114.88 C 62.62 115.28 61.90 109.81 65.10 109.21 Z" />
<path fill="#fb872d" opacity="1.00" d=" M 45.19 135.23 C 62.77 134.81 80.39 135.21 97.98 135.03 C 99.82 135.24 102.36 134.52 103.52 136.41 C 104.80 138.21 103.29 141.15 101.01 140.89 C 83.33 141.03 65.65 140.88 47.97 140.96 C 46.62 140.81 44.93 141.24 43.90 140.09 C 42.24 138.73 43.04 135.51 45.19 135.23 Z" />
<path fill="#fb872d" opacity="1.00" d=" M 18.02 162.21 C 44.66 161.83 71.33 162.20 97.98 162.02 C 99.86 162.20 102.44 161.49 103.59 163.46 C 104.78 165.31 103.24 168.17 100.96 167.89 C 74.32 168.04 47.67 167.88 21.02 167.97 C 19.49 167.84 17.41 168.26 16.52 166.63 C 15.39 165.14 16.21 162.67 18.02 162.21 Z" />
<path fill="#fb872d" opacity="1.00" d=" M 178.40 166.49 C 184.72 165.16 191.66 165.47 197.44 168.59 C 206.68 173.24 212.65 183.64 211.81 193.98 C 211.35 207.60 198.74 219.67 184.99 218.85 C 172.06 219.40 160.27 208.66 158.74 195.97 C 156.67 183.01 165.67 169.57 178.40 166.49 M 181.45 172.60 C 171.98 174.19 164.50 183.41 165.20 193.04 C 165.14 203.47 174.69 212.49 185.02 212.43 C 194.05 212.58 202.64 205.99 204.68 197.16 C 206.85 189.20 203.26 180.20 196.40 175.69 C 192.10 172.65 186.59 171.69 181.45 172.60 Z" />
<path fill="#fb872d" opacity="1.00" d=" M 259.33 166.46 C 266.14 165.00 273.67 165.58 279.69 169.33 C 288.51 174.44 293.84 184.91 292.66 195.06 C 291.58 208.25 279.32 219.60 265.96 218.86 C 252.31 219.51 240.00 207.56 239.42 194.06 C 238.38 181.65 247.24 169.41 259.33 166.46 M 262.40 172.59 C 252.91 174.15 245.40 183.36 246.11 193.02 C 246.06 202.42 253.76 210.84 262.97 212.16 C 272.24 213.81 282.09 207.89 285.01 198.95 C 288.11 190.65 284.75 180.55 277.34 175.72 C 273.04 172.68 267.54 171.69 262.40 172.59 Z" />
</g>
<g id="#fdc69cff">
<path fill="#fdc69c" opacity="1.00" d=" M 136.83 105.87 C 144.38 81.68 158.68 59.96 176.12 41.77 C 170.14 50.52 162.51 58.11 157.07 67.27 C 146.21 83.13 139.25 101.34 134.90 119.98 C 133.37 125.32 135.64 130.87 134.32 136.24 C 133.66 140.70 130.46 144.38 130.27 148.94 C 129.83 154.60 129.05 160.28 129.37 165.97 C 129.52 169.39 132.62 171.34 135.28 172.87 C 137.54 173.59 139.94 173.64 142.30 173.55 C 138.01 175.33 132.77 174.69 129.03 171.98 C 125.29 168.22 127.46 162.70 127.30 158.07 C 128.54 140.40 131.62 122.82 136.83 105.87 Z" />
<path fill="#fdc69c" opacity="1.00" d=" M 207.34 123.86 C 207.36 121.92 207.51 119.97 208.01 118.08 C 208.19 119.87 208.45 121.65 208.64 123.45 C 208.31 123.55 207.66 123.76 207.34 123.86 Z" />
</g>
<g id="#d93d1fff">
<path fill="#d93d1f" opacity="1.00" d=" M 185.63 66.07 C 191.98 57.11 200.07 49.40 208.82 42.80 C 210.58 45.04 212.32 47.30 214.06 49.56 C 213.40 50.40 212.75 51.23 212.10 52.07 C 211.07 53.07 210.01 54.03 208.97 55.01 C 205.67 54.03 201.83 53.79 198.99 56.08 C 194.59 59.48 191.10 64.25 185.63 66.07 Z" />
</g>
<g id="#dc991cff">
<path fill="#dc991c" opacity="1.00" d=" M 212.10 52.07 C 212.75 51.23 213.40 50.40 214.06 49.56 C 220.15 57.39 226.34 65.15 232.36 73.03 C 230.24 73.64 227.28 75.91 225.54 73.43 C 220.29 67.44 215.62 60.94 209.92 55.35 C 210.68 54.28 211.37 53.16 212.10 52.07 Z" />
<path fill="#dc991c" opacity="1.00" d=" M 265.78 121.63 C 266.64 120.87 267.50 120.10 268.34 119.32 C 270.89 121.93 272.91 124.99 275.28 127.76 C 277.51 130.35 281.02 131.26 283.48 133.57 C 284.89 135.20 284.43 137.45 282.52 138.39 C 282.28 137.00 281.97 135.62 281.61 134.25 C 279.14 132.30 276.05 131.36 273.45 129.61 C 270.27 127.62 268.08 124.51 265.78 121.63 Z" />
</g>
<g id="#fc4424ff">
<path fill="#fc4424" opacity="1.00" d=" M 198.99 56.08 C 201.83 53.79 205.67 54.03 208.97 55.01 C 205.44 58.63 201.28 61.61 196.62 63.59 C 190.14 66.33 184.62 70.77 178.93 74.80 C 180.96 71.74 183.18 68.81 185.63 66.07 C 191.10 64.25 194.59 59.48 198.99 56.08 Z" />
</g>
<g id="#ffb720ff">
<path fill="#ffb720" opacity="1.00" d=" M 199.37 64.31 C 203.44 62.07 207.03 58.97 209.92 55.35 C 215.62 60.94 220.29 67.44 225.54 73.43 C 227.28 75.91 230.24 73.64 232.36 73.03 C 232.62 73.35 233.13 73.98 233.39 74.30 C 237.90 75.84 242.60 77.55 246.12 80.89 C 247.39 81.65 247.12 83.40 246.00 84.15 C 243.59 84.17 241.42 82.34 239.00 82.80 C 235.93 83.93 234.91 87.37 233.22 89.84 C 232.24 89.21 231.26 88.59 230.29 87.96 C 229.27 90.26 228.17 92.53 227.46 94.95 C 224.71 103.09 227.58 112.47 233.35 118.60 C 241.40 127.42 256.29 129.11 265.78 121.63 C 268.08 124.51 270.27 127.62 273.45 129.61 C 276.05 131.36 279.14 132.30 281.61 134.25 C 281.97 135.62 282.28 137.00 282.52 138.39 C 281.59 138.51 279.73 138.76 278.81 138.88 C 280.42 140.68 282.85 140.66 285.10 140.71 C 289.44 146.50 294.65 151.75 298.11 158.14 C 293.89 159.89 289.28 159.28 284.85 159.60 C 285.68 160.07 286.52 160.53 287.36 160.99 C 288.56 162.19 289.94 163.42 290.09 165.25 C 282.96 164.62 277.25 158.49 269.75 159.94 C 268.48 150.95 262.39 142.87 253.92 139.49 C 250.39 137.93 246.47 138.24 242.71 138.12 C 241.32 136.93 239.83 135.86 238.21 135.02 C 239.02 136.37 239.88 137.68 240.62 139.07 C 239.10 142.33 234.80 142.04 232.37 144.29 C 229.18 147.26 229.07 152.12 226.21 155.34 C 224.21 156.73 222.68 154.56 221.47 153.26 C 221.12 156.01 220.60 158.73 220.39 161.50 C 212.90 161.58 205.38 161.24 197.91 162.08 C 191.58 160.42 184.97 159.24 178.45 160.66 C 175.59 161.04 173.07 162.85 170.13 162.79 C 167.22 162.74 164.31 162.64 161.41 162.59 C 158.84 155.97 156.62 149.11 156.08 141.99 C 155.35 134.88 156.45 127.77 156.87 120.67 C 159.22 112.26 162.48 104.12 166.22 96.24 C 173.32 82.27 185.50 71.33 199.37 64.31 M 209.66 77.06 C 208.14 78.52 206.84 80.18 205.74 81.98 C 203.41 80.43 200.99 78.58 198.02 78.75 C 191.51 78.43 186.14 86.05 188.98 92.02 C 191.29 97.91 199.25 100.19 204.21 96.11 C 204.61 96.56 205.42 97.48 205.82 97.93 C 204.50 90.63 207.79 83.87 209.66 77.06 M 213.46 96.27 C 212.78 97.91 213.86 100.79 215.97 100.04 C 220.21 97.42 222.81 91.61 221.14 86.79 C 216.29 87.01 214.57 92.37 213.46 96.27 M 207.08 106.31 C 205.56 107.43 204.49 108.98 203.75 110.69 C 201.69 115.16 199.52 119.59 197.47 124.06 C 198.43 125.39 199.08 127.55 201.05 127.59 C 204.73 128.06 208.57 126.76 211.31 124.28 C 218.26 120.61 217.35 109.73 211.24 105.68 C 209.83 105.07 208.37 105.75 207.08 106.31 M 175.90 120.55 C 172.60 121.78 169.68 124.46 168.90 128.00 C 167.32 133.70 172.30 139.74 178.06 139.91 C 177.66 141.95 177.35 144.01 177.20 146.10 C 181.01 140.74 183.93 134.47 189.70 130.83 C 191.35 123.42 182.55 116.45 175.90 120.55 M 196.36 135.49 C 193.08 137.47 191.33 141.38 190.72 145.05 C 190.31 146.56 191.36 149.51 193.32 148.38 C 197.09 146.16 199.06 141.38 198.82 137.10 C 199.03 135.73 197.47 134.84 196.36 135.49 Z" />
</g>
<g id="#4f220cff">
<path fill="#4f220c" opacity="1.00" d=" M 209.66 77.06 C 207.79 83.87 204.50 90.63 205.82 97.93 C 205.42 97.48 204.61 96.56 204.21 96.11 C 199.25 100.19 191.29 97.91 188.98 92.02 C 186.14 86.05 191.51 78.43 198.02 78.75 C 200.99 78.58 203.41 80.43 205.74 81.98 C 206.84 80.18 208.14 78.52 209.66 77.06 M 192.28 87.66 C 192.16 89.26 192.24 90.87 192.56 92.46 C 193.70 92.59 194.85 92.68 196.01 92.72 C 198.29 92.09 198.55 88.50 196.68 87.33 C 195.31 86.12 193.71 87.25 192.28 87.66 Z" />
<path fill="#4f220c" opacity="1.00" d=" M 203.75 110.69 C 204.49 108.98 205.56 107.43 207.08 106.31 C 211.25 106.30 213.25 110.55 214.28 113.97 C 215.25 117.70 213.47 121.35 211.31 124.28 C 208.57 126.76 204.73 128.06 201.05 127.59 C 199.08 127.55 198.43 125.39 197.47 124.06 C 199.52 119.59 201.69 115.16 203.75 110.69 M 208.01 118.08 C 207.51 119.97 207.36 121.92 207.34 123.86 C 207.66 123.76 208.31 123.55 208.64 123.45 C 211.86 121.88 213.01 117.91 212.16 114.60 C 210.61 115.54 208.99 116.51 208.01 118.08 Z" />
<path fill="#4f220c" opacity="1.00" d=" M 168.90 128.00 C 169.68 124.46 172.60 121.78 175.90 120.55 C 178.87 120.35 182.13 120.43 184.49 122.49 C 187.38 124.46 187.38 128.41 189.70 130.83 C 183.93 134.47 181.01 140.74 177.20 146.10 C 177.35 144.01 177.66 141.95 178.06 139.91 C 172.30 139.74 167.32 133.70 168.90 128.00 M 176.16 124.11 C 171.95 125.86 176.10 132.23 179.49 129.21 C 182.80 127.41 179.05 121.95 176.16 124.11 Z" />
</g>
<g id="#fb4424ff">
<path fill="#fb4424" opacity="1.00" d=" M 235.69 90.04 C 236.85 88.52 237.72 85.96 240.02 86.07 C 245.11 86.88 247.02 92.39 250.24 95.74 C 255.27 103.13 261.57 109.54 266.56 116.95 C 262.45 120.36 257.47 123.08 251.98 122.85 C 241.80 123.81 232.12 115.95 230.17 106.08 C 229.07 101.75 229.82 97.21 231.37 93.09 C 231.64 91.40 233.17 91.08 234.67 91.13 C 231.59 96.04 230.48 102.29 232.60 107.78 C 234.87 114.93 241.54 120.30 248.94 121.23 C 251.97 121.39 254.97 120.87 257.96 120.42 C 253.97 120.69 249.84 121.34 245.96 120.01 C 248.79 118.73 252.54 118.15 254.08 115.09 C 256.21 111.41 254.20 106.00 249.98 104.96 C 245.57 103.33 240.51 107.49 240.77 112.03 C 241.36 114.55 242.68 116.81 243.85 119.10 C 232.71 114.77 228.89 99.59 235.69 90.04 M 239.28 91.23 C 235.39 92.96 234.65 99.36 238.92 101.08 C 243.04 103.96 249.22 98.69 246.81 94.20 C 245.81 91.21 242.04 89.72 239.28 91.23 Z" />
<path fill="#fb4424" opacity="1.00" d=" M 231.40 151.78 C 232.71 147.67 236.11 145.12 239.95 143.52 C 243.65 142.61 247.54 143.36 251.31 143.37 C 253.54 144.91 255.91 146.22 258.16 147.74 C 260.03 150.06 261.74 152.50 263.45 154.94 C 263.57 156.61 263.74 158.28 263.90 159.95 C 259.79 160.47 255.76 161.42 251.92 162.97 C 250.06 163.30 248.18 163.49 246.30 163.52 C 241.39 163.23 236.49 163.26 231.58 163.20 C 235.15 161.79 239.17 162.97 242.69 161.76 C 245.11 158.98 242.83 154.53 240.01 152.88 C 237.54 151.12 234.55 152.49 231.89 152.89 L 231.40 151.78 M 250.39 149.50 C 246.43 151.64 247.02 158.29 251.30 159.65 C 254.53 161.05 258.71 158.59 258.83 155.05 C 259.62 150.71 254.10 146.93 250.39 149.50 Z" />
</g>
<g id="#ff5622ff">
<path fill="#ff5622" opacity="1.00" d=" M 213.46 96.27 C 214.57 92.37 216.29 87.01 221.14 86.79 C 222.81 91.61 220.21 97.42 215.97 100.04 C 213.86 100.79 212.78 97.91 213.46 96.27 Z" />
</g>
<g id="#c73a1dff">
<path fill="#c73a1d" opacity="1.00" d=" M 239.28 91.23 C 242.04 89.72 245.81 91.21 246.81 94.20 C 249.22 98.69 243.04 103.96 238.92 101.08 C 234.65 99.36 235.39 92.96 239.28 91.23 Z" />
<path fill="#c73a1d" opacity="1.00" d=" M 240.77 112.03 C 240.51 107.49 245.57 103.33 249.98 104.96 C 254.20 106.00 256.21 111.41 254.08 115.09 C 252.54 118.15 248.79 118.73 245.96 120.01 C 245.25 119.72 244.54 119.42 243.85 119.10 C 242.68 116.81 241.36 114.55 240.77 112.03 Z" />
<path fill="#c73a1d" opacity="1.00" d=" M 250.39 149.50 C 254.10 146.93 259.62 150.71 258.83 155.05 C 258.71 158.59 254.53 161.05 251.30 159.65 C 247.02 158.29 246.43 151.64 250.39 149.50 Z" />
<path fill="#c73a1d" opacity="1.00" d=" M 229.31 155.55 C 230.05 154.32 230.74 153.05 231.40 151.78 L 231.89 152.89 C 234.55 152.49 237.54 151.12 240.01 152.88 C 242.83 154.53 245.11 158.98 242.69 161.76 C 239.17 162.97 235.15 161.79 231.58 163.20 L 230.62 163.27 C 230.07 160.72 229.56 158.15 229.31 155.55 Z" />
</g>
<g id="#ffeba2ff">
<path fill="#ffeba2" opacity="1.00" d=" M 207.08 106.31 C 208.37 105.75 209.83 105.07 211.24 105.68 C 217.35 109.73 218.26 120.61 211.31 124.28 C 213.47 121.35 215.25 117.70 214.28 113.97 C 213.25 110.55 211.25 106.30 207.08 106.31 Z" />
<path fill="#ffeba2" opacity="1.00" d=" M 175.90 120.55 C 182.55 116.45 191.35 123.42 189.70 130.83 C 187.38 128.41 187.38 124.46 184.49 122.49 C 182.13 120.43 178.87 120.35 175.90 120.55 Z" />
<path fill="#ffeba2" opacity="1.00" d=" M 284.85 159.60 C 289.28 159.28 293.89 159.89 298.11 158.14 C 297.45 159.30 297.17 161.07 295.73 161.52 C 292.95 162.10 290.11 161.43 287.36 160.99 C 286.52 160.53 285.68 160.07 284.85 159.60 Z" />
</g>
<g id="#4e1e06f8">
<path fill="#4e1e06" opacity="0.97" d=" M 64.30 108.32 C 75.14 107.54 86.13 108.25 97.03 107.98 C 99.47 108.17 102.77 107.25 104.34 109.73 C 106.12 112.16 104.19 116.22 101.07 115.96 C 89.37 116.03 77.66 116.03 65.96 115.97 C 61.78 116.33 60.48 109.81 64.30 108.32 M 65.10 109.21 C 61.90 109.81 62.62 115.28 65.97 114.88 C 77.65 114.99 89.34 114.98 101.02 114.88 C 103.27 115.11 104.87 112.21 103.53 110.40 C 102.32 108.52 99.82 109.20 97.96 109.03 C 87.01 109.20 76.04 108.83 65.10 109.21 Z" />
</g>
<g id="#ff5a22ff">
<path fill="#ff5a22" opacity="1.00" d=" M 208.01 118.08 C 208.99 116.51 210.61 115.54 212.16 114.60 C 213.01 117.91 211.86 121.88 208.64 123.45 C 208.45 121.65 208.19 119.87 208.01 118.08 Z" />
</g>
<g id="#eacd8cff">
<path fill="#eacd8c" opacity="1.00" d=" M 160.02 165.50 C 152.99 151.80 151.75 135.20 156.87 120.67 C 156.45 127.77 155.35 134.88 156.08 141.99 C 156.62 149.11 158.84 155.97 161.41 162.59 C 164.31 162.64 167.22 162.74 170.13 162.79 C 169.32 163.90 168.40 165.01 167.07 165.51 C 164.72 165.66 162.36 165.60 160.02 165.50 Z" />
<path fill="#eacd8c" opacity="1.00" d=" M 268.76 160.06 L 269.75 159.94 C 277.25 158.49 282.96 164.62 290.09 165.25 C 289.91 165.52 289.57 166.07 289.40 166.34 C 288.52 166.31 286.77 166.24 285.89 166.20 L 286.37 167.07 L 286.63 167.55 C 281.36 163.16 274.93 159.91 267.90 160.26 L 268.76 160.06 Z" />
</g>
<g id="#4c1d05f9">
<path fill="#4c1d05" opacity="0.98" d=" M 44.31 134.34 C 45.81 133.84 47.43 134.03 48.99 133.97 C 66.34 134.06 83.70 133.92 101.05 134.04 C 104.18 133.78 106.16 137.88 104.30 140.30 C 103.23 142.17 100.88 142.01 99.04 142.03 C 81.33 141.94 63.62 142.08 45.91 141.96 C 41.77 142.25 40.53 135.82 44.31 134.34 M 45.19 135.23 C 43.04 135.51 42.24 138.73 43.90 140.09 C 44.93 141.24 46.62 140.81 47.97 140.96 C 65.65 140.88 83.33 141.03 101.01 140.89 C 103.29 141.15 104.80 138.21 103.52 136.41 C 102.36 134.52 99.82 135.24 97.98 135.03 C 80.39 135.21 62.77 134.81 45.19 135.23 Z" />
</g>
<g id="#ff5722ff">
<path fill="#ff5722" opacity="1.00" d=" M 196.36 135.49 C 197.47 134.84 199.03 135.73 198.82 137.10 C 199.06 141.38 197.09 146.16 193.32 148.38 C 191.36 149.51 190.31 146.56 190.72 145.05 C 191.33 141.38 193.08 137.47 196.36 135.49 Z" />
</g>
<g id="#461a07ff">
<path fill="#461a07" opacity="1.00" d=" M 238.21 135.02 C 239.83 135.86 241.32 136.93 242.71 138.12 C 246.47 138.24 250.39 137.93 253.92 139.49 C 262.39 142.87 268.48 150.95 269.75 159.94 L 268.76 160.06 C 267.34 159.96 265.94 159.80 264.54 159.58 C 264.55 157.72 264.57 155.82 263.80 154.09 C 261.34 149.73 257.89 145.89 253.33 143.70 C 249.23 142.00 244.02 141.67 239.95 143.52 C 236.11 145.12 232.71 147.67 231.40 151.78 C 230.74 153.05 230.05 154.32 229.31 155.55 C 227.88 156.99 225.85 157.35 224.06 158.12 C 223.29 159.86 223.40 161.83 223.26 163.69 C 223.78 163.70 224.81 163.72 225.33 163.73 C 232.32 163.47 239.31 163.59 246.30 163.52 C 248.18 163.49 250.06 163.30 251.92 162.97 C 248.48 164.89 245.40 168.28 241.10 167.60 C 230.38 167.29 219.71 168.42 209.00 168.32 C 205.98 168.67 204.24 165.54 201.75 164.38 C 207.91 164.67 214.07 164.04 220.23 164.21 C 220.27 163.53 220.35 162.18 220.39 161.50 C 220.60 158.73 221.12 156.01 221.47 153.26 C 222.68 154.56 224.21 156.73 226.21 155.34 C 229.07 152.12 229.18 147.26 232.37 144.29 C 234.80 142.04 239.10 142.33 240.62 139.07 C 239.88 137.68 239.02 136.37 238.21 135.02 Z" />
<path fill="#461a07" opacity="1.00" d=" M 260.35 164.54 C 269.93 162.74 280.33 165.68 286.92 173.01 C 296.24 182.68 297.10 199.09 288.69 209.59 C 280.29 221.23 262.61 224.15 250.75 216.25 C 241.17 210.19 235.83 198.07 238.25 186.93 C 240.25 175.92 249.39 166.70 260.35 164.54 M 259.33 166.46 C 247.24 169.41 238.38 181.65 239.42 194.06 C 240.00 207.56 252.31 219.51 265.96 218.86 C 279.32 219.60 291.58 208.25 292.66 195.06 C 293.84 184.91 288.51 174.44 279.69 169.33 C 273.67 165.58 266.14 165.00 259.33 166.46 Z" />
</g>
<g id="#ff4525ff">
<path fill="#ff4525" opacity="1.00" d=" M 151.61 144.15 C 153.24 150.71 154.60 157.38 158.18 163.24 C 155.66 163.14 153.14 163.20 150.63 163.23 C 150.43 156.84 151.29 150.51 151.61 144.15 Z" />
</g>
<g id="#fd4423ff">
<path fill="#fd4423" opacity="1.00" d=" M 224.06 158.12 C 225.85 157.35 227.88 156.99 229.31 155.55 C 229.56 158.15 230.07 160.72 230.62 163.27 C 229.40 163.35 228.18 163.36 226.96 163.29 C 225.34 161.98 225.84 159.63 225.41 157.82 C 225.39 159.79 225.37 161.76 225.33 163.73 C 224.81 163.72 223.78 163.70 223.26 163.69 C 223.40 161.83 223.29 159.86 224.06 158.12 Z" />
</g>
<g id="#4b1c05fb">
<path fill="#4b1c05" opacity="1.00" d=" M 17.26 161.30 C 18.80 160.85 20.43 161.02 22.02 160.97 C 48.68 161.12 75.36 160.81 102.02 161.12 C 106.43 161.87 105.59 169.35 101.05 168.96 C 73.69 169.03 46.34 169.02 18.99 168.97 C 14.80 169.33 13.51 162.88 17.26 161.30 M 18.02 162.21 C 16.21 162.67 15.39 165.14 16.52 166.63 C 17.41 168.26 19.49 167.84 21.02 167.97 C 47.67 167.88 74.32 168.04 100.96 167.89 C 103.24 168.17 104.78 165.31 103.59 163.46 C 102.44 161.49 99.86 162.20 97.98 162.02 C 71.33 162.20 44.66 161.83 18.02 162.21 Z" />
</g>
<g id="#fae199ff">
<path fill="#fae199" opacity="1.00" d=" M 197.91 162.08 C 205.38 161.24 212.90 161.58 220.39 161.50 C 220.35 162.18 220.27 163.53 220.23 164.21 C 214.07 164.04 207.91 164.67 201.75 164.38 C 200.31 163.95 199.15 162.90 197.91 162.08 Z" />
</g>
<g id="#fe9f8eff">
<path fill="#fe9f8e" opacity="1.00" d=" M 150.63 163.23 C 153.14 163.20 155.66 163.14 158.18 163.24 C 158.61 163.85 159.49 165.06 159.93 165.67 C 156.88 165.73 153.83 165.88 150.78 165.68 C 150.74 165.07 150.66 163.84 150.63 163.23 Z" />
</g>
<g id="#482214ff">
<path fill="#482214" opacity="1.00" d=" M 179.44 164.53 C 186.08 163.25 193.23 164.16 199.12 167.57 C 208.46 172.67 214.38 183.36 213.61 193.98 C 213.14 208.55 199.69 221.54 184.97 220.57 C 170.72 221.26 157.98 208.88 156.87 194.92 C 155.39 181.01 165.69 167.12 179.44 164.53 M 178.40 166.49 C 165.67 169.57 156.67 183.01 158.74 195.97 C 160.27 208.66 172.06 219.40 184.99 218.85 C 198.74 219.67 211.35 207.60 211.81 193.98 C 212.65 183.64 206.68 173.24 197.44 168.59 C 191.66 165.47 184.72 165.16 178.40 166.49 Z" />
</g>
<g id="#ff4625ff">
<path fill="#ff4625" opacity="1.00" d=" M 182.05 178.36 C 183.94 178.32 185.83 178.26 187.72 178.43 C 188.39 180.72 186.10 182.36 185.01 184.08 C 183.79 182.30 182.79 180.38 182.05 178.36 Z" />
<path fill="#ff4625" opacity="1.00" d=" M 263.02 178.32 C 264.90 178.31 266.79 178.27 268.67 178.47 C 269.30 180.70 266.89 182.30 265.98 184.09 C 264.71 182.32 263.58 180.44 263.02 178.32 Z" />
<path fill="#ff4625" opacity="1.00" d=" M 253.02 188.52 C 253.20 186.47 254.02 184.12 255.99 183.20 C 257.69 184.16 257.96 186.79 258.90 188.49 C 256.94 188.50 254.98 188.51 253.02 188.52 Z" />
</g>
<g id="#ff4726ff">
<path fill="#ff4726" opacity="1.00" d=" M 172.05 188.54 C 172.25 186.21 173.46 184.09 175.47 182.87 C 176.41 184.68 177.23 186.57 177.95 188.49 C 175.98 188.51 174.02 188.52 172.05 188.54 Z" />
<path fill="#ff4726" opacity="1.00" d=" M 195.08 182.75 C 196.75 184.26 198.08 186.08 198.57 188.33 C 196.45 188.39 194.32 188.42 192.20 188.45 C 193.09 186.51 194.07 184.62 195.08 182.75 Z" />
<path fill="#ff4726" opacity="1.00" d=" M 171.90 196.20 C 173.95 196.24 176.00 196.30 178.05 196.39 C 177.16 198.33 176.13 200.20 174.94 201.98 C 173.39 200.36 172.37 198.37 171.90 196.20 Z" />
<path fill="#ff4726" opacity="1.00" d=" M 192.20 196.60 C 194.37 196.31 196.58 196.16 198.76 196.55 C 197.84 198.46 196.78 200.30 195.58 202.04 C 194.31 200.32 193.20 198.48 192.20 196.60 Z" />
<path fill="#ff4726" opacity="1.00" d=" M 252.89 196.18 C 254.93 196.24 256.97 196.32 259.02 196.42 C 258.06 198.30 257.01 200.13 255.94 201.94 C 254.23 200.44 253.24 198.41 252.89 196.18 Z" />
<path fill="#ff4726" opacity="1.00" d=" M 273.10 196.45 C 275.15 196.36 277.21 196.28 279.28 196.22 C 278.87 198.34 277.87 200.24 276.63 201.99 C 275.16 200.34 274.02 198.45 273.10 196.45 Z" />
<path fill="#ff4726" opacity="1.00" d=" M 262.85 206.14 C 264.03 204.62 264.20 201.09 266.53 201.25 C 267.71 202.64 268.45 204.34 269.24 205.98 C 267.12 206.35 264.98 206.40 262.85 206.14 Z" />
</g>
<g id="#ff4626ff">
<path fill="#ff4626" opacity="1.00" d=" M 275.58 183.27 C 278.07 183.05 278.57 186.57 279.48 188.29 C 277.39 188.38 275.29 188.43 273.20 188.48 C 273.92 186.71 274.64 184.94 275.58 183.27 Z" />
<path fill="#ff4626" opacity="1.00" d=" M 184.49 201.29 C 186.54 200.95 187.79 204.19 187.90 205.91 C 186.02 206.78 183.94 206.31 181.99 206.10 C 182.75 204.46 183.50 202.80 184.49 201.29 Z" />
</g>
<g id="#481a04ff">
<path fill="#481a04" opacity="1.00" d=" M 181.43 192.96 C 180.94 190.78 182.89 188.41 185.11 188.50 C 187.33 188.17 188.44 190.49 189.51 191.99 C 188.84 194.28 187.33 195.95 184.97 196.56 C 183.58 195.64 181.69 194.83 181.43 192.96 Z" />
<path fill="#481a04" opacity="1.00" d=" M 264.13 189.05 C 266.29 187.41 269.85 189.27 269.89 191.97 C 270.45 194.80 266.73 197.38 264.37 195.69 C 261.70 194.58 261.55 190.37 264.13 189.05 Z" />
</g>
<g id="#6d6d6d6d">
<path fill="#6d6d6d" opacity="0.43" d=" M 174.23 192.33 C 175.47 191.76 178.37 191.22 178.90 192.71 C 177.64 193.29 174.92 193.66 174.23 192.33 Z" />
</g>
</svg>
