<?xml version="1.0" encoding="UTF-8" ?>
<!DOCTYPE svg PUBLIC "-//W3C//DTD SVG 1.1//EN" "http://www.w3.org/Graphics/SVG/1.1/DTD/svg11.dtd">
<svg width="70pt" height="70pt" viewBox="0 0 70 70" version="1.1" xmlns="http://www.w3.org/2000/svg">
<g id="#231f20ff">
<path fill="#fff" opacity="1.00" d=" M 19.29 13.90 C 20.26 7.98 26.04 3.44 31.97 3.49 C 37.45 3.26 43.80 2.92 47.86 7.34 C 53.76 12.73 51.07 21.33 51.63 28.33 C 55.16 29.20 59.36 31.64 58.89 35.87 C 58.85 44.43 59.16 53.00 58.66 61.54 C 56.72 63.25 55.02 65.93 52.11 65.81 C 42.10 66.02 32.08 65.77 22.07 65.92 C 19.32 65.93 16.11 66.08 14.18 63.73 C 11.61 61.58 12.19 57.93 12.09 54.96 C 12.30 47.97 11.80 40.95 12.33 33.97 C 12.79 30.60 16.26 29.12 19.14 28.30 C 19.27 23.50 18.89 18.69 19.29 13.90 M 24.79 16.90 C 24.63 20.80 24.84 24.71 24.75 28.62 C 31.77 28.70 38.80 28.66 45.82 28.64 C 45.55 23.72 46.29 18.71 45.35 13.85 C 43.09 8.67 36.63 8.95 31.91 9.37 C 28.00 9.37 24.71 13.07 24.79 16.90 M 31.98 38.04 C 29.19 40.17 30.10 44.48 32.76 46.31 C 32.71 49.48 32.85 52.66 33.50 55.77 C 34.44 55.63 36.33 55.35 37.28 55.22 C 37.96 52.40 37.68 49.47 37.65 46.61 C 38.53 45.69 39.42 44.78 40.32 43.87 C 40.15 42.09 40.72 39.95 39.27 38.56 C 37.57 36.38 33.94 35.98 31.98 38.04 Z" />
</g>
</svg>
