<?xml version="1.0" encoding="UTF-8" ?>
<!DOCTYPE svg PUBLIC "-//W3C//DTD SVG 1.1//EN" "http://www.w3.org/Graphics/SVG/1.1/DTD/svg11.dtd">
<svg width="324pt" height="231pt" viewBox="0 0 324 231" version="1.1" xmlns="http://www.w3.org/2000/svg">
<g id="#ffffffff">
<path fill="#ffffff" opacity="1.00" d=" M 72.15 22.82 C 105.98 9.60 142.70 1.21 179.14 5.54 C 203.72 8.38 227.70 15.32 250.52 24.75 C 254.14 26.21 257.82 27.96 260.34 31.05 C 268.56 39.89 266.79 54.58 258.99 63.08 C 255.49 67.11 250.65 69.74 245.44 70.79 C 239.00 83.05 232.88 95.49 226.66 107.87 C 227.70 114.46 227.90 122.03 223.39 127.46 C 221.20 130.34 217.63 131.45 214.30 132.36 C 206.98 146.75 199.80 161.21 192.44 175.58 C 190.49 179.33 191.72 183.92 189.65 187.65 C 187.88 191.69 183.22 193.37 181.43 197.39 C 178.71 202.70 176.24 208.15 173.35 213.37 C 169.72 220.01 161.22 223.27 154.05 220.95 C 149.78 219.67 146.93 215.96 142.97 214.09 C 136.09 210.85 134.55 202.28 135.45 195.43 C 129.16 183.03 122.91 170.61 116.67 158.19 C 110.90 146.50 105.18 134.76 98.96 123.30 C 96.79 122.99 94.56 122.82 92.47 122.07 C 90.44 121.22 89.05 119.40 87.22 118.23 C 80.08 111.31 81.01 99.95 82.77 90.98 C 80.05 85.59 77.32 80.20 74.64 74.78 C 73.95 73.44 73.21 72.13 72.48 70.82 C 69.41 70.03 66.35 69.02 63.71 67.24 C 52.60 60.08 48.16 43.09 56.48 32.26 C 60.18 27.06 66.53 25.15 72.15 22.82 M 74.26 30.26 C 69.60 32.23 63.95 33.69 61.49 38.60 C 55.90 49.30 65.14 64.52 77.53 63.34 C 81.65 72.02 86.25 80.45 90.38 89.12 C 91.01 92.01 89.49 94.96 89.44 97.91 C 88.99 103.49 88.97 110.45 93.88 114.19 C 96.62 116.35 100.10 115.03 102.98 113.94 C 116.23 140.34 129.55 166.70 142.86 193.06 C 144.10 196.21 142.09 199.77 143.36 203.02 C 143.93 206.21 146.92 208.36 150.14 207.91 C 151.34 209.65 152.37 211.70 154.32 212.73 C 158.37 215.19 164.40 213.90 166.67 209.59 C 170.36 202.63 173.74 195.50 177.38 188.50 C 179.30 187.55 181.49 186.66 182.53 184.65 C 184.04 182.38 183.45 179.59 183.14 177.08 C 192.06 159.29 201.09 141.55 210.00 123.75 C 212.50 124.36 215.68 125.00 217.46 122.57 C 220.81 118.04 219.52 111.94 218.57 106.83 C 225.79 92.30 233.23 77.88 240.40 63.33 C 252.58 64.48 261.50 49.99 256.78 39.27 C 255.29 35.97 252.26 33.70 248.96 32.43 C 224.75 22.31 199.19 14.98 172.99 12.66 C 139.22 9.85 105.51 17.96 74.26 30.26 Z" />
<path fill="#ffffff" opacity="1.00" d=" M 14.45 65.47 C 20.40 55.82 33.31 52.24 43.94 54.81 C 45.63 54.89 47.06 55.88 47.93 57.30 C 51.70 62.93 56.31 68.02 59.48 74.01 C 59.71 83.68 55.29 94.07 46.65 99.00 C 43.89 101.01 39.94 102.22 36.93 100.03 C 39.12 103.40 39.45 107.63 41.92 110.84 C 52.09 124.42 61.59 138.47 71.96 151.89 C 73.26 153.60 73.96 156.45 71.96 157.94 C 69.24 160.00 66.59 162.82 62.98 163.08 C 60.34 162.07 58.82 158.63 60.74 156.28 C 60.32 156.48 59.48 156.87 59.06 157.07 C 55.96 155.57 54.31 152.38 52.43 149.68 C 44.77 139.27 37.16 128.83 29.67 118.30 C 27.66 115.54 25.29 112.99 24.18 109.69 C 19.44 102.92 16.20 95.24 13.39 87.49 C 11.99 80.27 10.49 72.20 14.45 65.47 M 17.07 66.94 C 13.87 72.46 14.72 79.22 16.18 85.14 C 19.35 96.36 25.40 106.50 32.00 116.02 C 41.25 128.52 50.37 141.12 59.44 153.75 C 60.58 153.03 61.72 152.29 62.92 151.68 C 64.87 151.53 66.22 153.10 65.99 154.99 C 65.10 156.14 63.96 157.05 62.89 158.03 C 63.18 158.54 63.74 159.57 64.03 160.09 C 66.27 158.56 68.44 156.94 70.53 155.22 C 60.70 142.38 51.53 129.04 41.85 116.09 C 37.19 110.07 33.42 102.71 34.26 94.87 C 34.48 92.67 35.09 89.31 38.06 89.65 C 41.69 90.87 39.06 95.76 39.56 98.55 C 50.15 96.40 56.57 85.29 56.53 75.05 C 53.80 69.59 49.42 65.10 46.09 59.98 C 44.63 57.02 40.86 57.35 38.06 56.98 C 30.14 56.83 21.35 59.88 17.07 66.94 Z" />
<path fill="#ffffff" opacity="1.00" d=" M 282.17 54.43 C 294.27 52.16 309.70 58.68 311.84 71.93 C 313.14 82.54 309.25 92.86 304.33 102.07 C 302.91 105.93 299.73 108.77 298.46 112.70 C 289.25 125.35 280.12 138.06 270.88 150.69 C 268.94 153.36 266.68 158.19 262.73 156.38 C 265.30 157.39 264.12 160.99 262.36 162.24 C 260.94 163.78 258.68 162.75 257.22 161.82 C 255.11 160.26 252.72 158.97 251.11 156.85 C 250.13 154.76 251.47 152.59 252.71 150.94 C 255.37 147.73 258.00 144.47 260.12 140.86 C 267.58 131.35 274.15 121.20 281.54 111.62 C 284.39 108.26 284.77 103.68 287.08 100.02 C 284.29 102.06 280.52 101.21 277.89 99.33 C 268.91 94.48 264.23 83.84 264.52 73.93 C 267.93 67.78 272.60 62.45 276.56 56.66 C 277.79 54.77 280.22 54.87 282.17 54.43 M 279.31 58.21 C 275.34 63.74 270.89 68.99 267.45 74.88 C 267.39 85.17 273.78 96.44 284.47 98.54 C 284.47 95.86 283.56 93.02 284.42 90.42 C 286.25 88.66 289.20 90.18 289.32 92.56 C 291.62 102.18 286.19 111.26 280.38 118.45 C 271.38 130.68 262.70 143.14 253.48 155.21 C 255.63 157.00 257.86 158.69 260.21 160.20 C 262.55 157.00 256.19 155.83 258.54 152.59 C 260.58 150.64 262.84 152.70 264.73 153.72 C 268.91 147.29 273.70 141.30 278.07 135.01 C 289.18 119.54 302.04 104.59 307.59 85.99 C 309.50 79.04 310.46 70.49 305.28 64.67 C 298.99 57.65 288.14 55.27 279.31 58.21 Z" />
<path fill="#ffffff" opacity="1.00" d=" M 132.35 67.57 C 134.32 65.31 138.28 67.13 138.32 69.97 C 138.55 72.62 135.18 74.68 132.98 73.11 C 130.99 72.04 130.60 69.04 132.35 67.57 Z" />
<path fill="#ffffff" opacity="1.00" d=" M 179.19 67.25 C 181.30 65.44 184.73 67.37 184.76 70.00 C 184.91 72.78 181.29 74.77 179.10 72.95 C 177.14 71.63 177.19 68.49 179.19 67.25 Z" />
<path fill="#ffffff" opacity="1.00" d=" M 43.44 68.75 C 46.29 67.11 48.77 71.78 45.88 73.26 C 42.87 75.45 40.04 69.90 43.44 68.75 Z" />
<path fill="#ffffff" opacity="1.00" d=" M 278.43 68.65 C 281.15 67.40 283.70 71.57 280.98 73.20 C 278.04 75.57 274.88 69.83 278.43 68.65 Z" />
<path fill="#ffffff" opacity="1.00" d=" M 20.41 72.33 C 21.42 71.52 22.91 72.37 23.78 73.04 C 24.11 76.66 24.38 80.35 23.95 83.97 C 23.04 85.45 20.87 85.17 19.61 84.36 C 18.57 81.76 18.62 78.86 18.75 76.11 C 18.91 74.70 18.82 72.93 20.41 72.33 Z" />
<path fill="#ffffff" opacity="1.00" d=" M 301.29 72.37 C 302.61 71.52 303.86 72.28 304.79 73.29 C 305.55 76.70 305.56 80.37 304.62 83.76 C 303.86 85.98 299.80 85.52 299.91 83.01 C 299.78 79.67 299.94 76.32 300.21 72.99 C 300.48 72.84 301.02 72.53 301.29 72.37 Z" />
<path fill="#ffffff" opacity="1.00" d=" M 176.59 123.32 C 180.98 115.36 190.14 110.19 199.29 111.64 C 201.26 111.92 203.19 112.44 205.07 113.09 C 199.46 112.10 193.37 111.26 188.01 113.75 C 180.56 117.27 174.42 124.90 175.07 133.50 C 175.06 134.51 175.07 135.53 175.10 136.54 C 174.86 141.21 177.50 145.13 179.81 148.92 C 177.40 145.69 174.79 142.22 174.56 138.04 C 174.33 133.09 173.87 127.73 176.59 123.32 Z" />
</g>
<g id="#4f220cff">
<path fill="#4f220c" opacity="1.00" d=" M 74.26 30.26 C 105.51 17.96 139.22 9.85 172.99 12.66 C 199.19 14.98 224.75 22.31 248.96 32.43 C 252.26 33.70 255.29 35.97 256.78 39.27 C 261.50 49.99 252.58 64.48 240.40 63.33 C 233.23 77.88 225.79 92.30 218.57 106.83 C 219.52 111.94 220.81 118.04 217.46 122.57 C 215.68 125.00 212.50 124.36 210.00 123.75 C 201.09 141.55 192.06 159.29 183.14 177.08 C 183.45 179.59 184.04 182.38 182.53 184.65 C 181.49 186.66 179.30 187.55 177.38 188.50 C 173.74 195.50 170.36 202.63 166.67 209.59 C 164.40 213.90 158.37 215.19 154.32 212.73 C 152.37 211.70 151.34 209.65 150.14 207.91 C 146.92 208.36 143.93 206.21 143.36 203.02 C 142.09 199.77 144.10 196.21 142.86 193.06 C 129.55 166.70 116.23 140.34 102.98 113.94 C 100.10 115.03 96.62 116.35 93.88 114.19 C 88.97 110.45 88.99 103.49 89.44 97.91 C 89.49 94.96 91.01 92.01 90.38 89.12 C 86.25 80.45 81.65 72.02 77.53 63.34 C 65.14 64.52 55.90 49.30 61.49 38.60 C 63.95 33.69 69.60 32.23 74.26 30.26 M 70.65 36.64 C 68.00 37.57 65.90 39.55 64.59 42.00 C 63.35 47.90 65.70 54.37 70.95 57.53 L 71.17 58.01 C 73.68 58.43 76.42 59.17 78.78 57.80 C 98.36 47.57 120.14 42.05 142.05 39.83 C 172.98 37.26 204.79 41.82 233.10 54.83 C 236.79 56.33 240.33 59.53 244.59 58.44 C 251.13 56.36 254.90 48.54 253.02 42.04 C 252.06 38.97 249.16 37.27 246.38 36.10 C 243.71 35.07 241.10 33.87 238.32 33.16 C 206.96 21.00 172.83 13.60 139.12 17.79 C 115.53 20.68 92.52 27.46 70.65 36.64 M 130.39 46.09 C 124.77 46.60 119.23 47.93 114.06 50.19 C 103.24 54.68 92.74 61.45 86.61 71.71 C 88.45 75.11 90.33 78.51 91.93 82.04 C 95.60 90.73 91.06 100.56 94.73 109.23 C 96.14 113.22 102.27 112.17 103.55 108.65 C 104.12 106.96 103.91 105.14 104.06 103.40 L 104.35 102.09 C 105.82 105.48 105.41 109.41 107.32 112.63 C 110.65 119.07 113.87 125.56 117.14 132.03 C 118.11 131.56 119.08 131.08 120.04 130.59 C 122.97 129.77 125.93 129.05 128.86 128.22 C 128.07 130.14 126.43 132.72 129.01 134.02 C 133.45 135.08 138.09 133.49 142.52 134.61 C 146.61 135.62 148.21 141.09 152.77 140.83 C 154.47 139.88 154.33 137.61 155.10 136.03 C 155.98 138.08 155.55 140.23 154.72 142.22 C 157.14 146.75 158.96 151.73 158.66 156.94 C 158.94 166.60 153.27 175.43 145.56 180.84 L 145.45 180.58 C 144.48 181.14 143.50 181.69 142.53 182.25 C 143.78 184.77 145.37 187.13 146.37 189.78 C 147.33 193.78 146.36 197.99 147.33 202.01 C 147.46 203.48 148.84 204.18 149.91 204.94 C 151.65 203.43 152.25 201.26 152.64 199.08 C 154.01 202.00 153.38 205.72 155.78 208.14 C 157.10 209.73 159.32 209.33 161.14 209.48 C 164.24 205.23 166.20 200.31 168.64 195.68 C 169.99 192.83 171.75 190.15 172.74 187.14 C 172.21 186.15 171.63 185.18 171.00 184.25 C 171.15 182.81 171.13 181.36 171.19 179.92 C 172.08 181.29 172.94 182.66 173.83 184.03 C 177.02 186.08 180.26 182.32 179.70 179.11 C 179.27 172.01 183.78 166.28 186.52 160.13 C 183.20 158.61 180.16 156.60 177.10 154.64 C 173.95 150.88 170.82 146.93 169.57 142.08 C 165.78 130.64 170.48 117.17 180.51 110.51 C 186.23 106.37 193.46 105.23 200.38 105.57 C 200.38 106.97 200.23 108.36 199.94 109.74 C 203.09 110.01 206.83 109.32 209.34 111.71 C 211.77 113.78 210.16 117.72 212.10 119.91 C 213.73 121.37 215.30 119.15 215.54 117.66 C 216.49 112.83 216.80 107.71 215.79 102.88 C 220.62 91.66 226.73 81.03 231.97 70.00 C 233.59 67.21 235.02 64.32 236.14 61.29 C 221.03 53.91 204.81 48.39 188.09 46.28 C 190.85 47.55 193.55 48.95 196.27 50.32 L 196.59 50.34 C 200.53 53.09 204.88 55.28 208.41 58.60 C 212.76 62.68 218.01 65.70 223.61 67.71 C 225.80 68.40 227.98 69.14 230.21 69.70 C 228.15 69.41 226.10 69.22 224.04 68.98 C 219.23 67.50 214.46 65.69 210.32 62.77 C 198.93 53.87 185.51 47.16 171.17 44.76 C 162.53 43.01 153.65 43.64 144.93 44.23 C 140.07 44.73 135.13 44.87 130.39 46.09 M 84.35 60.13 C 83.42 60.52 82.49 60.91 81.57 61.29 C 83.09 64.66 84.59 68.05 86.73 71.08 C 87.16 70.01 87.61 68.95 88.07 67.89 C 92.18 61.50 98.12 56.75 104.05 52.16 C 97.32 54.39 90.69 56.94 84.35 60.13 M 176.93 118.89 C 171.51 125.87 170.38 135.87 174.16 143.87 C 176.80 149.95 182.18 154.34 188.18 156.91 C 191.36 150.84 194.45 144.73 197.28 138.50 C 200.48 132.33 203.97 126.29 206.80 119.93 C 207.35 117.72 208.24 113.60 205.07 113.09 C 203.19 112.44 201.26 111.92 199.29 111.64 C 198.82 110.09 197.75 108.74 195.96 109.23 C 188.56 109.28 181.39 113.02 176.93 118.89 M 118.75 136.74 L 119.39 136.49 C 123.25 144.03 127.05 151.60 130.91 159.14 C 133.48 165.23 136.83 170.95 139.73 176.88 C 139.96 177.13 140.43 177.62 140.67 177.87 L 139.89 178.91 C 148.97 176.02 154.91 166.29 154.87 156.97 C 154.78 152.84 154.31 148.27 151.36 145.11 C 151.30 144.80 151.16 144.19 151.09 143.89 C 150.09 143.55 149.09 143.22 148.10 142.88 C 145.88 141.10 143.76 138.95 141.03 137.99 C 136.04 137.26 130.14 138.84 126.12 134.92 L 126.45 133.73 L 125.51 133.00 C 123.05 133.36 119.23 133.76 118.75 136.74 Z" />
<path fill="#4f220c" opacity="1.00" d=" M 125.48 63.54 C 130.40 59.89 137.54 61.64 141.11 66.33 C 142.11 68.70 143.13 71.24 142.74 73.87 C 142.49 78.01 139.05 80.75 136.64 83.75 C 136.51 83.86 136.25 84.06 136.12 84.17 C 129.52 80.69 122.03 79.93 114.70 79.32 C 116.74 78.04 119.13 77.64 121.47 77.27 C 119.80 72.39 121.00 66.48 125.48 63.54 M 132.35 67.57 C 130.60 69.04 130.99 72.04 132.98 73.11 C 135.18 74.68 138.55 72.62 138.32 69.97 C 138.28 67.13 134.32 65.31 132.35 67.57 Z" />
<path fill="#4f220c" opacity="1.00" d=" M 173.20 73.04 C 172.73 67.04 178.06 61.50 184.05 61.56 C 187.54 61.42 190.68 63.31 193.07 65.71 C 195.34 69.16 195.66 73.35 194.52 77.27 C 195.09 77.37 196.22 77.57 196.79 77.67 C 198.39 77.89 199.89 78.51 201.28 79.33 C 193.31 79.94 185.09 80.84 178.15 85.16 C 178.46 84.57 179.08 83.40 179.39 82.81 C 176.08 80.61 173.12 77.25 173.20 73.04 M 179.19 67.25 C 177.19 68.49 177.14 71.63 179.10 72.95 C 181.29 74.77 184.91 72.78 184.76 70.00 C 184.73 67.37 181.30 65.44 179.19 67.25 Z" />
<path fill="#4f220c" opacity="1.00" d=" M 145.36 94.93 C 144.46 92.48 146.38 89.44 149.02 89.37 C 154.69 89.17 160.37 89.29 166.05 89.31 C 168.02 89.09 169.55 90.45 170.80 91.80 C 171.20 96.29 168.01 100.17 164.43 102.45 C 160.94 104.61 156.61 104.37 152.80 103.32 C 149.54 101.39 146.64 98.55 145.36 94.93 M 152.13 99.72 C 152.96 100.34 153.78 100.97 154.60 101.61 C 158.03 102.75 161.55 101.84 164.42 99.81 C 163.20 99.03 162.02 98.18 160.73 97.52 C 157.64 97.26 154.60 97.72 152.13 99.72 Z" />
</g>
<g id="#fdc497ff">
<path fill="#fdc497" opacity="1.00" d=" M 70.65 36.64 C 92.52 27.46 115.53 20.68 139.12 17.79 C 172.83 13.60 206.96 21.00 238.32 33.16 C 236.03 32.60 233.74 32.06 231.51 31.32 C 211.95 24.50 191.56 19.87 170.87 18.50 C 153.55 17.43 136.19 19.56 119.30 23.33 C 114.55 24.36 111.10 28.23 106.41 29.45 C 100.36 31.77 93.59 30.08 87.63 32.66 C 81.99 35.00 76.03 36.67 70.74 39.74 C 67.40 41.65 67.27 45.84 67.16 49.23 C 65.72 47.05 64.48 44.70 64.59 42.00 C 65.90 39.55 68.00 37.57 70.65 36.64 Z" />
<path fill="#fdc497" opacity="1.00" d=" M 152.13 99.72 C 154.60 97.72 157.64 97.26 160.73 97.52 C 158.71 97.89 156.70 98.33 154.68 98.72 C 154.66 99.44 154.62 100.89 154.60 101.61 C 153.78 100.97 152.96 100.34 152.13 99.72 Z" />
<path fill="#fdc497" opacity="1.00" d=" M 119.39 136.49 C 121.75 135.58 124.11 134.68 126.45 133.73 L 126.12 134.92 C 124.57 135.54 123.00 136.13 121.55 136.96 C 121.27 138.77 122.33 140.44 122.97 142.07 C 125.10 146.34 127.34 150.57 129.27 154.93 C 129.86 156.32 130.37 157.73 130.91 159.14 C 127.05 151.60 123.25 144.03 119.39 136.49 Z" />
<path fill="#fdc497" opacity="1.00" d=" M 148.10 142.88 C 149.09 143.22 150.09 143.55 151.09 143.89 C 151.16 144.19 151.30 144.80 151.36 145.11 C 152.09 149.43 153.95 153.62 153.61 158.07 C 153.34 163.15 151.24 168.08 147.92 171.91 C 145.83 174.28 143.03 175.81 140.67 177.87 C 140.43 177.62 139.96 177.13 139.73 176.88 C 144.03 174.24 148.10 170.87 150.24 166.18 C 153.79 158.88 153.35 149.26 148.10 142.88 Z" />
</g>
<g id="#fb872dff">
<path fill="#fb872d" opacity="1.00" d=" M 119.30 23.33 C 136.19 19.56 153.55 17.43 170.87 18.50 C 191.56 19.87 211.95 24.50 231.51 31.32 C 233.74 32.06 236.03 32.60 238.32 33.16 C 241.10 33.87 243.71 35.07 246.38 36.10 C 244.88 38.86 243.42 41.97 240.42 43.40 C 233.76 46.73 225.83 45.54 219.11 42.99 C 177.31 28.25 130.14 29.27 89.10 46.08 C 84.93 47.75 81.10 50.20 76.86 51.68 C 73.63 52.97 70.41 51.02 67.49 49.82 L 67.16 49.23 C 67.27 45.84 67.40 41.65 70.74 39.74 C 76.03 36.67 81.99 35.00 87.63 32.66 C 93.59 30.08 100.36 31.77 106.41 29.45 C 111.10 28.23 114.55 24.36 119.30 23.33 Z" />
</g>
<g id="#ca8a1aff">
<path fill="#ca8a1a" opacity="1.00" d=" M 260.34 31.05 C 263.84 34.42 267.87 37.64 269.42 42.45 C 274.47 56.22 264.75 73.04 250.24 75.46 C 244.25 87.75 237.75 99.81 231.88 112.16 C 231.87 117.04 233.02 122.14 231.19 126.88 C 229.69 132.29 224.77 136.11 219.29 136.83 C 211.86 151.87 204.09 166.74 196.70 181.79 C 195.82 185.30 196.54 189.26 194.48 192.47 C 193.16 195.65 190.03 197.29 187.74 199.62 C 184.37 205.72 181.64 212.16 178.20 218.23 C 174.29 224.98 165.26 228.15 158.04 225.08 C 154.38 223.87 152.22 220.35 148.70 218.91 C 146.35 217.90 144.62 215.97 142.97 214.09 C 146.93 215.96 149.78 219.67 154.05 220.95 C 161.22 223.27 169.72 220.01 173.35 213.37 C 176.24 208.15 178.71 202.70 181.43 197.39 C 183.22 193.37 187.88 191.69 189.65 187.65 C 191.72 183.92 190.49 179.33 192.44 175.58 C 199.80 161.21 206.98 146.75 214.30 132.36 C 217.63 131.45 221.20 130.34 223.39 127.46 C 227.90 122.03 227.70 114.46 226.66 107.87 C 232.88 95.49 239.00 83.05 245.44 70.79 C 250.65 69.74 255.49 67.11 258.99 63.08 C 266.79 54.58 268.56 39.89 260.34 31.05 Z" />
</g>
<g id="#c76923ff">
<path fill="#c76923" opacity="1.00" d=" M 89.10 46.08 C 130.14 29.27 177.31 28.25 219.11 42.99 C 225.83 45.54 233.76 46.73 240.42 43.40 C 243.42 41.97 244.88 38.86 246.38 36.10 C 249.16 37.27 252.06 38.97 253.02 42.04 C 254.90 48.54 251.13 56.36 244.59 58.44 C 240.33 59.53 236.79 56.33 233.10 54.83 C 204.79 41.82 172.98 37.26 142.05 39.83 C 120.14 42.05 98.36 47.57 78.78 57.80 C 76.42 59.17 73.68 58.43 71.17 58.01 L 70.95 57.53 C 69.79 54.97 68.71 52.36 67.49 49.82 C 70.41 51.02 73.63 52.97 76.86 51.68 C 81.10 50.20 84.93 47.75 89.10 46.08 Z" />
</g>
<g id="#b17c58ff">
<path fill="#b17c58" opacity="1.00" d=" M 70.95 57.53 C 65.70 54.37 63.35 47.90 64.59 42.00 C 64.48 44.70 65.72 47.05 67.16 49.23 L 67.49 49.82 C 68.71 52.36 69.79 54.97 70.95 57.53 Z" />
</g>
<g id="#ffb720ff">
<path fill="#ffb720" opacity="1.00" d=" M 130.39 46.09 C 135.13 44.87 140.07 44.73 144.93 44.23 C 153.65 43.64 162.53 43.01 171.17 44.76 C 185.51 47.16 198.93 53.87 210.32 62.77 C 214.46 65.69 219.23 67.50 224.04 68.98 C 220.93 76.45 217.58 83.82 213.94 91.05 C 213.35 92.33 212.70 93.63 212.46 95.03 C 213.40 97.72 214.89 100.18 215.79 102.88 C 216.80 107.71 216.49 112.83 215.54 117.66 C 215.30 119.15 213.73 121.37 212.10 119.91 C 210.16 117.72 211.77 113.78 209.34 111.71 C 206.83 109.32 203.09 110.01 199.94 109.74 C 200.23 108.36 200.38 106.97 200.38 105.57 C 193.46 105.23 186.23 106.37 180.51 110.51 C 170.48 117.17 165.78 130.64 169.57 142.08 C 170.82 146.93 173.95 150.88 177.10 154.64 C 178.55 156.54 180.18 158.29 181.84 160.00 C 180.22 163.50 178.49 167.08 178.21 171.00 C 177.83 174.09 178.12 177.29 177.31 180.32 C 176.29 181.68 175.01 182.82 173.83 184.03 C 172.94 182.66 172.08 181.29 171.19 179.92 C 171.13 181.36 171.15 182.81 171.00 184.25 C 166.83 191.91 163.32 199.92 159.80 207.89 C 156.84 204.63 155.49 200.33 153.16 196.64 C 153.03 197.25 152.77 198.47 152.64 199.08 C 152.25 201.26 151.65 203.43 149.91 204.94 C 148.11 200.86 148.19 196.39 148.40 192.04 C 148.64 188.09 147.14 184.37 145.56 180.84 C 153.27 175.43 158.94 166.60 158.66 156.94 C 158.96 151.73 157.14 146.75 154.72 142.22 C 155.55 140.23 155.98 138.08 155.10 136.03 C 154.33 137.61 154.47 139.88 152.77 140.83 C 148.21 141.09 146.61 135.62 142.52 134.61 C 138.09 133.49 133.45 135.08 129.01 134.02 C 126.43 132.72 128.07 130.14 128.86 128.22 C 125.93 129.05 122.97 129.77 120.04 130.59 C 114.65 120.44 109.84 109.99 104.35 99.90 C 104.35 100.44 104.35 101.54 104.35 102.09 L 104.06 103.40 C 102.93 106.06 102.58 110.33 98.91 110.55 C 96.64 109.66 95.93 107.08 95.52 104.92 C 94.34 97.33 96.58 89.59 94.95 82.04 C 94.21 78.52 91.93 75.63 90.68 72.32 C 89.83 71.03 91.33 70.00 91.96 69.01 C 101.98 57.51 116.08 50.66 130.39 46.09 M 125.48 63.54 C 121.00 66.48 119.80 72.39 121.47 77.27 C 119.13 77.64 116.74 78.04 114.70 79.32 C 122.03 79.93 129.52 80.69 136.12 84.17 C 136.28 84.45 136.61 85.02 136.77 85.30 C 139.46 83.23 142.76 81.41 143.94 78.01 C 145.40 74.08 144.78 68.85 141.11 66.33 C 137.54 61.64 130.40 59.89 125.48 63.54 M 173.20 73.04 C 173.12 77.25 176.08 80.61 179.39 82.81 C 179.08 83.40 178.46 84.57 178.15 85.16 C 185.09 80.84 193.31 79.94 201.28 79.33 C 199.89 78.51 198.39 77.89 196.79 77.67 C 197.67 73.44 197.02 68.20 193.07 65.71 C 190.68 63.31 187.54 61.42 184.05 61.56 C 178.06 61.50 172.73 67.04 173.20 73.04 M 145.36 94.93 C 146.64 98.55 149.54 101.39 152.80 103.32 C 158.39 107.67 167.18 105.51 170.80 99.61 C 172.60 97.46 173.95 93.45 170.80 91.80 C 169.55 90.45 168.02 89.09 166.05 89.31 C 160.37 89.29 154.69 89.17 149.02 89.37 C 146.38 89.44 144.46 92.48 145.36 94.93 M 118.94 95.77 C 123.15 99.52 130.16 99.89 134.79 96.80 C 137.35 94.75 134.03 92.48 131.91 92.20 C 127.55 91.26 121.08 90.91 118.94 95.77 M 180.36 94.36 C 179.59 96.49 182.25 97.65 183.84 98.24 C 188.33 99.31 193.45 98.92 197.08 95.82 C 196.16 94.15 194.96 92.49 192.92 92.21 C 188.79 91.31 183.52 91.08 180.36 94.36 Z" />
</g>
<g id="#ffdc91ff">
<path fill="#ffdc91" opacity="1.00" d=" M 114.06 50.19 C 119.23 47.93 124.77 46.60 130.39 46.09 C 116.08 50.66 101.98 57.51 91.96 69.01 C 91.33 70.00 89.83 71.03 90.68 72.32 C 91.93 75.63 94.21 78.52 94.95 82.04 C 96.58 89.59 94.34 97.33 95.52 104.92 C 95.93 107.08 96.64 109.66 98.91 110.55 C 102.58 110.33 102.93 106.06 104.06 103.40 C 103.91 105.14 104.12 106.96 103.55 108.65 C 102.27 112.17 96.14 113.22 94.73 109.23 C 91.06 100.56 95.60 90.73 91.93 82.04 C 90.33 78.51 88.45 75.11 86.61 71.71 C 92.74 61.45 103.24 54.68 114.06 50.19 Z" />
</g>
<g id="#d93d1fff">
<path fill="#d93d1f" opacity="1.00" d=" M 188.09 46.28 C 204.81 48.39 221.03 53.91 236.14 61.29 C 235.02 64.32 233.59 67.21 231.97 70.00 C 231.53 69.93 230.65 69.77 230.21 69.70 C 227.98 69.14 225.80 68.40 223.61 67.71 C 223.57 61.99 219.08 57.79 213.96 56.06 C 208.22 54.07 202.82 50.42 196.59 50.34 L 196.27 50.32 C 193.55 48.95 190.85 47.55 188.09 46.28 Z" />
</g>
<g id="#fb4424ff">
<path fill="#fb4424" opacity="1.00" d=" M 196.59 50.34 C 202.82 50.42 208.22 54.07 213.96 56.06 C 219.08 57.79 223.57 61.99 223.61 67.71 C 218.01 65.70 212.76 62.68 208.41 58.60 C 204.88 55.28 200.53 53.09 196.59 50.34 Z" />
<path fill="#fb4424" opacity="1.00" d=" M 84.35 60.13 C 90.69 56.94 97.32 54.39 104.05 52.16 C 98.12 56.75 92.18 61.50 88.07 67.89 C 86.80 65.31 85.55 62.73 84.35 60.13 Z" />
<path fill="#fb4424" opacity="1.00" d=" M 176.93 118.89 C 181.39 113.02 188.56 109.28 195.96 109.23 C 197.75 108.74 198.82 110.09 199.29 111.64 C 190.14 110.19 180.98 115.36 176.59 123.32 C 173.87 127.73 174.33 133.09 174.56 138.04 C 174.79 142.22 177.40 145.69 179.81 148.92 C 177.50 145.13 174.86 141.21 175.10 136.54 C 177.56 139.28 179.82 143.31 184.04 143.19 C 189.22 143.67 193.75 138.06 192.08 133.09 C 191.06 128.65 185.91 125.96 181.67 127.63 C 178.98 128.93 177.15 131.43 175.07 133.50 C 174.42 124.90 180.56 117.27 188.01 113.75 C 193.37 111.26 199.46 112.10 205.07 113.09 C 208.24 113.60 207.35 117.72 206.80 119.93 C 203.97 126.29 200.48 132.33 197.28 138.50 C 194.45 144.73 191.36 150.84 188.18 156.91 C 182.18 154.34 176.80 149.95 174.16 143.87 C 170.38 135.87 171.51 125.87 176.93 118.89 M 194.35 115.43 C 189.28 117.51 189.78 125.71 194.92 127.29 C 198.27 128.73 202.37 126.59 203.27 123.09 C 205.16 118.14 199.03 112.89 194.35 115.43 Z" />
<path fill="#fb4424" opacity="1.00" d=" M 126.12 134.92 C 130.14 138.84 136.04 137.26 141.03 137.99 C 143.76 138.95 145.88 141.10 148.10 142.88 C 153.35 149.26 153.79 158.88 150.24 166.18 C 148.10 170.87 144.03 174.24 139.73 176.88 C 136.83 170.95 133.48 165.23 130.91 159.14 C 130.37 157.73 129.86 156.32 129.27 154.93 C 131.73 154.02 134.73 153.66 136.41 151.40 C 139.78 147.57 138.15 140.25 132.93 139.02 C 129.23 137.47 125.52 139.40 122.97 142.07 C 122.33 140.44 121.27 138.77 121.55 136.96 C 123.00 136.13 124.57 135.54 126.12 134.92 M 140.37 155.46 C 135.98 157.25 135.28 164.18 139.41 166.63 C 143.06 169.45 148.95 166.80 149.48 162.28 C 150.31 157.48 144.83 153.16 140.37 155.46 Z" />
<path fill="#fb4424" opacity="1.00" d=" M 151.36 145.11 C 154.31 148.27 154.78 152.84 154.87 156.97 C 154.91 166.29 148.97 176.02 139.89 178.91 L 140.67 177.87 C 143.03 175.81 145.83 174.28 147.92 171.91 C 151.24 168.08 153.34 163.15 153.61 158.07 C 153.95 153.62 152.09 149.43 151.36 145.11 Z" />
</g>
<g id="#f4493cff">
<path fill="#f4493c" opacity="1.00" d=" M 17.07 66.94 C 21.35 59.88 30.14 56.83 38.06 56.98 C 40.86 57.35 44.63 57.02 46.09 59.98 C 49.42 65.10 53.80 69.59 56.53 75.05 C 56.57 85.29 50.15 96.40 39.56 98.55 C 39.06 95.76 41.69 90.87 38.06 89.65 C 35.09 89.31 34.48 92.67 34.26 94.87 C 33.42 102.71 37.19 110.07 41.85 116.09 C 51.53 129.04 60.70 142.38 70.53 155.22 C 68.44 156.94 66.27 158.56 64.03 160.09 C 63.74 159.57 63.18 158.54 62.89 158.03 C 63.96 157.05 65.10 156.14 65.99 154.99 C 66.22 153.10 64.87 151.53 62.92 151.68 C 61.72 152.29 60.58 153.03 59.44 153.75 C 50.37 141.12 41.25 128.52 32.00 116.02 C 25.40 106.50 19.35 96.36 16.18 85.14 C 14.72 79.22 13.87 72.46 17.07 66.94 M 43.44 68.75 C 40.04 69.90 42.87 75.45 45.88 73.26 C 48.77 71.78 46.29 67.11 43.44 68.75 M 20.41 72.33 C 18.82 72.93 18.91 74.70 18.75 76.11 C 18.62 78.86 18.57 81.76 19.61 84.36 C 20.87 85.17 23.04 85.45 23.95 83.97 C 24.38 80.35 24.11 76.66 23.78 73.04 C 22.91 72.37 21.42 71.52 20.41 72.33 Z" />
<path fill="#f4493c" opacity="1.00" d=" M 279.31 58.21 C 288.14 55.27 298.99 57.65 305.28 64.67 C 310.46 70.49 309.50 79.04 307.59 85.99 C 302.04 104.59 289.18 119.54 278.07 135.01 C 273.70 141.30 268.91 147.29 264.73 153.72 C 262.84 152.70 260.58 150.64 258.54 152.59 C 256.19 155.83 262.55 157.00 260.21 160.20 C 257.86 158.69 255.63 157.00 253.48 155.21 C 262.70 143.14 271.38 130.68 280.38 118.45 C 286.19 111.26 291.62 102.18 289.32 92.56 C 289.20 90.18 286.25 88.66 284.42 90.42 C 283.56 93.02 284.47 95.86 284.47 98.54 C 273.78 96.44 267.39 85.17 267.45 74.88 C 270.89 68.99 275.34 63.74 279.31 58.21 M 278.43 68.65 C 274.88 69.83 278.04 75.57 280.98 73.20 C 283.70 71.57 281.15 67.40 278.43 68.65 M 301.29 72.37 C 301.02 72.53 300.48 72.84 300.21 72.99 C 299.94 76.32 299.78 79.67 299.91 83.01 C 299.80 85.52 303.86 85.98 304.62 83.76 C 305.56 80.37 305.55 76.70 304.79 73.29 C 303.86 72.28 302.61 71.52 301.29 72.37 Z" />
</g>
<g id="#f69b8aff">
<path fill="#f69b8a" opacity="1.00" d=" M 81.57 61.29 C 82.49 60.91 83.42 60.52 84.35 60.13 C 85.55 62.73 86.80 65.31 88.07 67.89 C 87.61 68.95 87.16 70.01 86.73 71.08 C 84.59 68.05 83.09 64.66 81.57 61.29 Z" />
</g>
<g id="#ffde93ff">
<path fill="#ffde93" opacity="1.00" d=" M 193.07 65.71 C 197.02 68.20 197.67 73.44 196.79 77.67 C 196.22 77.57 195.09 77.37 194.52 77.27 C 195.66 73.35 195.34 69.16 193.07 65.71 Z" />
<path fill="#ffde93" opacity="1.00" d=" M 170.80 91.80 C 173.95 93.45 172.60 97.46 170.80 99.61 C 167.18 105.51 158.39 107.67 152.80 103.32 C 156.61 104.37 160.94 104.61 164.43 102.45 C 168.01 100.17 171.20 96.29 170.80 91.80 Z" />
<path fill="#ffde93" opacity="1.00" d=" M 145.45 180.58 L 145.56 180.84 C 147.14 184.37 148.64 188.09 148.40 192.04 C 148.19 196.39 148.11 200.86 149.91 204.94 C 148.84 204.18 147.46 203.48 147.33 202.01 C 146.36 197.99 147.33 193.78 146.37 189.78 C 145.37 187.13 143.78 184.77 142.53 182.25 C 143.50 181.69 144.48 181.14 145.45 180.58 Z" />
</g>
<g id="#c98715ff">
<path fill="#c98715" opacity="1.00" d=" M 63.71 67.24 C 66.35 69.02 69.41 70.03 72.48 70.82 C 73.21 72.13 73.95 73.44 74.64 74.78 C 70.26 73.12 66.59 70.20 63.27 66.96 L 63.71 67.24 Z" />
<path fill="#c98715" opacity="1.00" d=" M 87.22 118.23 C 89.05 119.40 90.44 121.22 92.47 122.07 C 94.56 122.82 96.79 122.99 98.96 123.30 C 105.18 134.76 110.90 146.50 116.67 158.19 C 111.32 148.12 106.45 137.80 101.14 127.70 C 95.37 126.64 91.13 122.25 87.22 118.23 Z" />
</g>
<g id="#ffe69cff">
<path fill="#ffe69c" opacity="1.00" d=" M 141.11 66.33 C 144.78 68.85 145.40 74.08 143.94 78.01 C 142.76 81.41 139.46 83.23 136.77 85.30 C 136.61 85.02 136.28 84.45 136.12 84.17 C 136.25 84.06 136.51 83.86 136.64 83.75 C 139.05 80.75 142.49 78.01 142.74 73.87 C 143.13 71.24 142.11 68.70 141.11 66.33 Z" />
</g>
<g id="#dc991cff">
<path fill="#dc991c" opacity="1.00" d=" M 224.04 68.98 C 226.10 69.22 228.15 69.41 230.21 69.70 C 230.65 69.77 231.53 69.93 231.97 70.00 C 226.73 81.03 220.62 91.66 215.79 102.88 C 214.89 100.18 213.40 97.72 212.46 95.03 C 212.70 93.63 213.35 92.33 213.94 91.05 C 217.58 83.82 220.93 76.45 224.04 68.98 Z" />
<path fill="#dc991c" opacity="1.00" d=" M 177.10 154.64 C 180.16 156.60 183.20 158.61 186.52 160.13 C 183.78 166.28 179.27 172.01 179.70 179.11 C 180.26 182.32 177.02 186.08 173.83 184.03 C 175.01 182.82 176.29 181.68 177.31 180.32 C 178.12 177.29 177.83 174.09 178.21 171.00 C 178.49 167.08 180.22 163.50 181.84 160.00 C 180.18 158.29 178.55 156.54 177.10 154.64 Z" />
</g>
<g id="#ff5722ff">
<path fill="#ff5722" opacity="1.00" d=" M 118.94 95.77 C 121.08 90.91 127.55 91.26 131.91 92.20 C 134.03 92.48 137.35 94.75 134.79 96.80 C 130.16 99.89 123.15 99.52 118.94 95.77 Z" />
<path fill="#ff5722" opacity="1.00" d=" M 180.36 94.36 C 183.52 91.08 188.79 91.31 192.92 92.21 C 194.96 92.49 196.16 94.15 197.08 95.82 C 193.45 98.92 188.33 99.31 183.84 98.24 C 182.25 97.65 179.59 96.49 180.36 94.36 Z" />
</g>
<g id="#ff5822ff">
<path fill="#ff5822" opacity="1.00" d=" M 154.68 98.72 C 156.70 98.33 158.71 97.89 160.73 97.52 C 162.02 98.18 163.20 99.03 164.42 99.81 C 161.55 101.84 158.03 102.75 154.60 101.61 C 154.62 100.89 154.66 99.44 154.68 98.72 Z" />
</g>
<g id="#ffdd91ff">
<path fill="#ffdd91" opacity="1.00" d=" M 104.35 99.90 C 109.84 109.99 114.65 120.44 120.04 130.59 C 119.08 131.08 118.11 131.56 117.14 132.03 C 113.87 125.56 110.65 119.07 107.32 112.63 C 105.41 109.41 105.82 105.48 104.35 102.09 C 104.35 101.54 104.35 100.44 104.35 99.90 Z" />
</g>
<g id="#c73a1dff">
<path fill="#c73a1d" opacity="1.00" d=" M 194.35 115.43 C 199.03 112.89 205.16 118.14 203.27 123.09 C 202.37 126.59 198.27 128.73 194.92 127.29 C 189.78 125.71 189.28 117.51 194.35 115.43 Z" />
<path fill="#c73a1d" opacity="1.00" d=" M 181.67 127.63 C 185.91 125.96 191.06 128.65 192.08 133.09 C 193.75 138.06 189.22 143.67 184.04 143.19 C 179.82 143.31 177.56 139.28 175.10 136.54 C 175.07 135.53 175.06 134.51 175.07 133.50 C 177.15 131.43 178.98 128.93 181.67 127.63 Z" />
<path fill="#c73a1d" opacity="1.00" d=" M 122.97 142.07 C 125.52 139.40 129.23 137.47 132.93 139.02 C 138.15 140.25 139.78 147.57 136.41 151.40 C 134.73 153.66 131.73 154.02 129.27 154.93 C 127.34 150.57 125.10 146.34 122.97 142.07 Z" />
<path fill="#c73a1d" opacity="1.00" d=" M 140.37 155.46 C 144.83 153.16 150.31 157.48 149.48 162.28 C 148.95 166.80 143.06 169.45 139.41 166.63 C 135.28 164.18 135.98 157.25 140.37 155.46 Z" />
</g>
<g id="#de4427ff">
<path fill="#de4427" opacity="1.00" d=" M 118.75 136.74 C 119.23 133.76 123.05 133.36 125.51 133.00 L 126.45 133.73 C 124.11 134.68 121.75 135.58 119.39 136.49 L 118.75 136.74 Z" />
</g>
<g id="#dd991cff">
<path fill="#dd991c" opacity="1.00" d=" M 159.80 207.89 C 163.32 199.92 166.83 191.91 171.00 184.25 C 171.63 185.18 172.21 186.15 172.74 187.14 C 171.75 190.15 169.99 192.83 168.64 195.68 C 166.20 200.31 164.24 205.23 161.14 209.48 C 160.81 209.08 160.14 208.29 159.80 207.89 Z" />
</g>
<g id="#f8d68bff">
<path fill="#f8d68b" opacity="1.00" d=" M 153.16 196.64 C 155.49 200.33 156.84 204.63 159.80 207.89 C 160.14 208.29 160.81 209.08 161.14 209.48 C 159.32 209.33 157.10 209.73 155.78 208.14 C 153.38 205.72 154.01 202.00 152.64 199.08 C 152.77 198.47 153.03 197.25 153.16 196.64 Z" />
</g>
</svg>
