<?xml version="1.0" encoding="UTF-8" ?>
<!DOCTYPE svg PUBLIC "-//W3C//DTD SVG 1.1//EN" "http://www.w3.org/Graphics/SVG/1.1/DTD/svg11.dtd">
<svg width="70pt" height="70pt" viewBox="0 0 70 70" version="1.1" xmlns="http://www.w3.org/2000/svg">
<g id="#231f20ff">
<path fill="#fff" opacity="1.00" d=" M 36.38 14.99 C 36.80 9.42 41.65 5.03 46.97 4.02 C 53.53 2.70 61.65 3.24 66.04 8.97 C 68.53 11.70 68.64 15.52 68.55 19.00 C 68.50 23.41 68.47 27.83 68.75 32.24 C 66.55 32.29 64.36 32.14 62.23 31.58 C 62.70 30.44 63.16 29.30 63.64 28.16 C 61.38 23.55 63.96 18.08 61.79 13.47 C 59.54 9.81 54.81 9.31 50.93 9.65 C 47.43 9.65 43.42 11.34 42.47 15.01 C 41.98 19.34 42.37 23.72 42.30 28.07 C 44.24 28.79 46.52 29.29 47.77 31.12 C 49.62 33.31 49.34 36.32 49.36 38.99 C 49.25 45.32 49.40 51.66 49.32 58.00 C 49.29 62.20 45.35 66.24 41.04 65.75 C 30.99 65.71 20.95 65.72 10.90 65.74 C 6.69 66.29 2.56 62.20 3.08 57.98 C 3.16 49.93 2.94 41.88 3.19 33.83 C 3.27 30.51 6.82 28.46 9.83 28.38 C 18.67 28.27 27.51 28.38 36.36 28.36 C 36.39 23.90 36.18 19.45 36.38 14.99 M 23.43 37.34 C 20.93 38.75 20.34 42.36 22.28 44.48 C 25.48 47.61 21.40 53.48 25.95 55.62 C 26.54 55.25 27.73 54.51 28.32 54.14 C 28.33 51.46 28.32 48.77 28.35 46.09 C 29.81 44.61 31.48 42.69 30.77 40.45 C 30.25 37.34 26.01 35.24 23.43 37.34 Z" />
</g>
</svg>
