<?xml version="1.0" encoding="UTF-8" ?>
<!DOCTYPE svg PUBLIC "-//W3C//DTD SVG 1.1//EN" "http://www.w3.org/Graphics/SVG/1.1/DTD/svg11.dtd">
<svg width="70pt" height="70pt" viewBox="0 0 70 70" version="1.1" xmlns="http://www.w3.org/2000/svg">
<g id="#000000ff">
<path fill="#e53935" opacity="1.00" d=" M 12.07 12.72 C 17.84 12.06 22.84 18.55 20.43 23.98 C 18.35 29.96 9.18 30.82 6.03 25.31 C 2.61 20.47 6.30 13.28 12.07 12.72 Z" />
<path fill="#e53935" opacity="1.00" d=" M 54.20 13.00 C 59.87 11.21 65.99 17.28 64.20 23.01 C 62.90 29.17 53.91 31.17 50.11 26.18 C 46.16 21.93 48.67 14.42 54.20 13.00 Z" />
<path fill="#e53935" opacity="1.00" d=" M 31.46 21.58 C 36.89 19.13 43.61 24.04 42.67 29.98 C 42.32 36.44 33.48 39.58 29.02 35.01 C 24.70 31.31 26.12 23.52 31.46 21.58 Z" />
<path fill="#e53935" opacity="1.00" d=" M 2.29 36.46 C 5.43 30.75 13.44 28.67 18.98 32.08 C 21.82 33.65 23.59 36.49 24.74 39.44 C 21.77 42.33 19.94 46.16 19.54 50.28 C 13.24 50.88 6.30 51.47 0.60 48.14 C 0.68 44.22 0.11 39.96 2.29 36.46 Z" />
<path fill="#e53935" opacity="1.00" d=" M 44.41 39.43 C 46.48 31.53 56.82 27.63 63.40 32.71 C 68.59 36.09 68.82 42.69 68.45 48.23 C 62.73 51.37 55.92 50.93 49.65 50.29 C 49.25 46.16 47.44 42.28 44.41 39.43 Z" />
<path fill="#e53935" opacity="1.00" d=" M 24.68 43.67 C 28.79 37.53 38.59 36.90 43.47 42.44 C 47.09 46.07 47.28 51.65 46.56 56.41 C 43.18 58.66 38.93 58.77 35.01 58.90 C 30.70 58.87 26.09 58.72 22.36 56.28 C 22.44 52.02 21.86 47.27 24.68 43.67 Z" />
</g>
</svg>
