<?xml version="1.0" encoding="UTF-8" ?>
<!DOCTYPE svg PUBLIC "-//W3C//DTD SVG 1.1//EN" "http://www.w3.org/Graphics/SVG/1.1/DTD/svg11.dtd">
<svg width="70pt" height="70pt" viewBox="0 0 70 70" version="1.1" xmlns="http://www.w3.org/2000/svg">
<g id="#64b5f6ff">
<path fill="#64b5f6" opacity="1.00" d=" M 16.89 6.99 C 16.85 5.09 17.29 1.66 19.96 2.24 C 30.97 2.21 41.97 2.17 52.98 2.27 C 56.72 6.78 61.12 10.66 65.23 14.81 C 66.01 15.67 67.15 16.54 66.91 17.86 C 66.94 32.57 66.89 47.29 66.93 62.00 C 66.91 64.23 67.09 66.50 66.63 68.70 C 50.75 69.17 34.81 68.84 18.91 68.87 C 16.65 68.91 17.17 65.80 16.68 64.31 C 31.91 64.18 47.14 64.27 62.37 64.26 C 62.36 49.68 62.34 35.10 62.38 20.51 C 58.10 20.17 53.48 21.50 49.52 19.45 C 49.52 15.48 49.52 11.52 49.52 7.56 C 40.28 7.57 31.04 7.52 21.80 7.58 C 21.81 15.17 21.82 22.75 21.80 30.33 C 20.16 30.31 18.53 30.30 16.89 30.29 C 16.84 22.52 17.00 14.76 16.89 6.99 Z" />
<path fill="#64b5f6" opacity="1.00" d=" M 27.29 23.77 C 27.34 22.13 27.38 20.48 27.42 18.83 C 32.83 18.96 38.25 18.71 43.65 18.94 C 44.27 20.46 44.07 22.14 44.21 23.74 C 38.57 23.83 32.93 23.79 27.29 23.77 Z" />
<path fill="#64b5f6" opacity="1.00" d=" M 2.40 31.23 C 5.16 31.06 8.13 31.58 9.03 34.59 C 12.18 34.64 15.33 34.65 18.47 34.59 C 17.99 37.64 18.24 41.05 20.50 43.39 C 22.55 45.87 25.90 46.32 28.92 46.44 C 28.43 47.57 27.81 48.64 27.15 49.69 C 21.99 49.75 16.83 49.61 11.68 49.79 C 12.48 50.39 12.98 51.63 14.11 51.66 C 18.20 51.94 22.30 51.68 26.39 51.77 C 26.53 52.71 26.67 53.66 26.81 54.60 C 22.52 54.76 18.21 54.84 13.92 54.67 C 11.16 54.64 9.51 51.83 8.75 49.50 C 7.43 44.61 6.84 39.55 5.65 34.63 C 4.48 34.19 3.32 33.75 2.17 33.28 C 2.22 32.77 2.34 31.75 2.40 31.23 Z" />
<path fill="#64b5f6" opacity="1.00" d=" M 25.95 30.72 C 31.04 29.90 35.47 36.04 32.80 40.56 C 30.96 44.69 24.84 45.45 21.97 42.01 C 18.35 38.30 20.89 31.46 25.95 30.72 M 26.03 37.82 C 25.19 37.59 23.49 37.12 22.64 36.88 C 23.34 38.36 24.04 40.47 25.98 40.61 C 27.93 38.71 30.99 36.98 30.71 33.86 C 28.94 34.91 27.47 36.36 26.03 37.82 Z" />
<path fill="#64b5f6" opacity="1.00" d=" M 37.97 33.44 C 44.39 33.43 50.80 33.38 57.22 33.48 C 57.22 35.10 57.22 36.73 57.22 38.36 C 50.34 38.41 43.47 38.39 36.59 38.37 C 37.06 36.73 37.52 35.09 37.97 33.44 Z" />
<path fill="#64b5f6" opacity="1.00" d=" M 32.80 52.66 C 33.29 51.02 33.80 49.39 34.35 47.77 C 41.68 47.91 49.01 47.66 56.33 47.87 C 57.99 48.79 56.96 51.11 57.27 52.65 C 49.12 52.77 40.96 52.76 32.80 52.66 Z" />
<path fill="#64b5f6" opacity="1.00" d=" M 13.09 58.91 C 12.88 55.91 16.44 56.12 17.96 57.83 C 17.79 58.52 17.45 59.92 17.28 60.62 C 15.72 60.71 13.04 61.28 13.09 58.91 Z" />
<path fill="#64b5f6" opacity="1.00" d=" M 22.30 60.10 C 22.13 58.46 22.75 55.69 25.03 56.55 C 27.75 56.79 26.86 60.63 24.82 61.40 C 23.98 60.96 23.14 60.53 22.30 60.10 Z" />
</g>
</svg>
