<?xml version="1.0" encoding="UTF-8" ?>
<!DOCTYPE svg PUBLIC "-//W3C//DTD SVG 1.1//EN" "http://www.w3.org/Graphics/SVG/1.1/DTD/svg11.dtd">
<svg width="70pt" height="70pt" viewBox="0 0 70 70" version="1.1" xmlns="http://www.w3.org/2000/svg">
<g id="#000000ff">
<path fill="#e53935" opacity="1.00" d=" M 9.79 6.12 C 26.03 -0.76 45.28 -0.73 61.34 6.65 C 62.61 8.92 60.86 12.14 58.79 13.38 C 45.83 7.84 30.90 6.74 17.47 11.18 C 15.28 11.74 13.27 12.87 11.06 13.34 C 9.16 11.86 6.57 7.50 9.79 6.12 Z" />
<path fill="#e53935" opacity="1.00" d=" M 15.19 15.43 C 28.21 10.35 43.10 10.49 55.98 15.96 C 57.31 16.34 58.23 17.86 57.48 19.16 C 50.52 34.67 43.68 50.24 36.65 65.72 C 35.99 67.01 35.13 68.49 35.63 70.00 L 34.36 70.00 C 34.70 68.76 34.50 67.60 33.79 66.52 C 26.58 50.64 19.55 34.68 12.44 18.76 C 11.77 16.98 13.80 15.90 15.19 15.43 M 33.28 14.24 C 32.44 18.72 40.51 20.71 42.54 16.91 C 41.11 14.91 38.56 17.56 36.89 16.11 C 35.87 15.12 34.93 13.63 33.28 14.24 M 23.24 16.12 C 20.17 17.35 19.21 21.97 21.91 24.06 C 24.04 26.56 28.70 25.63 29.70 22.55 C 31.98 18.89 26.86 13.80 23.24 16.12 M 43.47 20.62 C 40.83 21.54 38.82 24.87 40.39 27.48 C 41.61 30.78 46.55 31.43 48.59 28.53 C 51.83 25.25 47.79 19.19 43.47 20.62 M 26.68 37.27 C 27.05 37.25 27.78 37.21 28.15 37.19 C 28.27 34.09 30.79 32.45 33.67 32.37 C 33.64 31.89 33.59 30.93 33.56 30.45 C 29.78 29.06 24.63 33.30 26.68 37.27 M 32.21 38.92 C 28.78 41.08 29.82 47.32 34.01 47.70 C 37.36 48.65 40.69 45.40 39.83 42.04 C 39.41 38.54 34.97 37.22 32.21 38.92 M 37.68 50.01 C 37.55 50.71 37.28 52.12 37.14 52.83 C 36.26 54.87 33.60 54.33 32.30 55.94 C 33.55 58.65 36.83 56.74 38.35 55.35 C 39.90 53.89 41.21 49.26 37.68 50.01 Z" />
</g>
</svg>
