<?xml version="1.0" encoding="UTF-8" ?>
<!DOCTYPE svg PUBLIC "-//W3C//DTD SVG 1.1//EN" "http://www.w3.org/Graphics/SVG/1.1/DTD/svg11.dtd">
<svg width="70pt" height="70pt" viewBox="0 0 70 70" version="1.1" xmlns="http://www.w3.org/2000/svg">
<g id="#000000ff">
<path fill="#e53935" opacity="1.00" d=" M 20.36 1.51 C 27.55 0.89 34.82 1.48 42.04 1.24 C 44.79 1.35 47.99 0.79 50.26 2.75 C 52.17 4.17 52.72 6.65 52.63 8.91 C 52.61 16.15 52.57 23.39 52.65 30.63 C 50.99 30.35 49.33 30.08 47.68 29.81 C 47.49 22.07 48.10 14.28 47.41 6.58 C 39.41 5.78 31.32 6.47 23.28 6.25 C 22.76 10.13 24.96 15.56 21.19 18.19 C 17.82 18.96 14.31 18.45 10.89 18.57 C 10.88 30.04 10.93 41.52 10.86 53.00 C 11.05 54.34 10.40 56.37 12.00 57.07 C 16.75 57.44 21.51 57.08 26.27 57.21 C 26.95 58.86 27.64 60.51 28.34 62.15 C 22.87 62.00 17.40 62.34 11.94 62.01 C 8.87 61.91 6.08 59.22 6.15 56.09 C 6.03 43.38 6.16 30.67 6.09 17.95 C 5.62 14.13 9.37 12.04 11.57 9.55 C 14.54 6.94 16.86 3.42 20.36 1.51 Z" />
<path fill="#e53935" opacity="1.00" d=" M 27.23 17.06 C 27.69 16.47 28.63 15.30 29.09 14.72 C 33.36 14.30 37.71 14.31 41.98 14.74 C 43.70 16.38 42.56 19.35 40.04 18.79 C 35.82 18.39 30.63 20.29 27.23 17.06 Z" />
<path fill="#e53935" opacity="1.00" d=" M 16.42 25.40 C 17.57 24.22 19.49 24.91 20.96 24.67 C 27.70 24.84 34.46 24.46 41.18 24.84 C 43.48 25.05 43.39 29.07 40.99 28.98 C 33.29 29.27 25.54 29.22 17.84 29.01 C 16.00 29.18 14.84 26.51 16.42 25.40 Z" />
<path fill="#e53935" opacity="1.00" d=" M 40.40 34.60 C 48.66 31.19 58.99 35.04 62.95 43.06 C 67.29 51.01 64.40 61.94 56.61 66.60 C 52.65 69.40 47.56 69.30 42.94 68.83 C 34.79 67.35 28.61 59.25 29.06 51.02 C 28.95 43.87 33.80 37.16 40.40 34.60 M 46.57 39.86 C 45.80 42.68 42.25 42.67 41.00 45.08 C 40.04 46.98 40.06 49.72 41.89 51.10 C 44.25 52.78 47.34 52.87 49.79 54.37 C 51.49 54.96 50.41 57.64 48.90 57.58 C 46.09 58.18 43.45 56.82 40.99 55.66 C 40.55 56.75 40.15 57.85 39.79 58.96 C 42.14 60.04 45.62 59.98 46.56 62.88 C 47.23 62.88 48.58 62.87 49.26 62.87 C 49.30 62.40 49.38 61.46 49.42 60.99 C 52.77 60.17 55.72 56.66 53.89 53.19 C 51.95 49.18 45.46 51.09 43.89 47.07 C 45.09 43.47 49.79 45.53 52.23 46.60 C 52.60 45.91 53.33 44.54 53.70 43.85 C 52.27 43.25 50.84 42.65 49.41 42.06 C 49.37 41.50 49.30 40.38 49.26 39.82 C 48.59 39.83 47.24 39.85 46.57 39.86 Z" />
<path fill="#e53935" opacity="1.00" d=" M 17.98 39.29 C 15.68 39.60 14.65 35.63 17.11 35.19 C 22.38 34.40 27.78 35.12 33.10 34.84 C 31.77 36.34 30.44 37.83 29.12 39.34 C 25.41 39.31 21.69 39.50 17.98 39.29 Z" />
<path fill="#e53935" opacity="1.00" d=" M 16.01 46.16 C 18.92 44.16 23.02 45.62 26.39 45.20 C 26.10 46.66 25.80 48.13 25.51 49.59 C 22.39 49.08 17.96 50.97 15.82 48.08 C 15.86 47.60 15.96 46.64 16.01 46.16 Z" />
</g>
</svg>
