<?xml version="1.0" encoding="UTF-8" ?>
<!DOCTYPE svg PUBLIC "-//W3C//DTD SVG 1.1//EN" "http://www.w3.org/Graphics/SVG/1.1/DTD/svg11.dtd">
<svg width="70pt" height="70pt" viewBox="0 0 70 70" version="1.1" xmlns="http://www.w3.org/2000/svg">
<g id="#e53935ff">
<path fill="#e53935" opacity="1.00" d=" M 23.24 7.78 C 23.44 6.00 22.97 3.63 24.96 2.69 C 31.64 2.44 38.35 2.44 45.03 2.69 C 47.03 3.62 46.56 5.99 46.75 7.78 C 51.21 7.87 55.69 7.58 60.15 7.88 C 62.64 8.28 61.87 11.14 62.07 12.92 C 44.02 12.92 25.98 12.92 7.93 12.92 C 8.13 11.13 7.36 8.30 9.84 7.88 C 14.30 7.59 18.78 7.86 23.24 7.78 Z" />
<path fill="#e53935" opacity="1.00" d=" M 13.02 18.21 C 27.67 18.19 42.33 18.18 56.98 18.21 C 55.50 32.92 53.92 47.62 52.37 62.31 C 52.32 65.12 49.82 67.56 47.00 67.43 C 38.99 67.48 30.97 67.48 22.95 67.43 C 20.14 67.53 17.68 65.08 17.63 62.29 C 16.09 47.60 14.49 32.91 13.02 18.21 M 21.39 23.42 C 19.26 23.82 19.35 26.25 19.57 27.93 C 20.52 38.62 21.11 49.34 22.14 60.01 C 22.30 62.85 26.85 62.93 27.20 60.10 C 26.47 48.76 25.53 37.41 24.62 26.07 C 24.77 24.34 23.07 22.90 21.39 23.42 M 32.44 26.14 C 32.37 37.10 32.40 48.08 32.42 59.04 C 32.08 60.89 33.69 61.84 35.02 62.68 C 36.28 61.82 37.91 60.91 37.57 59.09 C 37.63 48.38 37.57 37.68 37.60 26.97 C 37.72 25.52 37.30 23.63 35.58 23.40 C 33.92 22.95 32.19 24.42 32.44 26.14 M 47.37 23.39 C 45.64 23.62 45.30 25.54 45.27 26.96 C 44.47 37.99 43.48 49.01 42.80 60.04 C 43.02 62.92 47.75 62.88 47.86 59.99 C 48.89 49.01 49.57 37.98 50.48 26.98 C 51.08 25.04 49.44 22.86 47.37 23.39 Z" />
</g>
</svg>
