<?xml version="1.0" encoding="UTF-8" ?>
<!DOCTYPE svg PUBLIC "-//W3C//DTD SVG 1.1//EN" "http://www.w3.org/Graphics/SVG/1.1/DTD/svg11.dtd">
<svg width="70pt" height="70pt" viewBox="0 0 70 70" version="1.1" xmlns="http://www.w3.org/2000/svg">
<g id="#131e262c">
</g>
<g id="#70b2e2ff">
<path fill="#70b2e2" opacity="1.00" d=" M 27.23 18.67 C 27.25 16.75 29.42 16.20 30.98 16.24 C 34.06 16.29 37.83 15.33 40.17 17.95 C 40.16 21.73 40.24 25.52 40.32 29.30 C 43.92 29.33 47.53 29.25 51.13 29.39 C 52.27 29.29 53.54 30.06 53.64 31.27 C 54.01 34.25 53.97 37.31 53.44 40.26 C 49.71 42.81 44.61 40.94 40.35 41.55 C 39.80 45.74 41.80 51.02 38.57 54.38 C 35.33 55.01 32.01 54.50 28.73 54.53 C 25.94 50.65 28.13 45.67 26.68 41.39 C 22.97 41.42 19.20 41.84 15.51 41.27 C 12.67 40.60 13.49 37.17 13.31 35.01 C 13.36 32.98 13.06 29.55 15.91 29.41 C 19.69 29.24 23.48 29.33 27.26 29.28 C 27.27 25.74 27.13 22.21 27.23 18.67 Z" />
</g>
<g id="#1e303e46">
</g>
<g id="#1d2f3c44">
</g>
</svg>
